<svg xmlns="http://www.w3.org/2000/svg" width="519.353" height="415.688" viewBox="0 0 519.353 415.688">
  <g id="Grupo_2121" data-name="Grupo 2121" transform="translate(1680.112 -18190.977)">
    <g id="Grupo_2119" data-name="Grupo 2119" transform="translate(-3183.256 8257.25)">
      <path id="Trazado_16200" data-name="Trazado 16200" d="M2010.571,10262.231c16.892-64.755-3.754-137.956-59.124-177.372" fill="none" stroke="#6ac8dc" stroke-linecap="round" stroke-miterlimit="10" stroke-width="12"/>
      <path id="Trazado_16201" data-name="Trazado 16201" d="M1943.939,10106.444c-.938-9.384,1.878-21.585,2.816-30.03,10.324-.938,18.77,1.876,28.154,6.569" fill="none" stroke="#6ac8dc" stroke-linecap="round" stroke-linejoin="round" stroke-miterlimit="10" stroke-width="12"/>
    </g>
    <g id="Grupo_2120" data-name="Grupo 2120" transform="translate(-3183.256 8257.25)">
      <path id="Trazado_16202" data-name="Trazado 16202" d="M1511.336,10326.915c132.325-76.015,274.972,44.11,408.235-13.138" fill="none" stroke="#6ac8dc" stroke-linecap="round" stroke-miterlimit="10" stroke-width="12"/>
      <path id="Trazado_16203" data-name="Trazado 16203" d="M1897.048,10302.516c11.262,0,23.462,2.814,33.785,6.569-5.631,9.385-9.385,23.461-15.954,31.908" fill="none" stroke="#6ac8dc" stroke-linecap="round" stroke-linejoin="round" stroke-miterlimit="10" stroke-width="12"/>
    </g>
    <path id="Trazado_17349" data-name="Trazado 17349" d="M1930.507,10043.566c-90.093-75.077-213.033,72.262-317.2-1.875" transform="translate(-3183.256 8257.25)" fill="none" stroke="#ffdbc5" stroke-linecap="round" stroke-miterlimit="10" stroke-width="12"/>
    <path id="Trazado_17350" data-name="Trazado 17350" d="M1633.95,10025.736c-8.446.938-19.708,6.568-28.154,9.385,1.877,10.322,2.815,26.278,7.507,36.6" transform="translate(-3183.256 8257.25)" fill="none" stroke="#ffdbc5" stroke-linecap="round" stroke-linejoin="round" stroke-miterlimit="10" stroke-width="12"/>
    <path id="Trazado_17351" data-name="Trazado 17351" d="M1931.446,9942.211c-76.955,73.2-219.6-15.015-314.388,26.278" transform="translate(-3183.256 8257.25)" fill="none" stroke="#ffdbc5" stroke-linecap="round" stroke-miterlimit="10" stroke-width="12"/>
    <path id="Trazado_17352" data-name="Trazado 17352" d="M1630.195,9946.9c-11.261,6.568-19.708,13.138-25.337,23.461,8.445,5.631,19.707,12.2,29.092,15.017" transform="translate(-3183.256 8257.25)" fill="none" stroke="#ffdbc5" stroke-linecap="round" stroke-linejoin="round" stroke-miterlimit="10" stroke-width="12"/>
  </g>
</svg>
