<svg xmlns="http://www.w3.org/2000/svg" width="84.662" height="197.994" viewBox="0 0 84.662 197.994">
  <g id="Grupo_2154" data-name="Grupo 2154" transform="translate(-1937.75 -10070.238)">
    <path id="Trazado_16200" data-name="Trazado 16200" d="M2010.575,10268.232a6,6,0,0,1-5.81-7.516c17.178-65.85-5.648-134.558-56.8-170.97a6,6,0,1,1,6.959-9.775c55.182,39.282,79.877,113.136,61.45,183.774A6,6,0,0,1,2010.575,10268.232Z" fill="#6ac8dc"/>
    <path id="Trazado_16201" data-name="Trazado 16201" d="M1943.932,10112.444a6,6,0,0,1-5.963-5.4c-.75-7.5.575-16.094,1.745-23.673.422-2.732.823-5.317,1.078-7.616a6,6,0,0,1,5.42-5.313c12.665-1.146,22.566,2.771,31.381,7.179a6,6,0,0,1-5.368,10.732c-6.87-3.436-13.119-5.812-20.2-6.087-.143.956-.294,1.937-.448,2.936-1.06,6.873-2.262,14.663-1.664,20.649a6,6,0,0,1-5.373,6.567C1944.333,10112.435,1944.131,10112.444,1943.932,10112.444Z" fill="#6ac8dc"/>
  </g>
</svg>
