<svg xmlns="http://www.w3.org/2000/svg" width="338.589" height="141.512" viewBox="0 0 338.589 141.512">
  <g id="Grupo_2157" data-name="Grupo 2157" transform="translate(1584.399 -17523.219)">
    <g id="Grupo_2155" data-name="Grupo 2155">
      <path id="Trazado_17362" data-name="Trazado 17362" d="M1681.708,10069.3c-24.355,0-48.46-6.048-71.884-22.719a6,6,0,0,1,6.958-9.777c50.062,35.629,105.928,17.161,159.955-.7,54.275-17.94,110.4-36.492,157.611,2.853a6,6,0,0,1-7.682,9.219c-42.095-35.078-92.645-18.369-146.163-.677C1747.851,10058.292,1714.554,10069.3,1681.708,10069.3Z" transform="translate(-3183.256 7587.008)" fill="#ffdbc5"/>
      <path id="Trazado_17363" data-name="Trazado 17363" d="M1613.307,10077.723a6,6,0,0,1-5.466-3.519c-3.77-8.293-5.253-19.159-6.561-28.746-.457-3.349-.886-6.512-1.387-9.264a6,6,0,0,1,4.005-6.765c2.618-.874,5.516-2.031,8.515-3.225,7.05-2.806,14.341-5.707,20.875-6.432a6,6,0,1,1,1.324,11.926c-4.925.547-11.745,3.261-17.762,5.655-1.477.588-2.932,1.166-4.346,1.711.223,1.531.441,3.13.665,4.77,1.2,8.771,2.554,18.711,5.6,25.4a6,6,0,0,1-5.458,8.485Z" transform="translate(-3183.256 7587.008)" fill="#ffdbc5"/>
    </g>
    <g id="Grupo_2156" data-name="Grupo 2156">
      <path id="Trazado_17351" data-name="Trazado 17351" d="M1841.574,9978.372c-25.847,0-53.043-3.873-79.861-7.691-49.9-7.1-101.491-14.45-142.259,3.31a6,6,0,0,1-4.793-11c43.885-19.118,97.192-11.529,148.743-4.187,63.47,9.037,123.421,17.573,163.906-20.937a6,6,0,1,1,8.271,8.7C1909.761,9971.119,1876.933,9978.372,1841.574,9978.372Z" transform="translate(-3183.256 7587.008)" fill="#ffdbc5"/>
      <path id="Trazado_17364" data-name="Trazado 17364" d="M1633.952,9991.384a5.988,5.988,0,0,1-1.726-.255c-10.582-3.175-22.534-10.329-30.7-15.771a6,6,0,0,1-1.939-7.864c6.8-12.479,17.278-19.762,27.582-25.771a6,6,0,1,1,6.046,10.365c-8.359,4.876-15.13,9.707-20.107,16.46,6.394,3.98,15.1,8.849,22.563,11.088a6,6,0,0,1-1.722,11.749Z" transform="translate(-3183.256 7587.008)" fill="#ffdbc5"/>
    </g>
  </g>
</svg>
