<svg xmlns="http://www.w3.org/2000/svg" width="431.498" height="52.113" viewBox="0 0 431.498 52.113">
  <g id="Grupo_2153" data-name="Grupo 2153" transform="translate(-1505.335 -10294.879)">
    <path id="Trazado_16202" data-name="Trazado 16202" d="M1836.125,10335.8c-37.416,0-74.953-7.354-111.791-14.571-73.263-14.354-142.464-27.911-210.009,10.893a6,6,0,0,1-5.977-10.406c71.432-41.033,146.092-26.407,218.294-12.263,66.331,12.994,128.983,25.269,190.562-1.185a6,6,0,1,1,4.737,11.025C1893.671,10331.434,1864.932,10335.8,1836.125,10335.8Z" fill="#6ac8dc"/>
    <path id="Trazado_16203" data-name="Trazado 16203" d="M1914.875,10346.993a6,6,0,0,1-4.732-9.684c3.287-4.227,6-10.621,8.624-16.806,1.123-2.646,2.266-5.34,3.483-7.937a90.823,90.823,0,0,0-25.2-4.051,6,6,0,0,1,0-12c10.822,0,23.549,2.461,35.836,6.931a6,6,0,0,1,3.094,8.726,109.392,109.392,0,0,0-6.164,13.02c-2.925,6.894-5.949,14.021-10.2,19.485A5.991,5.991,0,0,1,1914.875,10346.993Z" fill="#6ac8dc"/>
  </g>
</svg>
