<svg xmlns="http://www.w3.org/2000/svg" width="1235.869" height="701.101" viewBox="0 0 1235.869 701.101">
  <g id="Grupo_1469" data-name="Grupo 1469" transform="translate(-26.763 -6.069)">
    <path id="Trazado_1599" data-name="Trazado 1599" d="M1666.052,7334.338a28.878,28.878,0,1,1-28.878-28.878A28.877,28.877,0,0,1,1666.052,7334.338Z" transform="translate(-1498.256 -7052.895)" fill="none" stroke="#4ff" stroke-miterlimit="10" stroke-width="12" opacity="0.5"/>
    <path id="Trazado_1600" data-name="Trazado 1600" d="M1986.887,7698.223a28.878,28.878,0,1,1-28.877-28.878A28.877,28.877,0,0,1,1986.887,7698.223Z" transform="translate(-1498.256 -7052.895)" fill="none" stroke="#4ff" stroke-miterlimit="10" stroke-width="12" opacity="0.5"/>
    <path id="Trazado_1601" data-name="Trazado 1601" d="M2578.75,7195.715a28.877,28.877,0,1,1-28.877-28.878A28.878,28.878,0,0,1,2578.75,7195.715Z" transform="translate(-1498.256 -7052.895)" fill="none" stroke="#4ff" stroke-miterlimit="10" stroke-width="12" opacity="0.5"/>
    <path id="Trazado_1602" data-name="Trazado 1602" d="M2626.887,7298.223a28.877,28.877,0,1,1-28.877-28.878A28.877,28.877,0,0,1,2626.887,7298.223Z" transform="translate(-1498.256 -7052.895)" fill="none" stroke="#4ff" stroke-miterlimit="10" stroke-width="12" opacity="0.5"/>
    <path id="Trazado_1603" data-name="Trazado 1603" d="M2704.887,7374.223a28.877,28.877,0,1,1-28.877-28.878A28.877,28.877,0,0,1,2704.887,7374.223Z" transform="translate(-1498.256 -7052.895)" fill="none" stroke="#4ff" stroke-miterlimit="10" stroke-width="12" opacity="0.5"/>
    <path id="Trazado_1604" data-name="Trazado 1604" d="M2272.887,7218.223a28.877,28.877,0,1,1-28.877-28.878A28.877,28.877,0,0,1,2272.887,7218.223Z" transform="translate(-1498.256 -7052.895)" fill="none" stroke="#4ff" stroke-miterlimit="10" stroke-width="12" opacity="0.5"/>
    <path id="Trazado_1605" data-name="Trazado 1605" d="M1616.887,7548.223a28.878,28.878,0,1,1-28.877-28.878A28.877,28.877,0,0,1,1616.887,7548.223Z" transform="translate(-1498.256 -7052.895)" fill="none" stroke="#4ff" stroke-miterlimit="10" stroke-width="12" opacity="0.5"/>
    <path id="Trazado_1606" data-name="Trazado 1606" d="M2732.887,7468.223a28.877,28.877,0,1,1-28.877-28.878A28.877,28.877,0,0,1,2732.887,7468.223Z" transform="translate(-1498.256 -7052.895)" fill="none" stroke="#4ff" stroke-miterlimit="10" stroke-width="12" opacity="0.5"/>
    <path id="Trazado_1607" data-name="Trazado 1607" d="M2633.893,7544.719a28.878,28.878,0,1,1-28.878-28.878A28.879,28.879,0,0,1,2633.893,7544.719Z" transform="translate(-1498.256 -7052.895)" fill="none" stroke="#4ff" stroke-miterlimit="10" stroke-width="12" opacity="0.5"/>
    <path id="Trazado_1608" data-name="Trazado 1608" d="M2754.888,7187.225a28.878,28.878,0,1,1-28.878-28.878A28.878,28.878,0,0,1,2754.888,7187.225Z" transform="translate(-1498.256 -7052.895)" fill="none" stroke="#4ff" stroke-miterlimit="10" stroke-width="12" opacity="0.5"/>
    <path id="Trazado_1609" data-name="Trazado 1609" d="M2582.888,7389.225a28.878,28.878,0,1,1-28.878-28.878A28.878,28.878,0,0,1,2582.888,7389.225Z" transform="translate(-1498.256 -7052.895)" fill="none" stroke="#4ff" stroke-miterlimit="10" stroke-width="12" opacity="0.5"/>
    <path id="Trazado_1610" data-name="Trazado 1610" d="M2436.887,7132.223a28.877,28.877,0,1,1-28.877-28.878A28.877,28.877,0,0,1,2436.887,7132.223Z" transform="translate(-1498.256 -7052.895)" fill="none" stroke="#4ff" stroke-miterlimit="10" stroke-width="12" opacity="0.5"/>
    <path id="Trazado_1611" data-name="Trazado 1611" d="M2094.887,7600.223a28.878,28.878,0,1,1-28.877-28.878A28.877,28.877,0,0,1,2094.887,7600.223Z" transform="translate(-1498.256 -7052.895)" fill="none" stroke="#4ff" stroke-miterlimit="10" stroke-width="12" opacity="0.5"/>
    <path id="Trazado_1612" data-name="Trazado 1612" d="M2432.887,7558.223a28.877,28.877,0,1,1-28.877-28.878A28.877,28.877,0,0,1,2432.887,7558.223Z" transform="translate(-1498.256 -7052.895)" fill="none" stroke="#4ff" stroke-miterlimit="10" stroke-width="12" opacity="0.5"/>
    <path id="Trazado_1613" data-name="Trazado 1613" d="M2318.887,7597.346a28.877,28.877,0,1,1-28.877-28.878A28.877,28.877,0,0,1,2318.887,7597.346Z" transform="translate(-1498.256 -7052.895)" fill="none" stroke="#4ff" stroke-miterlimit="10" stroke-width="12" opacity="0.5"/>
    <path id="Trazado_1614" data-name="Trazado 1614" d="M1872.887,7647.346a28.878,28.878,0,1,1-28.877-28.878A28.877,28.877,0,0,1,1872.887,7647.346Z" transform="translate(-1498.256 -7052.895)" fill="none" stroke="#4ff" stroke-miterlimit="10" stroke-width="12" opacity="0.5"/>
    <path id="Trazado_1615" data-name="Trazado 1615" d="M2184.564,7384.291a28.877,28.877,0,1,1-28.878-28.878A28.878,28.878,0,0,1,2184.564,7384.291Z" transform="translate(-1498.256 -7052.895)" fill="none" stroke="#4ff" stroke-miterlimit="10" stroke-width="12" opacity="0.5"/>
    <path id="Trazado_1616" data-name="Trazado 1616" d="M2346.9,7447.143a28.877,28.877,0,1,1-28.877-28.878A28.877,28.877,0,0,1,2346.9,7447.143Z" transform="translate(-1498.256 -7052.895)" fill="none" stroke="#4ff" stroke-miterlimit="10" stroke-width="12" opacity="0.5"/>
    <path id="Trazado_1617" data-name="Trazado 1617" d="M1588.774,7247.478A28.878,28.878,0,1,1,1559.9,7218.6,28.878,28.878,0,0,1,1588.774,7247.478Z" transform="translate(-1498.256 -7052.895)" fill="none" stroke="#4ff" stroke-miterlimit="10" stroke-width="12" opacity="0.5"/>
    <path id="Trazado_1618" data-name="Trazado 1618" d="M2464.756,7725.188a28.878,28.878,0,1,1-28.877-28.878A28.877,28.877,0,0,1,2464.756,7725.188Z" transform="translate(-1498.256 -7052.895)" fill="none" stroke="#4ff" stroke-miterlimit="10" stroke-width="12" opacity="0.5"/>
    <path id="Trazado_1619" data-name="Trazado 1619" d="M2069.389,7174.226a28.878,28.878,0,1,1-28.878-28.878A28.878,28.878,0,0,1,2069.389,7174.226Z" transform="translate(-1498.256 -7052.895)" fill="none" stroke="#4ff" stroke-miterlimit="10" stroke-width="12" opacity="0.5"/>
    <path id="Trazado_1620" data-name="Trazado 1620" d="M1978.392,7189.842a28.878,28.878,0,1,1-28.877-28.878A28.878,28.878,0,0,1,1978.392,7189.842Z" transform="translate(-1498.256 -7052.895)" fill="none" stroke="#4ff" stroke-miterlimit="10" stroke-width="12" opacity="0.5"/>
    <path id="Trazado_1621" data-name="Trazado 1621" d="M1634.887,7423.346a28.878,28.878,0,1,1-28.877-28.878A28.877,28.877,0,0,1,1634.887,7423.346Z" transform="translate(-1498.256 -7052.895)" fill="none" stroke="#4ff" stroke-miterlimit="10" stroke-width="12" opacity="0.5"/>
    <path id="Trazado_1622" data-name="Trazado 1622" d="M2212.392,7093.842a28.878,28.878,0,1,1-28.877-28.878A28.878,28.878,0,0,1,2212.392,7093.842Z" transform="translate(-1498.256 -7052.895)" fill="none" stroke="#4ff" stroke-miterlimit="10" stroke-width="12" opacity="0.5"/>
    <path id="Trazado_1623" data-name="Trazado 1623" d="M1920.221,7122.235a28.878,28.878,0,1,1-28.878-28.877A28.877,28.877,0,0,1,1920.221,7122.235Z" transform="translate(-1498.256 -7052.895)" fill="none" stroke="#4ff" stroke-miterlimit="10" stroke-width="12" opacity="0.5"/>
    <path id="Trazado_1624" data-name="Trazado 1624" d="M1745.887,7233.722a28.878,28.878,0,1,1-28.879-28.878A28.879,28.879,0,0,1,1745.887,7233.722Z" transform="translate(-1498.256 -7052.895)" fill="none" stroke="#4ff" stroke-miterlimit="10" stroke-width="12" opacity="0.5"/>
    <path id="Trazado_1625" data-name="Trazado 1625" d="M2060.887,7498.223a28.878,28.878,0,1,1-28.877-28.878A28.877,28.877,0,0,1,2060.887,7498.223Z" transform="translate(-1498.256 -7052.895)" fill="none" stroke="#4ff" stroke-miterlimit="10" stroke-width="12" opacity="0.5"/>
    <path id="Trazado_1626" data-name="Trazado 1626" d="M1958.887,7562.223a28.878,28.878,0,1,1-28.877-28.878A28.877,28.877,0,0,1,1958.887,7562.223Z" transform="translate(-1498.256 -7052.895)" fill="none" stroke="#4ff" stroke-miterlimit="10" stroke-width="12" opacity="0.5"/>
    <path id="Trazado_1627" data-name="Trazado 1627" d="M1684.4,7703.216a28.878,28.878,0,1,1-28.877-28.878A28.877,28.877,0,0,1,1684.4,7703.216Z" transform="translate(-1498.256 -7052.895)" fill="none" stroke="#4ff" stroke-miterlimit="10" stroke-width="12" opacity="0.5"/>
    <path id="Trazado_1628" data-name="Trazado 1628" d="M1738.887,7482.223a28.878,28.878,0,1,1-28.877-28.878A28.877,28.877,0,0,1,1738.887,7482.223Z" transform="translate(-1498.256 -7052.895)" fill="none" stroke="#4ff" stroke-miterlimit="10" stroke-width="12" opacity="0.5"/>
    <path id="Trazado_1629" data-name="Trazado 1629" d="M2660.218,7652.223a28.878,28.878,0,1,1-28.877-28.878A28.877,28.877,0,0,1,2660.218,7652.223Z" transform="translate(-1498.256 -7052.895)" fill="none" stroke="#4ff" stroke-miterlimit="10" stroke-width="12" opacity="0.5"/>
    <path id="Trazado_1630" data-name="Trazado 1630" d="M2196.887,7664.223a28.877,28.877,0,1,1-28.877-28.878A28.877,28.877,0,0,1,2196.887,7664.223Z" transform="translate(-1498.256 -7052.895)" fill="none" stroke="#4ff" stroke-miterlimit="10" stroke-width="12" opacity="0.5"/>
    <path id="Trazado_1631" data-name="Trazado 1631" d="M1776.887,7616.223a28.878,28.878,0,1,1-28.877-28.878A28.877,28.877,0,0,1,1776.887,7616.223Z" transform="translate(-1498.256 -7052.895)" fill="none" stroke="#4ff" stroke-miterlimit="10" stroke-width="12" opacity="0.5"/>
    <path id="Trazado_1663" data-name="Trazado 1663" d="M1852.361,7689.257h-3.419A5.362,5.362,0,0,1,1852.361,7689.257Z" transform="translate(-1498.256 -7052.895)" fill="#fff"/>
  </g>
</svg>
