<svg xmlns="http://www.w3.org/2000/svg" xmlns:xlink="http://www.w3.org/1999/xlink" width="106.99" height="106.989" viewBox="0 0 106.99 106.989">
  <defs>
    <linearGradient id="linear-gradient" x1="-97.629" y1="291.147" x2="-96.873" y2="290.033" gradientUnits="objectBoundingBox">
      <stop offset="0" stop-color="#008bd2"/>
      <stop offset="1" stop-color="#dccf71"/>
    </linearGradient>
    <linearGradient id="linear-gradient-2" x1="-561.524" y1="1973.601" x2="-560.524" y2="1973.601" gradientUnits="objectBoundingBox">
      <stop offset="0" stop-color="#a1daf8"/>
      <stop offset="1" stop-color="#fff"/>
    </linearGradient>
    <linearGradient id="linear-gradient-3" x1="-424.759" y1="1499.57" x2="-423.759" y2="1499.57" xlink:href="#linear-gradient-2"/>
    <linearGradient id="linear-gradient-4" x1="-555.954" y1="1975.328" x2="-554.954" y2="1975.328" xlink:href="#linear-gradient-2"/>
    <linearGradient id="linear-gradient-5" x1="-420.74" y1="1500.574" x2="-419.74" y2="1500.574" xlink:href="#linear-gradient-2"/>
    <linearGradient id="linear-gradient-6" x1="-555.97" y1="1974.473" x2="-554.97" y2="1974.473" xlink:href="#linear-gradient-2"/>
    <linearGradient id="linear-gradient-7" x1="-1116.158" y1="3939.939" x2="-1115.157" y2="3939.939" xlink:href="#linear-gradient-2"/>
    <linearGradient id="linear-gradient-8" x1="-1113.595" y1="3946.74" x2="-1112.593" y2="3946.74" xlink:href="#linear-gradient-2"/>
    <linearGradient id="linear-gradient-9" x1="-1106.161" y1="3933.221" x2="-1105.159" y2="3933.221" xlink:href="#linear-gradient-2"/>
    <linearGradient id="linear-gradient-10" x1="-1107.286" y1="3946.769" x2="-1106.285" y2="3946.769" xlink:href="#linear-gradient-2"/>
    <linearGradient id="linear-gradient-11" x1="-1120.721" y1="3946.714" x2="-1119.721" y2="3946.714" xlink:href="#linear-gradient-2"/>
    <linearGradient id="linear-gradient-12" x1="-421.711" y1="1499.585" x2="-420.711" y2="1499.585" xlink:href="#linear-gradient-2"/>
    <linearGradient id="linear-gradient-13" x1="-426.104" y1="1498.581" x2="-425.104" y2="1498.581" xlink:href="#linear-gradient-2"/>
    <linearGradient id="linear-gradient-14" x1="-558.988" y1="1975.318" x2="-557.988" y2="1975.318" xlink:href="#linear-gradient-2"/>
    <linearGradient id="linear-gradient-15" x1="-418.312" y1="1498.129" x2="-417.311" y2="1498.129" xlink:href="#linear-gradient-2"/>
    <linearGradient id="linear-gradient-16" x1="-426.309" y1="1500.547" x2="-425.309" y2="1500.547" xlink:href="#linear-gradient-2"/>
    <linearGradient id="linear-gradient-17" x1="-1107.589" y1="3946.768" x2="-1106.589" y2="3946.768" xlink:href="#linear-gradient-2"/>
    <linearGradient id="linear-gradient-18" x1="-1120.247" y1="3967.254" x2="-1119.247" y2="3967.254" xlink:href="#linear-gradient-2"/>
    <linearGradient id="linear-gradient-19" x1="-564.697" y1="1974.438" x2="-563.697" y2="1974.438" xlink:href="#linear-gradient-2"/>
    <linearGradient id="linear-gradient-20" x1="-1109.707" y1="3939.96" x2="-1108.707" y2="3939.96" xlink:href="#linear-gradient-2"/>
    <linearGradient id="linear-gradient-21" x1="-423.504" y1="1498.105" x2="-422.504" y2="1498.105" xlink:href="#linear-gradient-2"/>
    <linearGradient id="linear-gradient-22" x1="-555.955" y1="1974.481" x2="-554.955" y2="1974.481" xlink:href="#linear-gradient-2"/>
    <linearGradient id="linear-gradient-23" x1="-566.097" y1="1976.987" x2="-565.097" y2="1976.987" xlink:href="#linear-gradient-2"/>
    <linearGradient id="linear-gradient-24" x1="-1132.084" y1="3953.482" x2="-1131.083" y2="3953.482" xlink:href="#linear-gradient-2"/>
    <linearGradient id="linear-gradient-25" x1="-1128.408" y1="3953.519" x2="-1127.406" y2="3953.519" xlink:href="#linear-gradient-2"/>
  </defs>
  <g id="Grupo_1467" data-name="Grupo 1467" transform="translate(-9642 -2031.889)">
    <path id="Trazado_14829" data-name="Trazado 14829" d="M1890.67,6808.45a47.495,47.495,0,1,1-47.5-47.5A47.5,47.5,0,0,1,1890.67,6808.45Z" transform="translate(7852.32 -4723.066)" fill="none" stroke="#fff" stroke-miterlimit="10" stroke-width="12" opacity="0.5"/>
    <g id="Grupo_1466" data-name="Grupo 1466" transform="translate(7852.32 -4723.066)">
      <g id="Grupo_544" data-name="Grupo 544">
        <g id="Grupo_527" data-name="Grupo 527">
          <path id="Trazado_1771" data-name="Trazado 1771" d="M1843.888,6785.423l-3.012-1.24-.3,19.657,3.148-1.747Z" fill="#575756" fill-rule="evenodd"/>
          <path id="Trazado_1772" data-name="Trazado 1772" d="M1838.578,6782.821l2.3,1.361,3.012,1.24-2.348-1.365Z" fill="#aaa9a9" fill-rule="evenodd"/>
          <path id="Trazado_1773" data-name="Trazado 1773" d="M1838.578,6782.821l2.3,1.362-.3,19.658-2.3-1.36C1838.4,6795.266,1838.507,6787.217,1838.578,6782.821Z" fill="#3c3c3b" fill-rule="evenodd"/>
          <path id="Trazado_1774" data-name="Trazado 1774" d="M1840.336,6784.357l-8.33,4.625-.3,19.691,8.436-4.685Z" fill="#575756" fill-rule="evenodd"/>
          <path id="Trazado_1775" data-name="Trazado 1775" d="M1829.708,6787.622l2.3,1.36,8.329-4.624-2.35-1.366Z" fill="#aaa9a9" fill-rule="evenodd"/>
          <path id="Trazado_1776" data-name="Trazado 1776" d="M1829.708,6787.622l2.3,1.361-.3,19.691-2.3-1.361C1829.527,6800.1,1829.637,6792.018,1829.708,6787.622Z" fill="#3c3c3b" fill-rule="evenodd"/>
          <path id="Trazado_1777" data-name="Trazado 1777" d="M1831.492,6789.248l-3.071,4.861-.267,16.519,3.149-1.749Z" fill="#575756" fill-rule="evenodd"/>
          <path id="Trazado_1778" data-name="Trazado 1778" d="M1826.123,6792.748l2.3,1.361,3.071-4.861-2.348-1.365Z" fill="#aaa9a9" fill-rule="evenodd"/>
          <path id="Trazado_1779" data-name="Trazado 1779" d="M1826.123,6792.748l2.3,1.361-.267,16.518-2.3-1.36C1825.973,6802.051,1826.052,6797.145,1826.123,6792.748Z" fill="#9d9d9c" fill-rule="evenodd"/>
        </g>
        <g id="Grupo_543" data-name="Grupo 543">
          <g id="Grupo_531" data-name="Grupo 531">
            <g id="Grupo_528" data-name="Grupo 528">
              <path id="Trazado_1780" data-name="Trazado 1780" d="M1854.344,6808.843a.258.258,0,0,0,.066-.007.226.226,0,0,0,.153-.28l-.415-1.431a.225.225,0,0,0-.433.124l.416,1.433A.223.223,0,0,0,1854.344,6808.843Z" fill="#706f6f"/>
            </g>
            <g id="Grupo_529" data-name="Grupo 529">
              <path id="Trazado_1781" data-name="Trazado 1781" d="M1853.387,6809.134a.209.209,0,0,0,.064-.01.224.224,0,0,0,.154-.278l-.415-1.434a.225.225,0,0,0-.433.126l.416,1.433A.224.224,0,0,0,1853.387,6809.134Z" fill="#706f6f"/>
            </g>
            <path id="Trazado_1782" data-name="Trazado 1782" d="M1852.786,6807.529a.848.848,0,0,1,.751-.673c.406-.072.73.115.72.416a.849.849,0,0,1-.75.673C1853.1,6808.017,1852.777,6807.83,1852.786,6807.529Z" fill="#575756" fill-rule="evenodd"/>
            <path id="Trazado_1783" data-name="Trazado 1783" d="M1852.7,6807.364c.012-.3.356-.584.768-.64s.741.134.729.431-.355.581-.768.641S1852.69,6807.66,1852.7,6807.364Z" fill="#c6c6c6" fill-rule="evenodd"/>
            <g id="Grupo_530" data-name="Grupo 530">
              <path id="Trazado_1784" data-name="Trazado 1784" d="M1853.349,6807.534a.828.828,0,0,0,.182-.022.634.634,0,0,0,.431-.783l-1.017-3.5a.631.631,0,0,0-1.212.351l1.018,3.5A.63.63,0,0,0,1853.349,6807.534Z" fill="#706f6f"/>
            </g>
          </g>
          <path id="Trazado_1785" data-name="Trazado 1785" d="M1851.7,6797.613c-1.721-.015-3.642.812-3.932,2.375-.629,3.387.321,6.5,3.85,6.141,5.137-.522,5.131-5.552,2.219-8.271C1853.256,6797.315,1852.563,6797.622,1851.7,6797.613Z" fill="#c44f0c" fill-rule="evenodd"/>
          <path id="Trazado_1786" data-name="Trazado 1786" d="M1847.981,6801.443c-3.686-6.2-3.65-16.089-1.976-16.458,1.978-.435,4.548-.018,4.8,2.47.407.77-.3.313.8.909,1.024-.058,2.779,1.95,2.446,3.2a1.691,1.691,0,0,0,.786,1.582,3.934,3.934,0,0,1-.149,4.115C1853.408,6801.146,1852.348,6800.617,1847.981,6801.443Z" fill="#c44f0c" fill-rule="evenodd"/>
          <g id="Grupo_532" data-name="Grupo 532">
            <path id="Trazado_1787" data-name="Trazado 1787" d="M1854.05,6791.561c-.371,3.284-3.545,5.017-6.937,3.336l-1.179-.943c2.085,4.217,8.3,1.609,8.4-1.546Z" fill="#575756"/>
            <path id="Trazado_1788" data-name="Trazado 1788" d="M1854.333,6792.408c-.138,1.774-2.793,3.965-5.384,3.634-5.364-.688-3.793.082-.429.491,2.711.328,6.292-1.747,6.2-3.556Z" fill="#c6c6c6"/>
          </g>
          <path id="Trazado_1789" data-name="Trazado 1789" d="M1848.154,6798.74c1.884,2.976,6.2.1,6.533-1.482.307,3.111-4.892,5.168-6.2,2.56A3.633,3.633,0,0,0,1848.154,6798.74Z" fill="#575756"/>
          <path id="Trazado_1790" data-name="Trazado 1790" d="M1848.063,6799.613c2.228,2.1,6.66.385,6.633-2.2.582,3.753-5.075,5.146-6.66,2.78C1848.007,6800.014,1848.111,6799.9,1848.063,6799.613Z" fill="#c6c6c6"/>
          <g id="Grupo_533" data-name="Grupo 533">
            <path id="Trazado_1791" data-name="Trazado 1791" d="M1850.724,6787.225c1.138,3.129-1.761,7.3-5.523,6.888l-1.432-.48c3.407,3.241,8.73-2.506,7.43-5.646Z" fill="#575756"/>
            <path id="Trazado_1792" data-name="Trazado 1792" d="M1851.243,6788.107c.414,1.473-.725,4.278-2.634,5.575-5.318,3.615-3.48,2.293-.23.45,2.683-1.523,3.9-4.076,3.225-5.768Z" fill="#c6c6c6"/>
          </g>
          <g id="Grupo_534" data-name="Grupo 534">
            <path id="Trazado_1793" data-name="Trazado 1793" d="M1844.154,6786.417c3.168.258,5.145,5.873,2.46,8.54l-1.273.813c4.663-.615,4.072-8.874-.125-9.771Z" fill="#575756"/>
            <path id="Trazado_1794" data-name="Trazado 1794" d="M1844.993,6786.1c2.4.192,4.227,4.345,3.122,7.093-.685,1.709-3.149,5.9-.056.6,1.6-2.738.826-7.513-2.2-8.161Z" fill="#c6c6c6"/>
          </g>
          <path id="Trazado_1795" data-name="Trazado 1795" d="M1832.555,6837.593c-.03.121-1.574,2.823-1.044,5.205.279,1.249,4.9,4.6,9.482,5.422,1.416.254,3.146-.451,3.418-1.205.38-1.046.437-2.922-.563-3.851-1.413-1.315-4-1.708-4.472-3.79a5.587,5.587,0,0,1-.059-1.587Z" fill="#3c3c3b" fill-rule="evenodd"/>
          <path id="Trazado_1796" data-name="Trazado 1796" d="M1843.232,6843.393c-1.124-1.231-3.641-1.859-4.053-3.05a3.858,3.858,0,0,1-3.759.693c.445,2.338,4.188,3.795,5.932,3.813S1844.086,6844.328,1843.232,6843.393Z" fill="#706f6f" fill-rule="evenodd"/>
          <path id="Trazado_1797" data-name="Trazado 1797" d="M1831.466,6792.84c-.571,2.094-.01,11.857,2.075,13.353,3.187,4.609,11.741,3.958,15.065-2.767,3.023-4.415.954-11.893-2.238-15.8-1.41-1.726-3.114-2.28-5.563-2.336C1834.068,6785.6,1831.877,6791.342,1831.466,6792.84Z" fill="#3c3c3b" fill-rule="evenodd"/>
          <path id="Trazado_1798" data-name="Trazado 1798" d="M1849.255,6804.24c.271.168,1.357.544,1.446,3.929.026.972-.31,1.66.344,2.4.773.972,1.117,2.313.765,4.881-.023.525-.059,1.009-.1,1.467a5.315,5.315,0,0,1-.2,2.935c-.121.526.286.575.262,1.107.875,3.893-1.217,8.291-2.866,10.949-1.025,2.35-4.943,2.222-6.864.157.408-3.644,1.1-7.056.325-13.1a5.658,5.658,0,0,1-.271,2.638c-.023.215-.045.433-.068.652a9.224,9.224,0,0,1-.73,6.2c.218,2.37.1,5.034-.467,5.857-.008,2.25-7.577,3.844-8.5-.689-.8-.526-1.391-6.713-.393-8.27.008-.6.088-.6.1-1.265a2.366,2.366,0,0,1,0-1.685c.04-.429.409-.725.049-1.332a9.2,9.2,0,0,1-.053-6.207c.57-6.43.088-6.817.069-7.928.831,3.617,14.924,3.254,14.334-.692Z" fill="#c44f0c" fill-rule="evenodd"/>
          <path id="Trazado_1799" data-name="Trazado 1799" d="M1839.3,6838.92c1.076-1.111,1.7-2.839,1.234-3.627-1.683,1.841-6.727,1.218-8.243-.747a4.983,4.983,0,0,0,.006,3.554C1833.2,6840.177,1837.417,6840.869,1839.3,6838.92Z" fill="#c44f0c"/>
          <path id="Trazado_1800" data-name="Trazado 1800" d="M1849.528,6801.606c-2.523,5.875-12.318,8.56-16.338,4.266a7.73,7.73,0,0,0,.021,2.472c3.377,3.556,14.876,1.116,16.017-3.8A15.249,15.249,0,0,0,1849.528,6801.606Z" fill="#575756" fill-rule="evenodd"/>
          <path id="Trazado_1801" data-name="Trazado 1801" d="M1837.392,6809.362c3.545,2.513,4.513,5.044,5.054,8.844.764-3.5-.232-7.148-2.317-8.637C1839.5,6809.5,1838.021,6809.436,1837.392,6809.362Z" fill="#3c3c3b" fill-rule="evenodd"/>
          <path id="Trazado_1802" data-name="Trazado 1802" d="M1847.17,6807.391c-.461,2.823-1.545,8.143-4.724,10.815,4.838-3.2,6.2-8.871,6.475-12.75C1848.758,6804.846,1847.726,6806.926,1847.17,6807.391Z" fill="#3c3c3b" fill-rule="evenodd"/>
          <path id="Trazado_1803" data-name="Trazado 1803" d="M1834.6,6779.619c-1.212,1.977-2.016,4.389-.766,9.088,2.561,2.563,7.1,4.242,11.086,2,4.01-2.25,4.635-8.874,1.451-12.474C1843.4,6774.874,1837.008,6775.7,1834.6,6779.619Z" fill="#c44f0c" fill-rule="evenodd"/>
          <path id="Trazado_1804" data-name="Trazado 1804" d="M1833.2,6806.525a10.382,10.382,0,0,1,.012,1.819c3.274,4.141,14.762,1.76,16.017-3.8.068-.76.147-1.512.227-2.255C1846.885,6808.347,1837.214,6810.8,1833.2,6806.525Z" fill="#3c3c3b" fill-rule="evenodd"/>
          <path id="Trazado_1805" data-name="Trazado 1805" d="M1833.431,6786.87a9.009,9.009,0,0,0,9.2.857,13.341,13.341,0,0,0,5.327-6.662,7.908,7.908,0,0,0-1.582-2.828c-2.973-3.363-9.326-2.554-11.771,1.382C1833.494,6781.407,1832.892,6783.354,1833.431,6786.87Z" fill="#f2722a" fill-rule="evenodd"/>
          <path id="Trazado_1806" data-name="Trazado 1806" d="M1837.664,6777.456c-2.615,1.445-4.009,3.934-3.111,5.558s3.745,1.771,6.361.327,4.009-3.934,3.112-5.558S1840.28,6776.012,1837.664,6777.456Z" fill="#f2b211" fill-rule="evenodd"/>
          <path id="Trazado_1807" data-name="Trazado 1807" d="M1840.035,6776.889c-1.165.4-1.91,1.3-1.662,2.029s1.389.987,2.554.593,1.909-1.307,1.663-2.03S1841.2,6776.49,1840.035,6776.889Z" fill="#fff7b2" fill-rule="evenodd"/>
          <g id="Grupo_536" data-name="Grupo 536">
            <g id="Grupo_535" data-name="Grupo 535">
              <path id="Trazado_1808" data-name="Trazado 1808" d="M1843.282,6779.992c-2.638.76-4.8,3.828-4.83,6.853s2.086,4.861,4.723,4.1,4.8-3.828,4.828-6.853S1845.918,6779.232,1843.282,6779.992Z" fill="#575756" fill-rule="evenodd"/>
              <path id="Trazado_1809" data-name="Trazado 1809" d="M1843.267,6781.5a5.4,5.4,0,0,0-3.5,4.96c-.021,2.189,1.509,3.518,3.419,2.968a5.4,5.4,0,0,0,3.5-4.96C1846.707,6782.284,1845.175,6780.954,1843.267,6781.5Z" fill="#acbdd4" fill-rule="evenodd"/>
            </g>
            <path id="Trazado_1810" data-name="Trazado 1810" d="M1843.267,6781.5a5.4,5.4,0,0,0-3.5,4.96,3.3,3.3,0,0,0,.807,2.336,2.613,2.613,0,0,0,1.987.154,5.4,5.4,0,0,0,3.5-4.961,3.327,3.327,0,0,0-.806-2.337A2.626,2.626,0,0,0,1843.267,6781.5Z" fill-rule="evenodd" fill="url(#linear-gradient)"/>
          </g>
          <path id="Trazado_1811" data-name="Trazado 1811" d="M1831.965,6812.817c1.246,4.036,7.875,6.022,10.473,5.325-.807,2.3-9.327.2-10.215-4.013A3.521,3.521,0,0,0,1831.965,6812.817Z" fill="#575756"/>
          <path id="Trazado_1812" data-name="Trazado 1812" d="M1832.223,6814.129c2.44,4.439,8.539,6.015,10.223,4.077-1.773,3.326-9.759.425-10.41-3.348C1832.069,6814.621,1832.179,6814.508,1832.223,6814.129Z" fill="#c6c6c6"/>
          <path id="Trazado_1813" data-name="Trazado 1813" d="M1832.09,6821c1.165,3.314,8.573,2.612,10,.64.037,2.417-9.062,3.988-9.954.135C1832.145,6821.5,1832.085,6821.272,1832.09,6821Z" fill="#575756"/>
          <path id="Trazado_1814" data-name="Trazado 1814" d="M1832.139,6821.778c2.451,3.476,8.4,2.457,9.921.183-.281,3.265-9.367,3.941-10.02.436C1832.075,6822.149,1832.095,6822.176,1832.139,6821.778Z" fill="#c6c6c6"/>
          <path id="Trazado_1815" data-name="Trazado 1815" d="M1832.041,6824.082c.975,2.849,6.955,4.978,9.309,4.346-.731,2.084-8.513.117-9.317-3.7C1832.036,6824.4,1832.037,6824.32,1832.041,6824.082Z" fill="#575756"/>
          <path id="Trazado_1816" data-name="Trazado 1816" d="M1832.031,6824.727c2.212,4.023,7.8,5.514,9.327,3.759-1.606,3.014-8.828.279-9.417-3.139C1831.972,6825.132,1831.992,6825.07,1832.031,6824.727Z" fill="#c6c6c6"/>
          <path id="Trazado_1817" data-name="Trazado 1817" d="M1825.045,6801.188a8.185,8.185,0,0,0,.108,1.857,7.674,7.674,0,0,0,1.7,6.211c.779,2.338,2.552,2.162,6.292.034-.207-1.127.223.439.062-1.906a4.152,4.152,0,0,0,.239-3.64c-.2-.471-.1-.734.035-1.324a10,10,0,0,1,1.457-3.075,5.269,5.269,0,0,0,1.3-3.778,1.6,1.6,0,0,0,.025-.26c.339-1.828-2.167-6.323-3.594-5.22a9.362,9.362,0,0,0-.912.45c-1.646-.144-3.849,2.028-3.919,3.673-.127.551.175,1.194-.831,1.743C1825.007,6797.044,1824.712,6799.993,1825.045,6801.188Z" fill="#f2722a" fill-rule="evenodd"/>
          <path id="Trazado_1818" data-name="Trazado 1818" d="M1832.334,6833.617c1.673,2.526,7.367,2.244,8.5.689.028,1.908-7.761,2.817-8.465-.224C1832.371,6833.861,1832.329,6833.828,1832.334,6833.617Z" fill="#575756"/>
          <path id="Trazado_1819" data-name="Trazado 1819" d="M1832.368,6834.082c1.935,2.746,7.232,2.271,8.437.474-.22,2.579-8,2.784-8.515.015C1832.317,6834.373,1832.333,6834.4,1832.368,6834.082Z" fill="#c6c6c6"/>
          <g id="Grupo_537" data-name="Grupo 537">
            <path id="Trazado_1820" data-name="Trazado 1820" d="M1842.319,6832.132c-.028.12-1.571,2.823-1.042,5.205.278,1.249,4.9,4.6,9.48,5.422,1.416.254,3.148-.452,3.42-1.2.378-1.045.436-2.921-.564-3.852-1.412-1.315-4-1.707-4.473-3.789a5.659,5.659,0,0,1-.057-1.586Z" fill="#3c3c3b" fill-rule="evenodd"/>
            <path id="Trazado_1821" data-name="Trazado 1821" d="M1853,6837.932c-1.125-1.231-3.642-1.859-4.053-3.051a3.85,3.85,0,0,1-3.759.693c.446,2.337,4.188,3.795,5.931,3.813S1853.852,6838.867,1853,6837.932Z" fill="#706f6f" fill-rule="evenodd"/>
            <path id="Trazado_1822" data-name="Trazado 1822" d="M1849.07,6833.46c1.076-1.112,1.7-2.841,1.234-3.628-1.683,1.842-6.728,1.218-8.244-.747a4.97,4.97,0,0,0,.008,3.553C1842.967,6834.715,1847.184,6835.409,1849.07,6833.46Z" fill="#c44f0c"/>
            <path id="Trazado_1823" data-name="Trazado 1823" d="M1842.1,6828.156c1.674,2.526,7.368,2.245,8.5.688.028,1.908-7.759,2.819-8.465-.222C1842.137,6828.4,1842.095,6828.367,1842.1,6828.156Z" fill="#575756"/>
            <path id="Trazado_1824" data-name="Trazado 1824" d="M1842.133,6828.622c1.935,2.745,7.232,2.268,8.438.472-.221,2.581-8,2.785-8.515.016C1842.083,6828.913,1842.1,6828.934,1842.133,6828.622Z" fill="#c6c6c6"/>
          </g>
          <path id="Trazado_1825" data-name="Trazado 1825" d="M1850.727,6808.021c-.832,5.2-6.035,9.981-8.075,9.981,1.83,1.429,7.4-3.794,8.173-8.257A7.026,7.026,0,0,1,1850.727,6808.021Z" fill="#575756"/>
          <path id="Trazado_1826" data-name="Trazado 1826" d="M1850.825,6809.745c-2.005,5.108-6.74,9.329-8.181,8.323,2.026,1.571,7.822-3.539,8.4-7.5A7.787,7.787,0,0,1,1850.825,6809.745Z" fill="#c6c6c6"/>
          <path id="Trazado_1827" data-name="Trazado 1827" d="M1851.828,6815.391c-.6,3.517-7.062,6.618-9.235,5.516,1.072,2.167,9.318-.689,9.177-4.7C1851.786,6815.937,1851.833,6815.643,1851.828,6815.391Z" fill="#575756"/>
          <path id="Trazado_1828" data-name="Trazado 1828" d="M1851.77,6816.207c-.693,3.883-7.46,6.247-9.183,4.805.795,2.26,9.163-.257,9.128-4.016C1851.711,6816.744,1851.767,6816.435,1851.77,6816.207Z" fill="#c6c6c6"/>
          <path id="Trazado_1829" data-name="Trazado 1829" d="M1851.531,6819.582c-.119,3.551-5.515,8.108-8.874,6.722,1.31,2.432,9.307-1.219,9.007-6.093C1851.6,6819.9,1851.581,6819.814,1851.531,6819.582Z" fill="#575756"/>
          <path id="Trazado_1830" data-name="Trazado 1830" d="M1851.665,6820.214c-.921,5.205-6.853,8.116-9.008,6.09,2.349,3.175,9.427-1.311,9.108-5.794C1851.693,6820.305,1851.77,6820.542,1851.665,6820.214Z" fill="#c6c6c6"/>
          <path id="Trazado_1831" data-name="Trazado 1831" d="M1849.688,6800.784c-.437.433-1.621.769-2.347,1.484a2.641,2.641,0,0,0-.571,1.47c-.106,2.16-.024,5.974-.046,6.445a1.348,1.348,0,0,0,1.449,1.26c3.453-2.146,1.747-1.4,2.8-2.481a2.643,2.643,0,0,0,.541-1.287l.251-5.858C1851.792,6801.155,1850.217,6800.258,1849.688,6800.784Z" fill="#575756" fill-rule="evenodd"/>
          <path id="Trazado_1832" data-name="Trazado 1832" d="M1850.909,6801.765l-1.9,1.35a1.887,1.887,0,0,0-.87,1.817l-.266,5.906c-.016.333.129.712.34.589a8.312,8.312,0,0,0,3.131-2.7,2.938,2.938,0,0,0,.35-1.251l.026-5.379C1851.772,6801.565,1851.381,6801.43,1850.909,6801.765Z" fill="#3c3c3b" fill-rule="evenodd"/>
          <path id="Trazado_1833" data-name="Trazado 1833" d="M1831.735,6790.537a5.174,5.174,0,0,1,3.553,8.081l-.46.861c4.415-1.621,2.031-9.549-2.26-9.506Z" fill="#dadada"/>
          <path id="Trazado_1834" data-name="Trazado 1834" d="M1832.37,6790.112c4.991.449,5.884,7.436,2.458,9.367,4.97-1.241,2.975-9.378-1.715-10.014Z" fill="#706f6f"/>
          <path id="Trazado_1835" data-name="Trazado 1835" d="M1827,6795.953c2.65-1.756,7.252,1.041,6.663,5.839l-.188.628c3.286-3.365-2.044-9.338-5.9-7.45Z" fill="#dadada"/>
          <path id="Trazado_1836" data-name="Trazado 1836" d="M1827.477,6795.143c4.443-1.752,8.445,4.32,6,7.277,3.808-3.975-2.011-9.58-5.744-7.947Z" fill="#706f6f"/>
          <g id="Grupo_538" data-name="Grupo 538">
            <path id="Trazado_1837" data-name="Trazado 1837" d="M1825.117,6803.219c1.918-2.74,6.993-1.3,8.323.554.051-3.646-7.655-4.5-8.431-1.506A4.331,4.331,0,0,0,1825.117,6803.219Z" fill="#dadada"/>
            <path id="Trazado_1838" data-name="Trazado 1838" d="M1825.009,6802.267c2.044-2.829,8.6-.788,8.431,1.506.651-3.705-7.036-4.611-8.421-2.3A4.06,4.06,0,0,0,1825.009,6802.267Z" fill="#706f6f"/>
          </g>
          <path id="Trazado_1839" data-name="Trazado 1839" d="M1846.191,6807.211a11.141,11.141,0,0,1-5.218,1.889c-.567.087-.392,1.947-.3,2.279.13.494.411.589.743.912,2.937-.853,5.163-1.486,5.912-2.249a1.383,1.383,0,0,0,.43-.769l.146-1.213C1847.95,6807.65,1846.612,6806.881,1846.191,6807.211Z" fill="#575756" fill-rule="evenodd"/>
          <path id="Trazado_1840" data-name="Trazado 1840" d="M1847.2,6807.946l-4.757,2a1.392,1.392,0,0,0-.809.9l-.191,1.2a.282.282,0,0,0,.117.3,23.976,23.976,0,0,0,5.766-2.314,1.124,1.124,0,0,0,.389-.631l.15-1.182C1847.906,6807.9,1847.6,6807.775,1847.2,6807.946Z" fill="#3c3c3b" fill-rule="evenodd"/>
          <path id="Trazado_1841" data-name="Trazado 1841" d="M1839.977,6804.522a17.288,17.288,0,0,0-3.89-.039c-.7.078-.947.271-1.062,1.2a45.52,45.52,0,0,0,.08,7.476c.236.781,1.492,1.008,2.191.91,4.227-2.324,2.159-.387,2.991-.922a2.228,2.228,0,0,0,.54-1.323l.01-5.963C1840.839,6805.179,1840.782,6804.66,1839.977,6804.522Z" fill="#575756" fill-rule="evenodd"/>
          <path id="Trazado_1842" data-name="Trazado 1842" d="M1839.494,6805.377l-2.736.035c-1.54.02-1.6,1.307-1.6,1.853l0,5.646a1.013,1.013,0,0,0,.884,1.041,10.742,10.742,0,0,0,4.285-.355c.37-.157.562-1.151.589-1.493l-.077-5.487C1840.836,6805.7,1840.247,6805.368,1839.494,6805.377Z" fill="#3c3c3b" fill-rule="evenodd"/>
          <path id="Trazado_1843" data-name="Trazado 1843" d="M1845.707,6796.88c-.252.154-.437.2-.553.135s-.175-.236-.177-.526c0-.024,0-.049,0-.073a1.129,1.129,0,0,1,.355-.9c-.2.047-.292-.087-.292-.4,0-.028,0-.059,0-.089a1.093,1.093,0,0,1,.157-.6,1.715,1.715,0,0,1,.523-.48l.016-.011,0,.349a.458.458,0,0,0-.141.149.519.519,0,0,0-.053.255v.176a.537.537,0,0,0,.042.274c.025.027.072.019.145-.022l0,.338a.437.437,0,0,0-.184.208.942.942,0,0,0-.05.342c0,.079,0,.159,0,.235,0,.156.022.255.062.29s.087.027.161-.012l0,.354Zm-1.467.833c-.176.09-.35.178-.528.266,0-.192,0-.383,0-.574s0-.381,0-.572q-.137-.36-.272-.722c-.091-.24-.183-.48-.273-.72l.5-.252c.05.15.1.3.149.457s.1.3.15.456l.007,0c.058-.209.116-.417.171-.628s.115-.42.17-.627c.164-.092.329-.185.493-.279-.095.344-.19.684-.285,1.025s-.191.682-.287,1.022v.575c0,.192,0,.385,0,.577Zm-1.294-.176a1.344,1.344,0,0,1-.171.689,1.122,1.122,0,0,1-.595.446c-.287.106-.492.112-.6.029a.585.585,0,0,1-.16-.509,1.053,1.053,0,0,1,.127-.454,3.07,3.07,0,0,1,.348-.5c.1-.122.2-.247.3-.372a2.21,2.21,0,0,0,.207-.294.482.482,0,0,0,.059-.237.222.222,0,0,0-.053-.179c-.037-.03-.1-.025-.181.012a.313.313,0,0,0-.173.164.909.909,0,0,0-.049.311c0,.068,0,.135,0,.2-.168.067-.336.135-.508.2,0-.057,0-.115.005-.174a1.256,1.256,0,0,1,.157-.627,1.188,1.188,0,0,1,.565-.437c.277-.121.469-.154.58-.094s.166.21.163.444a.973.973,0,0,1-.1.429,2.331,2.331,0,0,1-.288.447c-.086.112-.175.218-.264.327a2.275,2.275,0,0,0-.266.379.767.767,0,0,0-.088.338.425.425,0,0,0,.042.236c.03.04.093.042.188.006a.338.338,0,0,0,.194-.171.939.939,0,0,0,.057-.351c0-.094,0-.187,0-.284q.257-.108.513-.223l0,.253Zm-2.064,1.356a1.053,1.053,0,0,1-.64.357.8.8,0,0,1-.64-.044.539.539,0,0,1-.15-.49.855.855,0,0,1,.149-.411,2.69,2.69,0,0,1,.379-.44c.11-.106.215-.216.322-.328a1.7,1.7,0,0,0,.222-.26.434.434,0,0,0,.066-.225.215.215,0,0,0-.051-.178c-.038-.03-.1-.03-.189,0a.291.291,0,0,0-.184.142.743.743,0,0,0-.056.294c0,.063-.005.129-.008.192l-.536.142c0-.056.005-.111.009-.164a1.07,1.07,0,0,1,.18-.585,1.133,1.133,0,0,1,.6-.371.79.79,0,0,1,.6-.045c.114.068.169.218.163.446a.826.826,0,0,1-.116.405,2,2,0,0,1-.307.4c-.092.1-.189.194-.286.287a2.1,2.1,0,0,0-.288.334.638.638,0,0,0-.1.31.364.364,0,0,0,.037.224c.03.04.1.049.2.024a.306.306,0,0,0,.21-.138.761.761,0,0,0,.069-.327c0-.089.007-.176.012-.267.181-.053.361-.109.541-.165,0,.08-.006.161-.008.243A1.1,1.1,0,0,1,1840.882,6798.893Zm6.469-4.064c.066-.054.134-.108.2-.165l0,.368-.242.2-.069.587c-.148.115-.3.225-.447.337q.114-.828.227-1.652c.073-.548.151-1.1.228-1.643.109-.088.218-.177.325-.269l-.006.673-.011-.08-.008.006c-.032.271-.065.545-.1.817s-.065.549-.1.824Zm-.931-1.35c0,.484,0,.967,0,1.456s.009.975.013,1.466c-.24.162-.479.322-.723.474l-.007,0,0-.354a.512.512,0,0,0,.049-.028c.061-.038.119-.075.179-.111,0-.18,0-.357,0-.533s0-.354,0-.529l-.21.137h0l0-.338.022-.014.186-.119c0-.276,0-.553,0-.829l-.167.109-.032.021,0-.349C1845.965,6793.795,1846.193,6793.637,1846.42,6793.479Zm1.15-.89c.1-.08.2-.161.291-.244.073.421.145.844.222,1.266s.153.859.229,1.29c-.143.133-.29.265-.438.394-.024-.157-.049-.316-.073-.475-.085.073-.169.142-.253.212l0-.368c.068-.055.135-.11.2-.167-.033-.221-.066-.44-.1-.661l-.089-.574Z" fill="#fff"/>
          <g id="Grupo_542" data-name="Grupo 542">
            <g id="Grupo_539" data-name="Grupo 539">
              <path id="Trazado_1844" data-name="Trazado 1844" d="M1833.633,6819.858a.208.208,0,0,0,.065-.008.227.227,0,0,0,.155-.281l-.415-1.432a.23.23,0,0,0-.28-.153.226.226,0,0,0-.153.279l.415,1.43A.223.223,0,0,0,1833.633,6819.858Z" fill="#706f6f"/>
            </g>
            <g id="Grupo_540" data-name="Grupo 540">
              <path id="Trazado_1845" data-name="Trazado 1845" d="M1832.677,6820.148a.191.191,0,0,0,.065-.01.225.225,0,0,0,.153-.28l-.415-1.432a.225.225,0,0,0-.433.126l.416,1.432A.223.223,0,0,0,1832.677,6820.148Z" fill="#706f6f"/>
            </g>
            <path id="Trazado_1846" data-name="Trazado 1846" d="M1832.075,6818.542a.853.853,0,0,1,.752-.673c.407-.07.729.116.723.415a.855.855,0,0,1-.755.674C1832.39,6819.029,1832.066,6818.845,1832.075,6818.542Z" fill="#575756" fill-rule="evenodd"/>
            <path id="Trazado_1847" data-name="Trazado 1847" d="M1831.99,6818.377c.012-.295.356-.582.768-.64s.742.135.729.431-.354.583-.767.641S1831.979,6818.673,1831.99,6818.377Z" fill="#c6c6c6" fill-rule="evenodd"/>
            <g id="Grupo_541" data-name="Grupo 541">
              <path id="Trazado_1848" data-name="Trazado 1848" d="M1832.64,6818.549a.735.735,0,0,0,.18-.024.632.632,0,0,0,.431-.784l-1.015-3.5a.632.632,0,0,0-1.214.354l1.018,3.5A.629.629,0,0,0,1832.64,6818.549Z" fill="#706f6f"/>
            </g>
          </g>
          <path id="Trazado_1849" data-name="Trazado 1849" d="M1831.1,6808.125c-1.721-.016-3.642.812-3.933,2.375-.629,3.386.321,6.5,3.85,6.142,5.139-.527,5.132-5.553,2.22-8.274C1832.656,6807.824,1831.963,6808.134,1831.1,6808.125Z" fill="#f2722a" fill-rule="evenodd"/>
          <path id="Trazado_1850" data-name="Trazado 1850" d="M1826.727,6809.1c1.885,2.976,6.3.27,6.493-1.717.892,3.31-4.851,5.4-6.163,2.795A3.638,3.638,0,0,0,1826.727,6809.1Z" fill="#706f6f"/>
          <path id="Trazado_1851" data-name="Trazado 1851" d="M1827.135,6810.29c2.227,2.1,6.67-.4,6.085-2.9,1.486,3.713-4.526,5.853-6.114,3.487C1827.08,6810.691,1827.184,6810.579,1827.135,6810.29Z" fill="#dadada"/>
          <path id="Trazado_1852" data-name="Trazado 1852" d="M1847.031,6808.563a.4.4,0,0,0-.253.359c0,.159.11.254.248.214a.386.386,0,0,0,.252-.359C1847.28,6808.62,1847.171,6808.524,1847.031,6808.563Z" fill="#b2b2b2" fill-rule="evenodd"/>
          <path id="Trazado_1853" data-name="Trazado 1853" d="M1842.994,6810.074a.392.392,0,0,0-.253.36c0,.157.108.254.247.214a.39.39,0,0,0,.252-.359C1843.241,6810.132,1843.132,6810.035,1842.994,6810.074Z" fill="#b2b2b2" fill-rule="evenodd"/>
          <path id="Trazado_1854" data-name="Trazado 1854" d="M1850.279,6802.83a.387.387,0,0,0-.253.36c0,.156.11.253.247.214a.391.391,0,0,0,.252-.359C1850.528,6802.887,1850.416,6802.791,1850.279,6802.83Z" fill="#b2b2b2" fill-rule="evenodd"/>
          <path id="Trazado_1855" data-name="Trazado 1855" d="M1837.935,6806.295a.339.339,0,0,0-.138.424.272.272,0,0,0,.391.115.339.339,0,0,0,.139-.425A.271.271,0,0,0,1837.935,6806.295Z" fill="#b2b2b2" fill-rule="evenodd"/>
        </g>
      </g>
      <g id="Grupo_545" data-name="Grupo 545">
        <path id="Trazado_1856" data-name="Trazado 1856" d="M1852.817,6774.164a.566.566,0,1,1,.57-.56A.569.569,0,0,1,1852.817,6774.164Z" fill-rule="evenodd" fill="url(#linear-gradient-2)"/>
        <path id="Trazado_1857" data-name="Trazado 1857" d="M1852.16,6775.96a.745.745,0,1,1,.754-.738A.746.746,0,0,1,1852.16,6775.96Z" fill-rule="evenodd" fill="url(#linear-gradient-3)"/>
        <path id="Trazado_1858" data-name="Trazado 1858" d="M1850.179,6773.961a.565.565,0,1,1,.572-.562A.568.568,0,0,1,1850.179,6773.961Z" fill-rule="evenodd" fill="url(#linear-gradient-4)"/>
        <path id="Trazado_1859" data-name="Trazado 1859" d="M1848.974,6773.027a.744.744,0,1,1,.752-.736A.743.743,0,0,1,1848.974,6773.027Z" fill-rule="evenodd" fill="url(#linear-gradient-5)"/>
        <path id="Trazado_1860" data-name="Trazado 1860" d="M1850.481,6769.535a.566.566,0,1,1,.572-.558A.567.567,0,0,1,1850.481,6769.535Z" fill-rule="evenodd" fill="url(#linear-gradient-6)"/>
        <path id="Trazado_1861" data-name="Trazado 1861" d="M1850.789,6776.894a.283.283,0,1,1,.286-.283A.284.284,0,0,1,1850.789,6776.894Z" fill-rule="evenodd" fill="url(#linear-gradient-7)"/>
        <path id="Trazado_1862" data-name="Trazado 1862" d="M1850.632,6772.233a.283.283,0,1,1,.286-.282A.283.283,0,0,1,1850.632,6772.233Z" fill-rule="evenodd" fill="url(#linear-gradient-8)"/>
        <path id="Trazado_1863" data-name="Trazado 1863" d="M1847.443,6773.1a.284.284,0,1,1,.286-.283A.284.284,0,0,1,1847.443,6773.1Z" fill-rule="evenodd" fill="url(#linear-gradient-9)"/>
        <path id="Trazado_1864" data-name="Trazado 1864" d="M1848.932,6768.6a.283.283,0,1,1,.007-.566.283.283,0,0,1-.007.566Z" fill-rule="evenodd" fill="url(#linear-gradient-10)"/>
        <path id="Trazado_1865" data-name="Trazado 1865" d="M1852.145,6777.223a.283.283,0,0,1,.005-.566.283.283,0,1,1-.005.566Z" fill-rule="evenodd" fill="url(#linear-gradient-11)"/>
        <path id="Trazado_1866" data-name="Trazado 1866" d="M1849.873,6779.322a.745.745,0,1,1,.752-.737A.747.747,0,0,1,1849.873,6779.322Z" fill-rule="evenodd" fill="url(#linear-gradient-12)"/>
        <path id="Trazado_1867" data-name="Trazado 1867" d="M1853.178,6778.314a.745.745,0,1,1,.753-.74A.748.748,0,0,1,1853.178,6778.314Z" fill-rule="evenodd" fill="url(#linear-gradient-13)"/>
        <path id="Trazado_1868" data-name="Trazado 1868" d="M1851.322,6779.961a.565.565,0,1,1,.57-.559A.566.566,0,0,1,1851.322,6779.961Z" fill-rule="evenodd" fill="url(#linear-gradient-14)"/>
        <path id="Trazado_1869" data-name="Trazado 1869" d="M1847.176,6770.553a.746.746,0,1,1,.753-.738A.748.748,0,0,1,1847.176,6770.553Z" fill-rule="evenodd" fill="url(#linear-gradient-15)"/>
        <path id="Trazado_1870" data-name="Trazado 1870" d="M1853.081,6781.6a.744.744,0,1,1,.752-.737A.748.748,0,0,1,1853.081,6781.6Z" fill-rule="evenodd" fill="url(#linear-gradient-16)"/>
        <path id="Trazado_1871" data-name="Trazado 1871" d="M1848.961,6780.753a.283.283,0,1,1,0-.566.283.283,0,0,1,0,.566Z" fill-rule="evenodd" fill="url(#linear-gradient-17)"/>
        <path id="Trazado_1872" data-name="Trazado 1872" d="M1851.918,6782.338a.282.282,0,0,1,.005-.563.282.282,0,1,1-.005.563Z" fill-rule="evenodd" fill="url(#linear-gradient-18)"/>
        <path id="Trazado_1873" data-name="Trazado 1873" d="M1854.536,6782.365a.566.566,0,1,1,.57-.56A.568.568,0,0,1,1854.536,6782.365Z" fill-rule="evenodd" fill="url(#linear-gradient-19)"/>
        <path id="Trazado_1874" data-name="Trazado 1874" d="M1849.55,6782.437a.283.283,0,1,1,.286-.282A.285.285,0,0,1,1849.55,6782.437Z" fill-rule="evenodd" fill="url(#linear-gradient-20)"/>
        <path id="Trazado_1875" data-name="Trazado 1875" d="M1850.983,6783.553a.746.746,0,1,1,.751-.738A.748.748,0,0,1,1850.983,6783.553Z" fill-rule="evenodd" fill="url(#linear-gradient-21)"/>
        <path id="Trazado_1876" data-name="Trazado 1876" d="M1849.587,6784.285a.566.566,0,1,1,.57-.56A.568.568,0,0,1,1849.587,6784.285Z" fill-rule="evenodd" fill="url(#linear-gradient-22)"/>
        <path id="Trazado_1877" data-name="Trazado 1877" d="M1855.629,6776.935a.565.565,0,1,1,.571-.559A.568.568,0,0,1,1855.629,6776.935Z" fill-rule="evenodd" fill="url(#linear-gradient-23)"/>
        <path id="Trazado_1878" data-name="Trazado 1878" d="M1855.277,6779.135a.283.283,0,0,1-.279-.286.28.28,0,0,1,.283-.279.282.282,0,1,1,0,.565Z" fill-rule="evenodd" fill="url(#linear-gradient-24)"/>
        <path id="Trazado_1879" data-name="Trazado 1879" d="M1853.135,6779.4a.282.282,0,0,1,.006-.565.282.282,0,0,1-.006.565Z" fill-rule="evenodd" fill="url(#linear-gradient-25)"/>
      </g>
    </g>
  </g>
</svg>
