<svg xmlns="http://www.w3.org/2000/svg" width="100.416" height="61.174" viewBox="0 0 100.416 61.174">
  <g id="Grupo_2125" data-name="Grupo 2125" transform="translate(-1435.081 -19331.346)">
    <g id="Grupo_2124" data-name="Grupo 2124" transform="translate(-496.256 8510.602)">
      <path id="Trazado_16175" data-name="Trazado 16175" d="M1984.591,10874.794c-15.771-1.972-31.937-1.182-48.1-1.182" fill="#fff"/>
      <path id="Trazado_16175_-_Contorno" data-name="Trazado 16175 - Contorno" d="M1984.594,10876.794a1.978,1.978,0,0,1-.251-.016c-12.124-1.516-24.788-1.377-37.036-1.244-3.543.038-7.206.078-10.816.078a2,2,0,0,1,0-4c3.589,0,7.241-.04,10.773-.078,12.38-.133,25.182-.274,37.575,1.275a2,2,0,0,1-.245,3.984Z" fill="#fff"/>
      <path id="Trazado_16176" data-name="Trazado 16176" d="M1940.826,10881.918a1.987,1.987,0,0,1-.892-.211,21.234,21.234,0,0,1-3.622-2.523,17.817,17.817,0,0,0-3.763-2.551,2,2,0,0,1-.494-3.375,16.846,16.846,0,0,0,2.941-4.09,20.588,20.588,0,0,1,2.839-4.068,2,2,0,0,1,2.83,2.828,18.2,18.2,0,0,0-2.224,3.274c-.62,1.049-1.251,2.117-1.96,3.084.831.57,1.609,1.2,2.336,1.779a18.3,18.3,0,0,0,2.9,2.063,2,2,0,0,1-.895,3.789Z" fill="#fff"/>
    </g>
    <path id="Trazado_17357" data-name="Trazado 17357" d="M8.9,6.6a1.183,1.183,0,0,0-.8-1.036A4.5,4.5,0,0,0,6.342,5.35c-1.755,0-2.093-.021-3.4.042-1.142.063-1.184.93-1.205,1.945-.021,2.2-.148,4.376-.148,6.575a38.932,38.932,0,0,0,.3,4.714A3.528,3.528,0,0,0,2.22,20.19c.571.761,2.368.761,3.256.761S8.6,20.909,8.6,19.619c0-.888-1.036-1.205-1.755-1.205-.465,0-.951.127-1.416.127-.338,0-.254-.275-.275-.507a35.388,35.388,0,0,1-.233-3.657.5.5,0,0,1,.338-.486c.93-.275,3.615-.888,3.615-2.093,0-.824-.93-1.205-1.628-1.205-.824,0-1.755.655-2.008.655-.19,0-.254-.169-.254-.338,0-.486.042-.994.063-1.48.021-.423,0-.846.042-1.268a.434.434,0,0,1,.486-.444c.55,0,1.078.042,1.628.042C7.885,7.76,8.9,7.421,8.9,6.6Zm9.069,9.048a.428.428,0,0,1,.3.169c.719.867,1.332,1.86,2.029,2.748a2.082,2.082,0,0,0,1.67.824c.676,0,1.691-.4,1.691-1.205v-.106c-.042-.613-.676-1.12-1.015-1.586-.275-.359-2.579-3.552-2.579-3.7C20.062,12.411,23,8.88,23,7.7c0-.824-1.015-1.226-1.734-1.226a2.078,2.078,0,0,0-1.057.275C19.576,7.125,18.6,9.6,18.2,9.6c-.127,0-.169-.085-.233-.169-.676-1.163-.359-2.3-2.2-2.3-.824,0-1.691.359-1.691,1.311,0,1.459,2.051,3.953,2.051,4.228a13.531,13.531,0,0,1-1.29,1.734L12.621,17.1a1.67,1.67,0,0,0-.55,1.036c0,.824.972,1.247,1.691,1.247a2.141,2.141,0,0,0,1.522-.613c.909-.909,1.607-1.987,2.41-2.96C17.779,15.708,17.843,15.645,17.969,15.645Zm12.3-1.818c0-.4.359-.3.634-.3,2.347,0,5.666-1.416,5.666-4.144,0-2.6-2.685-3.911-4.968-3.911a26.211,26.211,0,0,0-3.361.465c-.634.085-1.4.465-1.4,1.205,0,3.594-.021,7.167-.021,10.761a1.826,1.826,0,0,0,2.051,1.966c.846,0,1.4-.211,1.4-1.142Zm2.875-4.4c0,1.142-1.416,1.67-2.389,1.67a.461.461,0,0,1-.486-.465V8.415c0-.486.7-.529,1.078-.529A1.6,1.6,0,0,1,33.148,9.43Zm9.936-1.374c0-.254.042-.507.042-.761,0-1.036-.74-1.459-1.691-1.459-1.057,0-1.691.444-1.691,1.543,0,.233.021.465.021.7,0,.994-.021,2.008-.021,3a40.622,40.622,0,0,0,.423,6.617c.148.867.3,1.374,1.226,1.586a5.031,5.031,0,0,0,1.12.106c.507,0,1.015-.042,1.522-.042.74,0,1.48.021,2.241.021.824,0,2.241.063,2.579-.909a.83.83,0,0,0,.063-.3c0-.782-1.036-1.184-1.67-1.184H43.761a.454.454,0,0,1-.444-.381l-.042-.381A56.045,56.045,0,0,1,43.084,8.056ZM57.016,19.028c4.313,0,6.807-3.594,6.807-7.653,0-3.34-1.776-5.687-5.264-5.687a13.208,13.208,0,0,0-2.051.19c-3.4.571-5.264,4.1-5.264,7.336A5.438,5.438,0,0,0,57.016,19.028Zm.359-10.761c.3,0,.592.063.888.063.254,0,.486-.063.74-.063,1.12,0,1.459,2.368,1.459,3.213,0,1.9-1.1,5.158-3.382,5.158-1.924,0-2.452-1.966-2.452-3.552C54.627,11.649,55.579,8.267,57.375,8.267ZM76.952,19.176c0-.994-.465-1.036-1.015-1.332-1.332-.719-2.6-1.586-3.89-2.389a.291.291,0,0,1,0-.529c1.882-1.416,3.869-3.361,3.869-5.919,0-2.452-2.368-3.53-4.5-3.53-.951,0-3.7.359-4.334,1.036-.655.7-.3,1.86-.3,2.664.063,3.044.148,6.11.4,9.154.106,1.29.381,2.558,1.966,2.558.655,0,1.691-.359,1.691-1.163,0-.465-.19-.93-.19-1.416,0-.127.021-.3.169-.3.317,0,2.833,2.22,4.651,2.22C76.148,20.233,76.952,19.958,76.952,19.176Zm-4.5-10.211a5.321,5.321,0,0,1-1.734,3.34c-.063.042-.127.106-.19.106-.148,0-.19-.169-.19-.275-.085-1.268-.127-2.579-.127-3.848,0-.317.93-.338,1.184-.338C72.11,7.95,72.449,8.225,72.449,8.965ZM86.211,5.413a1.884,1.884,0,0,0-1.078.3c-2.008,1.5-3.594,5.5-4.545,8.393-.127.359-.465.571-.465.994,0,.19.063.4.063.592,0,.676-.381,1.374-.381,2.051,0,.888.994,1.205,1.734,1.205,1.586,0,1.649-1.163,1.9-2.368.063-.275.042-.275.338-.3.782-.063,1.564-.127,2.347-.233a7.334,7.334,0,0,1,.951-.127c.19,0,.338,1.163.359,1.4.148,1.268-.021,2.3,1.818,2.3.74,0,1.712-.359,1.712-1.226A23.4,23.4,0,0,0,89.89,12.77c-.507-2.029-1.459-3.848-1.9-5.9A1.791,1.791,0,0,0,86.211,5.413Zm-1.776,8.372c-.106,0-.148-.127-.148-.211a11.741,11.741,0,0,1,1.4-3.361c.085,0,.127.148.148.211.085.338.7,2.537.7,2.727a.452.452,0,0,1-.4.423A11.556,11.556,0,0,1,84.435,13.785ZM7.124,30.211c-.8,0-1.712.317-2.241.317-.381,0-.74-.148-1.12-.148a1.751,1.751,0,0,0-1.564.782,2.835,2.835,0,0,0-.127,1.268c0,2.325-.063,4.651-.063,6.976,0,.486-.423.719-.423,1.163,0,.465.423.846.423,1.332,0,1.522.042,3.044.106,4.566.021.571.021,1.057.55,1.4a2.042,2.042,0,0,0,1.057.3c1.036,0,1.839-.423,1.839-1.564,0-.423-.085-.846-.106-1.268-.042-1.015-.063-2.072-.063-3.087,0-.317.063-.3.317-.3a6.379,6.379,0,0,0,1.522-.359,6.931,6.931,0,0,0,4.334-6.68C11.564,32.114,9.978,30.211,7.124,30.211ZM5.687,39.47c-.19,0-.3-.211-.3-.381V35.919c0-.867.042-1.755.042-2.621,0-.486.994-.676,1.4-.676,1.142,0,1.4,2.495,1.4,2.495s-.782,3.636-2.389,4.313A.306.306,0,0,1,5.687,39.47Zm17.1,4.862c0-.846-1.057-1.184-1.755-1.184-.867,0-1.543.74-2.431.74a.39.39,0,0,1-.381-.423c0-.7,0-1.416.063-2.114a.673.673,0,0,1,.529-.571c.824-.211,2.706-.909,2.706-1.945,0-.782-1.015-1.226-1.67-1.226-.381,0-.74.211-1.057.211-.169,0-.19-.148-.19-.3,0-.444.085-.909.127-1.353.063-.634.085-1.268.127-1.9.021-.3,0-.571,0-.867,0-.359.254-.233.486-.233.888,0,3.509-.275,3.509-1.5,0-.8-.994-1.226-1.67-1.226a2.079,2.079,0,0,0-.888.169h-.127c-.592,0-1.184.148-1.8.148a3.732,3.732,0,0,0-2.579.8,1.443,1.443,0,0,0-.338,1.015c-.106,3.657-.7,7.315-.7,10.972,0,1.818-.233,3.108,2.072,3.108A16.3,16.3,0,0,0,22.05,45.5,1.5,1.5,0,0,0,22.79,44.333Zm4.165-12.367c-1.078.4-.909,2.981-.909,4.672,0,2.072-.021,4.144-.021,6.215,0,1.12.613,1.586,1.712,1.586,1.29,0,1.755-.676,1.755-1.882,0-.338-.063-.676-.063-1.015,0-.085,0-.254.127-.254.317,0,2.981,2.812,4.82,2.812A1.445,1.445,0,0,0,35.9,42.832c0-.74-.846-1.015-1.311-1.311-.381-.254-2.727-1.945-2.727-2.283,0-.127.148-.169.254-.211,1.543-.529,3.044-1.4,3.044-3.256,0-2.812-3.065-4-5.454-4A13.893,13.893,0,0,0,26.954,31.966Zm4.8,3.805c0,.994-1.226,1.142-1.966,1.142-.19,0-.571.063-.571-.19,0-.486.042-.994.042-1.48,0-.507-.042-1.036.634-1.036A1.8,1.8,0,0,1,31.753,35.771Zm18.287-.74a13.516,13.516,0,0,0-.338-3.319,1.471,1.471,0,0,0-1.607-1.078c-.846,0-1.67.359-1.67,1.311,0,.529.169,1.015.211,1.522a16.421,16.421,0,0,1,.063,1.755c0,1.987-.423,5.919-1.945,7.315a1.031,1.031,0,0,1-.719.359c-.909,0-1.353-1.945-1.459-2.643a18.225,18.225,0,0,1-.19-2.621,12.292,12.292,0,0,1,.655-4.122,1.237,1.237,0,0,0,.106-.465c0-.867-.951-1.205-1.67-1.205a1.764,1.764,0,0,0-1.734,1.29,13.411,13.411,0,0,0-.676,4.482c0,3.256.676,7.7,4.862,7.7a5.148,5.148,0,0,0,3.192-1.12C49.49,42.282,50.04,37.885,50.04,35.031ZM46.467,27.4c-.93-.655-1.839.19-2.621.634-.529.3-2.262,1.12-1.205,1.86.93.676,1.839-.19,2.621-.634C45.79,28.964,47.524,28.16,46.467,27.4Z" transform="translate(1444.529 19326)" fill="#fff"/>
  </g>
</svg>
