<svg xmlns="http://www.w3.org/2000/svg" viewBox="0 0 500 496.87"><defs><style>.cls-1{isolation:isolate;}.cls-2{fill:#d2ebf6;}.cls-3{fill:#05476d;}.cls-4{fill:none;stroke:#05476d;stroke-miterlimit:10;stroke-width:0.6px;opacity:0.35;}.cls-5{fill:#42acd9;mix-blend-mode:multiply;opacity:0.19;}</style></defs><g class="cls-1"><g id="Capa_2" data-name="Capa 2"><g id="Layer_1" data-name="Layer 1"><path class="cls-2" d="M498.28,246.46a200.36,200.36,0,0,1,1.35,38.33c-7,112.78-111.91,202-221.06,210a252.35,252.35,0,0,1-35.28,2.08C126.19,495.54,15,412.73,2.12,285.57a233.64,233.64,0,0,1-2.12-32,222.86,222.86,0,0,1,2.39-32.06,248.82,248.82,0,0,1,5.83-32.81,239.25,239.25,0,0,1,10.3-31.81A271.39,271.39,0,0,1,32,127.58C85.85,21.77,222.38-26,335.45,14.11A267.34,267.34,0,0,1,367,27.61c71.75,36.2,129,104,130.15,185.19A306.49,306.49,0,0,1,498.28,246.46Z"/><path class="cls-3" d="M163.23,77.24a15.45,15.45,0,0,1,4-.79l1.28,2.33-11.91,7.9-1.15-1.45,1.75-2.85-6.85-10.33q-2.92-4.42-5.86-2.47a10.82,10.82,0,0,0-3.06,4.1l8.35,12.51a18.42,18.42,0,0,1,3.69-.62l1.28,2.33-11.55,7.65-1.15-1.44,1.73-2.77L136.93,81q-2.93-4.42-5.86-2.48a11.56,11.56,0,0,0-3,4l8.37,12.64a14.69,14.69,0,0,1,3.56-.61l1.28,2.33L129,105l-1.15-1.44a29.42,29.42,0,0,1,2.33-3.63l-10-15.16-3.66,1.84-1.75-2a28.29,28.29,0,0,1,7-6.9l3.65.7,1.25,1.9q2.25-6.1,4.76-8.8A9.39,9.39,0,0,1,135,70.43a7,7,0,0,1,3.95.63,3.52,3.52,0,0,1,.95.74q2.34-6.36,4.9-9.16a9,9,0,0,1,4.81-1.17,5.55,5.55,0,0,1,4.23,1.87l1.84,2.48Z"/><path class="cls-3" d="M203.46,64.2l-5.14,5.41a4.81,4.81,0,0,1-2.94-.24,7.92,7.92,0,0,1-3-1.87L188,72.94l-1.56.64a8.12,8.12,0,0,1-6-.08,6.25,6.25,0,0,1-3.65-3.85q-1.26-3.69,2-7.2l9.7-3.59L187,54.3q-1.4-4.09-4.19-4.4a15.66,15.66,0,0,0-3.62,2l1,5.85-4.25,1.61a17.34,17.34,0,0,1-3.23-5.81l-.3-1.05a42.41,42.41,0,0,1,6-4.47,29.53,29.53,0,0,1,5.67-3,7.94,7.94,0,0,1,4.07-.24A9.13,9.13,0,0,1,192,46.43a9.69,9.69,0,0,1,1.94,3.69l4.18,12.3a1.17,1.17,0,0,0,1.7.79l2.41-1.16ZM186,68.65a17.81,17.81,0,0,0,4.84-3.07l-1.25-3.69-1.3.38c-3.39,1.15-4.76,2.65-4.13,4.49A2.89,2.89,0,0,0,186,68.65Z"/><path class="cls-3" d="M229.18,63.21a26.35,26.35,0,0,1-3.92.08l.74,6.29a34.82,34.82,0,0,1,5.11,1.25l.09,2.66-15.86,1.86L215,73.49l3.39-1.76-3.44-29.3h-4l-.68-2.54a29.15,29.15,0,0,1,9.35-3v.06l2.85,2,.24,2,5.27-4.77,1.92-.38a8.73,8.73,0,0,1,7.57,2.73,14.22,14.22,0,0,1,3.85,8.62A14.6,14.6,0,0,1,238.62,58,13.18,13.18,0,0,1,229.18,63.21Zm-2.54-21.12A8.64,8.64,0,0,0,223,43.72l1.77,15a12.61,12.61,0,0,0,4.6.22l1.34-.21a8.76,8.76,0,0,0,2.12-4,13.59,13.59,0,0,0,.35-5.13A10.8,10.8,0,0,0,231,44,4.62,4.62,0,0,0,226.64,42.09Z"/><path class="cls-3" d="M281,60.92l-6.89,2.86a4.74,4.74,0,0,1-2.59-1.4,8,8,0,0,1-2-2.92l-6.21,3.19-1.68,0a8.11,8.11,0,0,1-5.43-2.5,6.29,6.29,0,0,1-1.78-5c.24-2.59,1.82-4.51,4.76-5.77l10.32.65.43-4.8q.39-4.31-2-5.72a16.3,16.3,0,0,0-4.11.33l-1.49,5.74-4.54-.24a17.42,17.42,0,0,1-.6-6.63l.15-1.08A44,44,0,0,1,264.68,36a29.36,29.36,0,0,1,6.4-.43A7.84,7.84,0,0,1,274.89,37,9.2,9.2,0,0,1,277.74,40a9.91,9.91,0,0,1,.28,4.16l-1.16,12.93a1.17,1.17,0,0,0,1.23,1.42l2.67-.09Zm-17.77-3a17.76,17.76,0,0,0,5.67-.84l.35-3.89L267.93,53c-3.55-.32-5.42.49-5.59,2.43A2.88,2.88,0,0,0,263.26,57.91Z"/><path class="cls-3" d="M342.3,82.61l-7.5.34a4.82,4.82,0,0,1-2-2.41,8.07,8.07,0,0,1-.75-3.71l-7.39,1.39a11,11,0,0,1-6.3-7.13,14,14,0,0,1,1-10.27A13.7,13.7,0,0,1,338.13,54a13.87,13.87,0,0,1,2.95,1.85l3.61-7.76-3.5-2.1.75-2.52a28.56,28.56,0,0,1,9.54,2.35l1.38,3.33L339.69,77.46a1.24,1.24,0,0,0,.61,1.89l2.59.85ZM327.11,63.55a10.4,10.4,0,0,0-1.05,6,5,5,0,0,0,3,4,9,9,0,0,0,3.43.7l6.32-13.59a11.37,11.37,0,0,0-4.11-3.35L333.8,57Q329.51,58.4,327.11,63.55Z"/><path class="cls-3" d="M373.93,92.31l-11-8.33a9,9,0,0,0-1.7,6.49,8,8,0,0,0,3.34,5.23,16.47,16.47,0,0,0,6.74,2.54l-.79,3-9.45-1.52-1.45-.95A13.37,13.37,0,0,1,354,89.92a12.79,12.79,0,0,1,2.59-10,14.28,14.28,0,0,1,9.19-5.89,12.5,12.5,0,0,1,10.08,2.29,11,11,0,0,1,4.64,7.16,10.43,10.43,0,0,1-2.14,8.15Zm-2.08-13.77q-3.23-.37-6.45,2.63l7.82,5.17A6.87,6.87,0,0,0,374,82,5.18,5.18,0,0,0,371.85,78.54Z"/><path class="cls-4" d="M495.44,248.43C495.44,384,385.55,493.87,250,493.87S4.57,384,4.57,248.43,114.45,3,250,3,495.44,112.87,495.44,248.43Z"/><path class="cls-4" d="M483.45,248.43c0,128.93-104.52,233.46-233.45,233.46S16.56,377.36,16.56,248.43,121.07,15,250,15,483.45,119.49,483.45,248.43Z"/><path class="cls-4" d="M415.09,248.44A165.09,165.09,0,1,1,250,83.34,165.1,165.1,0,0,1,415.09,248.44Z"/><path class="cls-5" d="M412.67,246.14c1.77,55.38-30.8,105.91-75.51,135.17a167.57,167.57,0,0,1-23.26,12.74c-60.63,29.91-127.15,9-172.07-35.05a188.07,188.07,0,0,1-20.55-23.82c-45.4-54.33-45.4-139.13.26-197.82,19.56-19.57,45.65-39.14,78.26-45.66,26.09-6.52,52.18,0,78.27,0,19.57,0,32.61,6.52,43.2,16.82q9.53,5.22,18.22,10.87a187.85,187.85,0,0,1,31.09,25,143.79,143.79,0,0,1,16.36,19.75c15.05,12.34,21.57,31.9,21.54,49.22A171.3,171.3,0,0,1,412.67,246.14Z"/><path class="cls-3" d="M198.55,449.52a38.73,38.73,0,0,1-4.63,8.91l-.5-.27,0,.09-21.14-6.87.32-4.28,14.71-8.38q6-3.64,7-6.73a4.94,4.94,0,0,0-.21-3.74,5.23,5.23,0,0,0-3.34-2.59l-2.38-.51-4.46,7.24-4.49-1.46a32.93,32.93,0,0,1,1.6-7.58l.56-1.54a22,22,0,0,1,11.94.32,12.26,12.26,0,0,1,6.94,5.2,8.88,8.88,0,0,1,1,7.68,10.51,10.51,0,0,1-3.38,4.82,46.5,46.5,0,0,1-7.58,4.79l-9.59,5.09,0,.44,9.72,1.81,4.81-4.32Z"/><path class="cls-3" d="M213.82,446.25a20.09,20.09,0,0,1,5.29-12.11,12,12,0,0,1,10.44-3.87,11.37,11.37,0,0,1,8.88,5.74q3.06,5.07,2.2,12.63-.91,8-5.14,12.46A12.19,12.19,0,0,1,216.12,459Q213,453.76,213.82,446.25Zm12.45-11.71a11.21,11.21,0,0,0-3,4.93,31.16,31.16,0,0,0-1.65,7,22.24,22.24,0,0,0,.72,9.7q1.38,4,4.33,4.37a5.15,5.15,0,0,0,1.67-.07,11.5,11.5,0,0,0,3-4.93,32.92,32.92,0,0,0,1.62-7.1,24.39,24.39,0,0,0-.56-9.58c-.8-2.7-2.25-4.18-4.36-4.42Z"/><path class="cls-3" d="M280.8,453.73a39.28,39.28,0,0,1-.76,10l-.58-.06v.11l-22.14,2-1.39-4.05,10.24-13.49q4.14-5.73,3.85-8.94a4.87,4.87,0,0,0-1.67-3.36,5.18,5.18,0,0,0-4.09-1.08l-2.38.47-1.26,8.41-4.71.42a33.54,33.54,0,0,1-1.5-7.6l-.09-1.65a22,22,0,0,1,11.1-4.38,12.22,12.22,0,0,1,8.44,2.06,8.83,8.83,0,0,1,3.89,6.69,10.46,10.46,0,0,1-1.22,5.75,45.1,45.1,0,0,1-5.09,7.38l-6.83,8.45.19.39,9.66-2.14,2.72-5.86Z"/><path class="cls-3" d="M322.16,443a39,39,0,0,1,1.34,10l-.57.07,0,.1-21.25,6.53-2.2-3.67,7.21-15.33q2.85-6.45,1.9-9.55a4.92,4.92,0,0,0-2.33-2.94,5.24,5.24,0,0,0-4.23-.2l-2.23.95.52,8.49-4.52,1.39a33.42,33.42,0,0,1-3.05-7.12l-.43-1.58a22,22,0,0,1,9.95-6.61,12.19,12.19,0,0,1,8.67.26,8.82,8.82,0,0,1,5.2,5.73,10.4,10.4,0,0,1,0,5.88,46.07,46.07,0,0,1-3.44,8.29l-4.92,9.67.27.35,9-4.11,1.45-6.3Z"/><path class="cls-3" d="M23.11,249.91a28.07,28.07,0,0,1,5.09-16.14A18.19,18.19,0,0,1,43.57,226c2.86,0,9.15.63,9.15,4.63,0,2-2.86,3.37-4.64,3.37s-3.3-1-5-1a2.41,2.41,0,0,0-.7.07c-6.35,1.27-9.27,11.69-9.27,17.34,0,3.69,1.39,10.17,6.16,10.17,2.73,0,5.15-1.66,7.81-1.66,2,0,4.9,1.08,4.9,3.44v.25c-.39,2.54-2.93,3.18-5,3.81a28,28,0,0,1-7.56,1.21C28.64,267.57,23.11,260.14,23.11,249.91Z"/><path class="cls-3" d="M61.32,248.57c0-9.72,5.59-20.33,15.82-22A39.3,39.3,0,0,1,83.3,226c10.48,0,15.82,7,15.82,17.09,0,12.2-7.5,23-20.46,23C68.05,266.05,61.32,259.06,61.32,248.57Zm10.16-.38c0,4.77,1.59,10.67,7.37,10.67,6.86,0,10.17-9.78,10.17-15.5,0-2.54-1-9.65-4.39-9.65-.76,0-1.46.19-2.22.19s-1.78-.19-2.67-.19C74.34,233.71,71.48,243.87,71.48,248.19Z"/><path class="cls-3" d="M128.5,226c-2.29,3.81-9.15.51-9.15,9.34,0,10.73,9,20.84,9,31.13,0,7.69-6,10.93-13,10.93-2.48,0-7.56-.19-7.56-3.69,0-2.92,3.24-3.75,5.59-3.75s4.51.51,4.51-2.66c0-9.66-8.89-20.59-8.89-32,0-7,4-11.37,10.42-13.53a13.58,13.58,0,0,1,4.51-1C126.4,220.87,130.27,223.09,128.5,226Z"/><path class="cls-3" d="M147.83,253.21c-.26-6.22-.26-12.45-.57-18.68a1.41,1.41,0,0,0-1.53-1.4c-1.33,0-2.6-.06-3.94-.06-2.48,0-4.83-.06-4.83-3.24,0-3.36,1.91-4.07,4.9-4.07,7.11,0,14.23-.37,21.34-.37a4.12,4.12,0,0,1,4.26,4.32c0,2.34-2.67,3.11-4.64,3.11-1,0-2-.13-3-.13s-2.28-.06-2.28,1.27c0,10.36.89,20.65.89,31,0,2.73-3,3.74-5.28,3.74-2.79,0-5-1.27-5-4.32C148.14,260.65,148,257,147.83,253.21Z"/><path class="cls-3" d="M195.56,230.53c7.18,6.54,9.21,19.57,12.39,28.4a7.92,7.92,0,0,1,.51,2.41c0,2.86-2.42,4.32-5.08,4.32-5.41,0-5.22-3.93-6.17-7.94-.25-1-.51-2-.82-3-.13-.45-.19-.83-.77-.83-2.66,0-5.4.06-8.07.06-.38,0-.69-.06-1-.06-.51,0-.64.26-.76.7-.26,1.14-.51,2.22-.77,3.37-.82,3.75.38,8.38-5.59,8.38-2.22,0-4.95-.95-4.95-3.62,0-6,2.09-12.13,3.81-17.85.95-3.24,2-6.55,2.92-9.79.64-2.16.76-5.59,2.8-6.92a6.64,6.64,0,0,1,3.62-1A12.51,12.51,0,0,1,195.56,230.53ZM190,239.87c-.19.57-1.72,5.78-1.72,6a1,1,0,0,0,1.08,1h3.24a1,1,0,0,0,1-1c0-.77-2-5.28-2.54-6.17-.13-.19-.26-.5-.51-.5S190,239.61,190,239.87Z"/><path class="cls-3" d="M253.09,230.53c7.18,6.54,9.21,19.57,12.39,28.4a7.92,7.92,0,0,1,.51,2.41c0,2.86-2.42,4.32-5.09,4.32-5.4,0-5.21-3.93-6.16-7.94-.25-1-.51-2-.83-3-.12-.45-.19-.83-.76-.83-2.67,0-5.4.06-8.07.06-.38,0-.7-.06-1-.06-.51,0-.64.26-.77.7-.25,1.14-.5,2.22-.76,3.37-.82,3.75.38,8.38-5.59,8.38-2.22,0-4.95-.95-4.95-3.62,0-6,2.09-12.13,3.81-17.85.95-3.24,2-6.55,2.92-9.79.64-2.16.76-5.59,2.8-6.92a6.64,6.64,0,0,1,3.62-1A12.51,12.51,0,0,1,253.09,230.53Zm-5.59,9.34c-.19.57-1.72,5.78-1.72,6a1,1,0,0,0,1.08,1h3.24a1,1,0,0,0,1-1c0-.77-2-5.28-2.54-6.17-.13-.19-.26-.5-.51-.5S247.56,239.61,247.5,239.87Z"/><path class="cls-3" d="M290.48,249.91a28.14,28.14,0,0,1,5.08-16.14A18.21,18.21,0,0,1,310.94,226c2.86,0,9.15.63,9.15,4.63,0,2-2.86,3.37-4.64,3.37s-3.31-1-5-1a2.35,2.35,0,0,0-.7.07c-6.35,1.27-9.28,11.69-9.28,17.34,0,3.69,1.4,10.17,6.17,10.17,2.73,0,5.14-1.66,7.81-1.66,2,0,4.89,1.08,4.89,3.44v.25c-.38,2.54-2.92,3.18-5,3.81a28,28,0,0,1-7.56,1.21C296,267.57,290.48,260.14,290.48,249.91Z"/><path class="cls-3" d="M328.68,248.57c0-9.72,5.59-20.33,15.82-22a39.54,39.54,0,0,1,6.17-.57c10.48,0,15.82,7,15.82,17.09,0,12.2-7.5,23-20.46,23C335.42,266.05,328.68,259.06,328.68,248.57Zm10.17-.38c0,4.77,1.59,10.67,7.37,10.67,6.86,0,10.16-9.78,10.16-15.5,0-2.54-1-9.65-4.38-9.65-.76,0-1.46.19-2.22.19s-1.78-.19-2.67-.19C341.71,233.71,338.85,243.87,338.85,248.19Z"/><path class="cls-3" d="M395.86,226c-2.29,3.81-9.15.51-9.15,9.34,0,10.73,9,20.84,9,31.13,0,7.69-6,10.93-13,10.93-2.48,0-7.56-.19-7.56-3.69,0-2.92,3.24-3.75,5.59-3.75s4.51.51,4.51-2.66c0-9.66-8.9-20.59-8.9-32,0-7,4-11.37,10.42-13.53a13.63,13.63,0,0,1,4.51-1C393.77,220.87,397.64,223.09,395.86,226Z"/><path class="cls-3" d="M415.19,253.21c-.25-6.22-.25-12.45-.57-18.68a1.4,1.4,0,0,0-1.53-1.4c-1.33,0-2.6-.06-3.93-.06-2.48,0-4.83-.06-4.83-3.24,0-3.36,1.9-4.07,4.89-4.07,7.11,0,14.23-.37,21.35-.37a4.11,4.11,0,0,1,4.25,4.32c0,2.34-2.66,3.11-4.63,3.11-1,0-2-.13-3-.13s-2.29-.06-2.29,1.27c0,10.36.89,20.65.89,31,0,2.73-3,3.74-5.27,3.74-2.8,0-5-1.27-5-4.32C415.51,260.65,415.32,257,415.19,253.21Z"/><path class="cls-3" d="M462.92,230.53c7.18,6.54,9.22,19.57,12.39,28.4a7.63,7.63,0,0,1,.51,2.41c0,2.86-2.41,4.32-5.08,4.32-5.4,0-5.21-3.93-6.16-7.94-.26-1-.51-2-.83-3-.13-.45-.19-.83-.76-.83-2.67,0-5.4.06-8.07.06-.38,0-.7-.06-1-.06-.5,0-.63.26-.76.7-.25,1.14-.51,2.22-.76,3.37-.83,3.75.38,8.38-5.59,8.38-2.23,0-5-.95-5-3.62,0-6,2.1-12.13,3.81-17.85,1-3.24,2-6.55,2.93-9.79.63-2.16.76-5.59,2.79-6.92a6.64,6.64,0,0,1,3.62-1A12.48,12.48,0,0,1,462.92,230.53Zm-5.59,9.34c-.19.57-1.71,5.78-1.71,6a1,1,0,0,0,1.08,1h3.24a1,1,0,0,0,1-1c0-.77-2-5.28-2.55-6.17-.12-.19-.25-.5-.5-.5S457.4,239.61,457.33,239.87Z"/></g></g></g></svg>