<svg xmlns="http://www.w3.org/2000/svg" xmlns:xlink="http://www.w3.org/1999/xlink" width="873.223" height="424.528" viewBox="0 0 873.223 424.528">
  <defs>
    <linearGradient id="linear-gradient" y1="0.5" x2="1" y2="0.5" gradientUnits="objectBoundingBox">
      <stop offset="0" stop-color="#ffd9a4"/>
      <stop offset="0.485" stop-color="#ffbdc0"/>
      <stop offset="1" stop-color="#ff9792"/>
    </linearGradient>
    <linearGradient id="linear-gradient-3" x1="0" y1="0.5" x2="1" y2="0.5" xlink:href="#linear-gradient"/>
    <linearGradient id="linear-gradient-10" x1="0" y1="0.5" x2="1" y2="0.5" xlink:href="#linear-gradient"/>
    <linearGradient id="linear-gradient-11" x1="0" y1="0.5" x2="1" y2="0.5" xlink:href="#linear-gradient"/>
    <linearGradient id="linear-gradient-16" x1="0" y1="0.5" x2="1" y2="0.5" xlink:href="#linear-gradient"/>
    <linearGradient id="linear-gradient-18" x1="0" y1="0.5" x2="1" y2="0.5" xlink:href="#linear-gradient"/>
    <linearGradient id="linear-gradient-22" x1="0" y1="0.5" x2="1" y2="0.5" xlink:href="#linear-gradient"/>
    <linearGradient id="linear-gradient-24" x1="0" y1="0.5" x2="1" y2="0.5" xlink:href="#linear-gradient"/>
    <linearGradient id="linear-gradient-25" x1="0" y1="0.5" x2="1" y2="0.5" xlink:href="#linear-gradient"/>
    <linearGradient id="linear-gradient-27" x1="0" y1="0.5" x2="1" y2="0.5" xlink:href="#linear-gradient"/>
    <linearGradient id="linear-gradient-28" x1="0" y1="0.5" x2="1" y2="0.5" xlink:href="#linear-gradient"/>
    <linearGradient id="linear-gradient-46" x1="0" y1="0.5" x2="1" y2="0.5" xlink:href="#linear-gradient"/>
    <linearGradient id="linear-gradient-50" x1="0" y1="0.5" x2="1" y2="0.5" xlink:href="#linear-gradient"/>
    <linearGradient id="linear-gradient-55" x1="0" y1="0.5" x2="1" y2="0.5" xlink:href="#linear-gradient"/>
    <linearGradient id="linear-gradient-56" x1="0" y1="0.5" x2="1" y2="0.5" xlink:href="#linear-gradient"/>
  </defs>
  <g id="Grupo_1468" data-name="Grupo 1468" transform="translate(-217.503 -162.313)">
    <g id="Grupo_570" data-name="Grupo 570" transform="translate(-9.001 -4432.527)">
      <g id="Grupo_568" data-name="Grupo 568" opacity="0.25" style="mix-blend-mode: luminosity;isolation: isolate">
        <path id="Trazado_1998" data-name="Trazado 1998" d="M740.831,4934.86a13.994,13.994,0,0,1,2.49-.136c-4.072,4.073-8.826,8.145-14.258,9.507,2.035-6.109,8.148-10.184,7.468-16.975,0-1.362,1.357-.681,2.037,0,.681,1.357-.68,3.393.536,4.838C739.535,4933.372,739.474,4934.533,740.831,4934.86Z" fill="url(#linear-gradient)"/>
        <path id="Trazado_1999" data-name="Trazado 1999" d="M727.337,4943.689c-7.1,5.973-19.323,16.839-27.475,12.764,7.471-6.113,16.978-7.47,24.243-13.914C724.985,4941.948,726.379,4943.522,727.337,4943.689Z" fill="url(#linear-gradient)"/>
        <path id="Trazado_2000" data-name="Trazado 2000" d="M700.66,4843.139a4.073,4.073,0,0,0,.984.181c-.016,4.171-4.721,4.577-7.592,1.359C693.715,4842.5,699.357,4844.174,700.66,4843.139Z" fill="url(#linear-gradient-3)"/>
        <path id="Trazado_2001" data-name="Trazado 2001" d="M693.872,4853.028c1.917,1.574,4.635,2.254,3.957,4.969-.68.676-2.716,1.358-3.4.676-6.112-6.108-11.542-8.824-19.69-6.108-2.717,1.359-6.112-2.716-9.508-.679,6.112-10.187-8.146-10.867-14.257-15.619-2.04-2.038-1.358-7.469,2.035-6.79,2.716.678,4.076,4.752,6.109,7.468,9.509-9.506,25.125.681,32.593,9.509,0,.678-.674,1.356-1.331,1.812C690.319,4850.484,693.275,4850.5,693.872,4853.028Z" fill="url(#linear-gradient)"/>
        <path id="Trazado_2002" data-name="Trazado 2002" d="M699.213,4900.949a42.457,42.457,0,0,1-3.067,10.05,48.138,48.138,0,0,1-5.461,9.3c-8.7,11.631-22.732,19.628-37.672,16.459-1.359-.68-2.716-1.361-3.393-2.714-.682-3.4-2.038-6.791-2.038-10.189-2.038.681-4.074,2.717-6.112,3.4-4.074-12.222-19.012-8.148-27.839-5.433a14.7,14.7,0,0,0-5.428,3.394c-2.722,1.358-6.795,0-9.51,1.358-3.4,1.358-10.866,4.074-11.543-.681,0-1.355,4.073-4.071,2.715-6.106-4.582-11.716,1.148-23.046,10.884-29.411a33.009,33.009,0,0,1,10.851-4.566c8.143-2.694,10.858-12.2,19.007-14.913a6.481,6.481,0,0,1,6.789,1.356c3.393-8.149,20.37-16.294,21.048-7.468,0,5.432,2.039,10.863,8.83,12.9,1.357,0,2.715,0,3.393-.677,5.434-4.754,2.716-12.9,6.79-18.335,5.434,13.581,10.187,27.842,19.731,39.227C697.894,4898.964,699.011,4900.119,699.213,4900.949Z" fill="url(#linear-gradient)"/>
        <path id="Trazado_2003" data-name="Trazado 2003" d="M675.751,4653.143c3.065,1.15,11.214,2.509,8.5,5.9-3.4,3.4-13.58-6.79-15.616-.678-.678,2.036,4.074,3.4,6.789,5.432-7.467.68-12.224,6.789-20.369,4.752-.68,0-1.358,1.358-2.038,2.037,8.148,6.111,10.183,12.223,10.866,21.731-12.225-2.717-22.409-16.3-17.655-29.2.678-.678-1.359-2.037-2.04-2.717a9.133,9.133,0,0,0-.676,3.4c-3.4,2.038-4.755-2.716-7.47-3.4-3.394-.676-6.11,4.076-2.715,6.789-8.828,2.717-20.37-6.109-26.482,2.717-2.718,3.4-2.036,8.147.678,9.507,10.865,4.755,27.839,6.79,28.519,21.727-4.752-2.713-5.431-9.5-10.863-12.221,4.074,8.149,8.826,19.69.676,26.483-1.356,1.356-4.752,0-5.429,1.356-5.433,4.754-4.755,10.864,2.036,13.568,4.073,3.41,4.073,7.484-1.359,8.844-1.356,0-2.036,0-2.715-1.36-.679-4.079-2.717-7.488-6.79-8.176-.678-.685-.682-2.759-1.365-3.455-4.779-4.208-10.177,2.776-10.889-4.888-2.7,1.432-4.048,4.231-7.438,5.62,3.4,4.782,8.827,2.728,13.579,4.778-5.09,3.064-3.733,5.953-.931,9.09s7.044,6.535,7.723,10.61c2.037,15.616-13.58,16.972-24.446,24.44-1.357.68,2.717,4.076,0,6.114h-2.716c-2.715-2.716,2.716-5.434,0-8.147-3.394-2.036-6.789,0-8.145,2.713-3.4,6.79,5.43,10.183,8.824,14.94.68,2.036,2.037,4.073,1.36,6.111,0,5.43-5.433,8.826-10.184,10.862-2.036-5.432-7.47-10.183-12.222-10.183-4.074.68-2.717,6.792-.681,10.865,2.377,3.056,5.433,6.11,7.638,9.42s3.514,6.912,2.4,11.038c-5.986-3.473-9.531-9.085-11.821-15.452s-3.309-13.5-4.328-19.945c-1.361-4.755-5.435-8.149-8.829-3.4-2.716-6.786-7.469-12.221-10.864-18.33-2.716,2.716-6.79.677-9.5,3.392-5.436,6.792-12.226,12.225-16.3,19.693-2.715,4.753,0,10.187-3.394,14.261a5.162,5.162,0,0,1-2.716,1.357c-12.222-7.468-10.186-23.763-15.617-35.311-.679.68-2.718,2.717-2.718,2.039-8.826-14.258-25.121-10.184-38.023-13.58-1.358-.678-3.4-1.357-3.4-3.394a12.76,12.76,0,0,1-11.963-1.942c-3.485-2.3-6.708-5.187-10.443-5.527-6.792-.677,1.357,8.829,4.752,11.543h2.716c-.677,3.393,2.037,5.431,4.753,3.393,8.148-5.43,17.655-1.356,16.975,6.792,0,12.9-19.012,16.3-29.875,23.086-2.038.68-4.756,2.036-7.469,1.358a16.053,16.053,0,0,1-8.827-7.469c-4.075-9.507-10.186-16.975-14.09-26.48-2.207-3.906-4.923-7.129-9-6.792,1.47,3.054,3.036,6.6,4.745,10.339s3.566,7.667,5.617,11.492c4.959,10.617,14.219,21.672,25.7,23.388a21.866,21.866,0,0,0,12.151-1.751,23.659,23.659,0,0,1-2.149,11.645,41.269,41.269,0,0,1-6.846,10.327c-2.721,3.183-5.736,6.262-8.495,9.433a45.426,45.426,0,0,0-6.96,10c-1.359,3.4-3.395,6.793-1.359,10.868a20.349,20.349,0,0,1,2.845,10.5c-.128,10.25-8.276,19.54-16.423,26.163-2.038.675.678,4.072-.68,6.111-2.037,5.43-7.469,8.147-10.864,14.26a35.773,35.773,0,0,1-15.243,14.155c-6.141,2.99-12.937,3.839-19.387,1.462-2.716-1.019-4.585-4.074-6.025-7.725-3.478-17.4-17.742-34.372-8.913-54.067,4.755-10.862-9.5-21.05-10.865-33.273,0-2.036,1.361-3.393,1.361-5.431,0-1.358-1.361-2.037-2.044-2.7-6.785-1.368-11.538-6.8-16.291-6.122-22.406,4.074-41.42,0-51.6-20.369-.678-1.359-1.357-4.075-.678-5.432,1.358-6.112.678-12.9,1.358-17.656,2.716-14.936,17.654-24.441,27.161-38.021.678-1.36,1.358-3.4.678-3.4-9.507-3.4-6.79-12.224-6.112-19.015,0-.677,1.359-2.037,2.716-2.037,5.435.682,16.975,3.4,16.3-5.43-.68-4.074-4.754-4.753-7.47-6.788,4.754-.681,8.147-3.4,11.955-5.349a71.4,71.4,0,0,0,10.452-8.912c1.359-.678,4.753,1.356,6.11-1.357.679-2.039-1.357-4.076-.678-6.115a5.583,5.583,0,0,1,4.075-2.716c1.358.68,1.358,2.716,1.358,4.076.678.679,3.392,0,3.392-1.36,0-8.825-8.147-2.716-10.184-5.431-10.862-9.5,13.582-16.974,21.729-24.444,2.039-2.715,6.109-4.075,9.473-4.156,11.576-1.275,25.155-.594,35.341,6.192-2.715,3.4-6.789,1.361-10.186,2.038-.678.681-2.036,2.037-2.036,2.717,1.358,2.037,4.073,2.037,6.79,2.717-.679-.68-.679-1.36-1.357-2.038h3.4c3.393-1.359,4.752-5.434,9.506-4.753,1.358,0-.68-2.717,0-4.074,3.394-4.074,3.394,2.717,4.752,2.037,8.826-4.074,19.012-4.755,27.839-5.43,0-.681-.68-.681-.68-1.361,6.113-2.716,12.223,0,17.657,2.036-1.36-.675-2.718-2.036-4.074-2.714-.681-.677-.681-2.038-.681-3.393a4.351,4.351,0,0,1,5.433-4.077c2.713.681,3.4,2.038,4.074,4.077,19.011-6.792,40.061-13.582,60.438-9.647a48.579,48.579,0,0,1,12.214,4.211c12.9,6.113,27.841,6.113,42.779,8.152,9.508.677,17.655-4.077,27.16-5.436,1.358,0,2.715,1.359,4.074,2.039,10.185.681,20.371,0,30.557,3.4,2.716.677,5.431,0,8.148,0,2.714.677,5.432,1.355,7.469,2.716,0-.681,0-2.716.679-2.716,14.259,3.391,27.16,6.789,40.188,12.518C674.222,4653.323,674.847,4653.055,675.751,4653.143Zm-128.6,34.345c.54-2.058-.163-3.457-1.559-4.888-.64,3.468-1.29,6.229-4,8.952a2.73,2.73,0,0,0,2.372-1C545.073,4689.473,546.781,4688.8,547.148,4687.488Zm-40.562-55.938c-1.6.334-3.634.334-4.606,2.31C503.407,4633.746,506.249,4633.237,506.586,4631.55Zm-27.8,74.324c-.618-1.135-2.1.331-1.373,1.344C478.407,4707.28,478.724,4706.7,478.789,4705.874Zm-34.11-57.1c.84.044,2.2.057,2.865-.652,2.657-4.211-3.468-7.684-6.172-9.71-.682,3.4,4.062,3.4,4.289,7.168C445.645,4646.987,444.208,4647.124,444.679,4648.779Zm-.469,63.107c2.454-.493-.167-4.675-2.006-4.2C439.8,4708.3,442.539,4712.222,444.21,4711.886ZM433.257,4732.4c1.115-4.1-7.034-7.494-1.6-9.53-3.4-5.432-13.58-12.222-6.111-18.332-5.433-2.037-13.581-1.358-12.9,5.431.678,8.15,8.827,12.9,9.5,21.046a7.009,7.009,0,0,0,6.471,3.037A6.641,6.641,0,0,0,433.257,4732.4Zm-36.208-11.589c1.3-.079,2.644-.791,2.627-2.2-2.125-5.657-8.175-4.819-12.271-8.275-3.4-2.039.586-4.31-.8-6.419-.718-2.138-4.7-.534-5.343.9-1.291,2.883,2.762,4.191-1.256,5.688-4.716,1.46-5.449-5.469-9.488-5.377-3.373.736-4.723,3.474-6.08,6.192-.679,3.394,1.357,5.431,2.037,8.148,0,.677-1.359,1.357-2.037,1.357.678.68,1.357,1.358,2.037,1.358a18.117,18.117,0,0,1,12.327-3.973,43.377,43.377,0,0,1,12.973,2.767A29.994,29.994,0,0,0,397.049,4720.814Zm-8.692,18.175c-.157-1.855-.157-5.249-2.2-5.249-6.789-.68-14.938.677-20.529-1.746-3.976-4.248-4.592-14.553-12.741-9.8,4.074,3.4,3.355,10.258.661,8.853-5.416-3.421-9.318-8.174-13.308-12.758s-8.062-9-13.833-11.711c-2.038,9.508,10.186,9.508,14.259,14.938-4.754-1.36-1.357,4.074-4.754,6.11-1.358-9.5-11.543-14.258-20.371-15.618-2.036-.677-3.393,1.36-5.43,2.037-.679,0-2.037-2.037-3.4-1.355-7.468,2.716-8.827,10.183-13.58,16.294-2.716,3.4-8.826.679-10.864,4.756,0,1.355,2.038,2.034,3.394,2.034,12.223-2.034,30.556-14.938,38.7,0a2.17,2.17,0,0,1-2.035,2.04,36.29,36.29,0,0,0,12.475,7.209,122.306,122.306,0,0,0,13.967,3.727,4.425,4.425,0,0,1,4.111-5.5c10.186-.678,29.2,12.9,33.954-.162C387.346,4741.4,388.33,4740.281,388.357,4738.989Zm4.791,131.552c1.1-2.23,2.565-3.673-.105-4.836C392.313,4866.97,391.454,4869.956,393.148,4870.541Zm-2.447-31.12c1.854-.762,1.7-2.855.9-4.263-2.246-2.121-4.914-.783-6.165,1.307-.577,2.124.34,6.437,4.031,5.277C390.474,4841.241,390.3,4840.4,390.7,4839.421Zm-8.968,16.056c-.77-2.455-.788-5.347-2.817-6.65C377.809,4851.358,379.5,4855.352,381.733,4855.477Zm-25.087-186.9c-5.194-1.584-15.976,4.729-15.3-4.776,0-3.4,4.052-4.807,6.732-6.933-6.058-1.9-12.843,3.537-14.2,8.292-.677,4.073,2.038,6.109-2.036,9.506-.679.676.68,2.035.68,2.715-4.756.677-8.149,4.753-12.9,4.072,6.11,5.433,14.937,2.72,21.728-1.356.678,0-.679-3.4.678-4.755,2.037-.676,3.4,1.359,5.427.666a2.088,2.088,0,0,0-.007-2.729c-1.349-.662-3.383.027-4.739.027.678-2.037,3.39-.689,4.348-2.68C350.518,4669.341,355.22,4671.612,356.646,4668.576Z" opacity="0.85" fill="url(#linear-gradient)"/>
        <path id="Trazado_2004" data-name="Trazado 2004" d="M664.679,4943.475c-1.934,3.637-6.473,7.678-9.959,5.638-2.1-1.364-.53-4.067,1.738-6.084.752-.677,2.17,0,3.179.462C661.475,4943.758,663.258,4942.453,664.679,4943.475Z" fill="url(#linear-gradient)"/>
        <path id="Trazado_2005" data-name="Trazado 2005" d="M651.807,4731.117c3.922,8.733-11.7,8.057-17.127,12.8-.679.68.678,3.4-.679,3.4-2.715,0-4.752-3.4-4.752-4.751,0-2.717,3.395-5.433,6.109-6.793,1.358-.679,4.076.681,5.431,0,5.435-4.073,6.113-8.827,4.076-14.969,4.073.016,6.789,4.1,6.1,8.283A13.137,13.137,0,0,0,651.807,4731.117Z" fill="url(#linear-gradient)"/>
        <path id="Trazado_2006" data-name="Trazado 2006" d="M652.4,4715.115c-2.1,3.686-8.888.291-8.212,5.041-4.75-1.355-2.032-7.466-2.714-10.862,2.038,2.037,4.754,1.357,7.033,3.566C650.554,4713.224,652.261,4713.034,652.4,4715.115Z" fill="url(#linear-gradient)"/>
        <path id="Trazado_2007" data-name="Trazado 2007" d="M645.368,4861.65c.132,1.3-2.186,1.373-2.409.544C643.043,4861.173,645.112,4860.653,645.368,4861.65Z" fill="url(#linear-gradient-10)"/>
        <path id="Trazado_2008" data-name="Trazado 2008" d="M636.612,4701.652c1.481.918,5.041,2.975,2.638,4.639C637.743,4705.631,636.115,4703.471,636.612,4701.652Z" fill="url(#linear-gradient-11)"/>
        <path id="Trazado_2009" data-name="Trazado 2009" d="M627.4,4856.664c2.031-2.039,4.289-3.7,7.079-2.5-3.03,2.457-6.176,6.39-10.25,5.648C624.346,4858.059,626.116,4857.472,627.4,4856.664Z" fill="url(#linear-gradient)"/>
        <path id="Trazado_2010" data-name="Trazado 2010" d="M624.934,4828.163c1.725-.205,3.115-.315,4.506-.42-2.226,4.3-7.7,1.964-11.9,2.96a4.816,4.816,0,0,1,3.04-2.721C621.693,4827.765,623.317,4828.319,624.934,4828.163Z" fill="url(#linear-gradient)"/>
        <path id="Trazado_2011" data-name="Trazado 2011" d="M626.267,4832.671c-6.261,4.143,1.154,9.187-1.911,13.024-3.047,3.134-2.455-5.5-6.019-4.5-1.406.107.352,4.972-3.282,6.687.375-5.046-2.686-11.223,2.385-15.079.7-.05,1.325,1.3,2.233,1.893C621.461,4834.9,623.726,4832.447,626.267,4832.671Z" fill="url(#linear-gradient)"/>
        <path id="Trazado_2012" data-name="Trazado 2012" d="M619.083,4856.306c-.662,1.239-3.792.976-3.977-.08C615.748,4854.941,618.916,4855,619.083,4856.306Z" fill="url(#linear-gradient-11)"/>
        <path id="Trazado_2013" data-name="Trazado 2013" d="M615.854,4860.341c-1.253,2.037-2.5-.057-3.289-.95C613.536,4858.037,615.924,4858.877,615.854,4860.341Z" fill="url(#linear-gradient-16)"/>
        <path id="Trazado_2014" data-name="Trazado 2014" d="M612.563,4826.435a2.914,2.914,0,0,1,1.6,2.416c-4.356,4.45-5.5,11.572-9.06,13.183-4.28,2.309-9.968,1.187-13.65-1.567s-5.448-6.976-1.9-10.8c2.465-2.433,5.806-6.092,9.349-9.33s7.3-6.054,10.717-6.858c4.786-.882,4.1,5.162,2.131,10.47A9.914,9.914,0,0,0,612.563,4826.435Z" fill="url(#linear-gradient)"/>
        <path id="Trazado_2015" data-name="Trazado 2015" d="M612.016,4856.809c-2.7,1.544-5.554,2.407-8.14.348a5.192,5.192,0,0,1,3.342-.749C609.057,4856.1,611.7,4854.581,612.016,4856.809Z" fill="url(#linear-gradient-18)"/>
        <path id="Trazado_2016" data-name="Trazado 2016" d="M601.8,4856.883a57,57,0,0,1-12.738-.37c-4.29-.725-8.363-2.253-11.419-5.308,6.79-1.356,12.9,0,18.9,3.269C598.19,4855.384,601.044,4855.09,601.8,4856.883Z" fill="url(#linear-gradient)"/>
        <path id="Trazado_2017" data-name="Trazado 2017" d="M584.594,4838.585c3.671.016,3.244,6.064-.407,6.041S580.925,4838.569,584.594,4838.585Z" fill="url(#linear-gradient)"/>
        <path id="Trazado_2018" data-name="Trazado 2018" d="M579.272,4837.819c3.805,3.88-2.306,7.276-1.628,11.35-10.185-3.394-12.9-14.94-19.176-22.734a39.257,39.257,0,0,0-6.626-7.824,29.71,29.71,0,0,1,14.633,7.358,64.319,64.319,0,0,1,10.586,12.892C578.053,4839.178,578.188,4837.662,579.272,4837.819Z" fill="url(#linear-gradient)"/>
        <path id="Trazado_2019" data-name="Trazado 2019" d="M512.813,4807.98c1.188.4,4.983,5.35,3.664,8.075a3.391,3.391,0,0,1-3.205,1.545c-2.8-.452-1.9-6.662-.906-9.188A.765.765,0,0,1,512.813,4807.98Z" fill="url(#linear-gradient-22)"/>
        <path id="Trazado_2020" data-name="Trazado 2020" d="M433.158,4872.516c-3.539,9.245-6.935,34.37-17.118,26.9-5.434-3.4-.68-15.616,4.072-22.407,1.359-.681,3.4-.681,4.753-2.037,2.039-2.036,4.754-4.073,5.718-7.652C432.472,4866.366,432.936,4870.013,433.158,4872.516Z" fill="url(#linear-gradient)"/>
        <path id="Trazado_2021" data-name="Trazado 2021" d="M393.426,4644.04c-.322-1.508,2.832-1.515,2.162-.028C395.056,4644.485,393.7,4644.555,393.426,4644.04Z" fill="url(#linear-gradient-24)"/>
        <path id="Trazado_2022" data-name="Trazado 2022" d="M379.923,4737.814c.007-1.276,2.722-1.619,3.306-.463C383.1,4738.587,380.541,4739.316,379.923,4737.814Z" fill="url(#linear-gradient-25)"/>
        <path id="Trazado_2023" data-name="Trazado 2023" d="M327.531,4728.114c1.459-1.272,5.073-.364,7.256-.383-.285,1.159-.186,2.668-1.025,3.327C331.208,4730.583,328.813,4729.945,327.531,4728.114Z" fill="url(#linear-gradient)"/>
        <path id="Trazado_2024" data-name="Trazado 2024" d="M315.919,4719.986c1.852-2.172,4.067-1.012,3.657,3.2-.39,1.256-2.412,2.924-3.5,1.048A16.04,16.04,0,0,0,315.919,4719.986Z" fill="url(#linear-gradient-27)"/>
        <path id="Trazado_2025" data-name="Trazado 2025" d="M318.465,4715.147a1.871,1.871,0,0,1-.833,2.267C315.678,4717.058,316.857,4713.475,318.465,4715.147Z" fill="url(#linear-gradient-28)"/>
        <path id="Trazado_2026" data-name="Trazado 2026" d="M300.414,4688.388c-2.522,4.611-9.329,7.327-12.708,4.611-2.713-2.039,2.717-5.433,2.717-8.827.68-1.36-2.716-1.36-4.074-2.72a5.173,5.173,0,0,1-1.356-3.4c.676-4.073,4.752-4.752,7.468-5.431-2.038,2.039.678,2.715,2.035,3.4-2.716,4.754,2.719,6.791,3.538,10.53C298.724,4687.255,300.314,4687.346,300.414,4688.388Z" fill="url(#linear-gradient)"/>
        <path id="Trazado_2027" data-name="Trazado 2027" d="M285.817,4683.193c-1.5,5.051-5.578,9.127-11.012,7.086,2.716-3.394,2.039-6.107,5.857-8.126C282.539,4680.937,285.7,4681.766,285.817,4683.193Z" fill="url(#linear-gradient)"/>
        <path id="Trazado_2028" data-name="Trazado 2028" d="M1062.5,4848.906c-5.455,9.091-4.1,20.632-10.211,29.458-3.054,4.245-6.109,8.235-9.148,12.1-3.316,2.069-6.055,5.486-8.553,9.4s-4.747,8.326-7,12.429c-3.134,6.818-9.246,14.966-17.392,13.6,7.469,6.112,2.717,12.9-4.756,15.624-.674.675-.674,3.391-1.354,4.071s-2.036,0-3.4,0c5.433,4.073-.677,9.505,0,14.256.678,1.36,2.718,1.36,4.077,2.039-3.4,7.467,0,18.333,8.824,19.692-12.9,7.469-25.8-4.755-30.555-16.3a30.725,30.725,0,0,1-2.037-10.86,3.333,3.333,0,0,0,2.037-.684c.679-2.713-.678-4.75-3.4-5.427,1.358.677.679,2.034.679,2.714-6.111-8.827-5.43-20.371-8.148-29.876-2.037-8.148,0-16.3-3.472-24.5a41.292,41.292,0,0,0-8.007-16.67,31.967,31.967,0,0,0-10.414-7.519,45.973,45.973,0,0,1-7.807-9.257c-8.551-13.43-9.456-30.78.5-46.627,1.36-1.356,2.04-6.79-2.035-6.79-4.755,0-11.546,2.037-13.583-2.036-8.147-17.651-29.2-16.977-42.949-28.007a73.566,73.566,0,0,1-9.784-7.427,61.9,61.9,0,0,1-15.167-20.921c-.679-1.358-2.037,5.431-.679,7.467,2.037,3.4,6.791,6.792,6.111,11.543-9.505-4.751-10.185-16.3-13.578-25.117,0-.68-3.4-.684-4.075-2.041-3.057-5.773-2.208-11.2.339-16.3,5.772-4.753,7.809-12.222,10.909-19.256a51.644,51.644,0,0,0,1.553-11.012,73.215,73.215,0,0,0-.58-11.828c-.679.678-2.037,2.034-2.037,1.356-2.036-4.755,2.718-11.542-2.716-14.258-8.147-2.717-14.257,0-22.406,2.716a2.17,2.17,0,0,1-2.037-2.039,18.177,18.177,0,0,1-11.63.169,33.644,33.644,0,0,1-10.1-5.6c4.752-5.429,13.568-.748,18.274-6.4-1.977-1.068-6.731.968-6.731-1.75.68-4.753,7.469-2.036,10.186-4.073,14.711-13.015,34.137-12.824,52.386-12.4,3.654.086,7.259.183,10.774.184a34.927,34.927,0,0,1,10.773-1.179,60.542,60.542,0,0,1,10.266,1.431c6.787,1.781,13.577,4.5,21.045,3.818.68,0,2.04-1.358,2.04-2.718-2.04-4.752-6.791-1.356-10.863-3.391,2.712-2.716,5.428-4.755,9.5-4.077,12.9,2.038,23.086,10.186,35.988,8.828-4.753,5.432-6.79,13.579-14.941,7.47,4.077,9.506,14.941-1.358,21.731,3.393a4.743,4.743,0,0,1-2.716,1.36c.68,0,2.038,1.356,2.716.678,4.753-5.431,2.037-6.789-2.716-10.863,2.716-1.361,5.431-3.4,8.829-3.4,4.074.681,0,3.4.679,5.435,2.715-2.717,6.789-8.149,10.864-5.435v2.037c-2.039,1.361-4.757,0-6.791,2.038-2.716,2.717,0,6.111,2.716,8.148,0,.68-1.359,2.038-2.039,2.716a7.446,7.446,0,0,0,8.149-5.43c0-1.36-2.035-.679-2.715-.679-1.359-8.83,9.5-12.221,16.976-10.866,4.752,1.361,11.541,0,13.578,4.754s7.47,5.431,7.47,9.5-4.074,3.4-7.47,2.716c-5.434-.678.677,2.718,0,5.434-1.36,2.713-4.072,2.713-6.111,2.713.677.681,1.358,1.359.677,2.039-5.429,2.717-8.144-5.432-12.9-4.073-1.357,0-2.719,1.358-4.752,0,4.752-3.4,14.258-2.716,13.577-9.507-.677-4.753-8.145-4.753-10.862-2.036-3.394,3.394-6.79,8.148-12.225,9.5-1.355.679-2.037-.678-2.714-1.357,0,3.4,6.113,3.4,4.754,4.753-2.04,3.393-6.789,4.072-10.863,1.357,2.036.678,2.036-2.036,2.712-2.715-4.411,3.052-12.559,3.731-19.091,5.366-6.708.743-13.5,6.175-8.745,12.963,4.073,4.756,10.184,4.078,14.939,7.472-2.038,1.36-3.4,7.471-1.361,6.112a103.919,103.919,0,0,0,18.332-11.543c1.7-3.4,3.058-7.472,5.181-10.609s5.009-5.348,9.761-5.01c2.715,0,3.394,2.716,5.431,3.4-.68,1.36-2.037,2.716-2.037,4.075.68,1.36,2.037,1.36,3.394,1.36a12.206,12.206,0,0,0,4.752-3.4c7.47-3.392,2.038,7.471,5.434,10.188.678,0,2.715,0,3.392.678,3.4,4.072-2.037,7.468-1.356,12.224a5.173,5.173,0,0,1,3.393,1.359,3.069,3.069,0,0,1,0,3.393c-3.393,4.754-8.825,0-13.577.677,2.714-2.716,6.11-6.112,8.826-8.824-5.433,1.357-10.864,2.036-15.615,4.754a2.5,2.5,0,0,0,2.037.678c-4.074,1.357-8.826-2.72-11.544,1.359,1.357,0,2.718-.683,4.075,0,2.715,2.716-2.04,3.394-2.037,4.756,0,5.444,6.789.675,9.506,1.356a18.918,18.918,0,0,1-16.271,6.272,1.992,1.992,0,0,0,2.012-2.2c-5.093,2.547-10.738,5.56-16.382,9.01-2.824,1.725-5.643,3.553-8.394,5.481-8.919,6.446-18.406,14.171-23.452,24.5A35.6,35.6,0,0,0,945,4762.258a22.793,22.793,0,0,0-9.079-8.244c-10.693-5.381-25.207-2.452-34.372,6.2-3.4,3.4-4.075,7.471-4.754,11.547a7.9,7.9,0,0,0,1.354,6.786c7.474,9.508,14.264-4.074,22.411-3.393,7.468,0-2.038,8.828,0,9.508,8.148,5.432,8.148,10.183,10.864,19.011,1.357,2.034,4.072,3.394,6.112,2.714,3.4,0,6.79,0,8.824,2.718,2.719-5.432,8.829-8.15,14.259-10.185,0,.678-.676,1.356-.676,2.035,9.505,0,19.011,4.077,28.518,2.036,1.358,6.114,5.944,8.15,11.055,9.63,12.71.558,17.461,13.458,28.326,18.89,2.714,1.359,6.112,2.037,8.149,2.715,8.147,2.038,15.617,5.432,23.672,8.462C1060.952,4843.294,1062.287,4847.187,1062.5,4848.906Zm-42.838-189.86c.637,0,1-.282.919-1.006A.694.694,0,0,0,1019.66,4659.046Zm-15.077-12.845c-.617.187-.617.187-.777.7C1004.372,4646.984,1004.462,4646.577,1004.583,4646.2Zm-35.448,70.737c-2.3-1.08-4.3-.3-6.224.866C964.394,4718.435,968.519,4718.771,969.135,4716.938Zm-7.464-2.166c2.664-4.429-4.986-3.8-7.862-2.54,1.239,1.986-1.679,4.584.3,5.911,2.662,1.305,3.641-3.26,5.513-3.635C960.361,4714.386,960.7,4714.9,961.671,4714.772Zm-1.386,91.971c1.156-.183.939-2.9-.476-2.244C958.737,4804.992,959.2,4806.914,960.285,4806.743Zm-1.057-86.357c-2.673.435-6.065-.927-8.087,2.431.68.006,2.036.011,2.862.018A15.182,15.182,0,0,0,959.228,4720.386Zm-5.792-10.846c3.268-1.761.582-3.861-.09-4.57-4.025-2.854-9.995-.722-13.947,2.832,2.68,1.473,5.973-1.375,8.871,1.85A30.721,30.721,0,0,0,953.436,4709.54Zm-2.272,2.215c-5.592-1.1-11.4,5.435-10.092,8.867,1.335,4.084,2.185-5.346,7.262-6.81C949.609,4713.145,950.864,4713.293,951.164,4711.755Zm-3.651-57.47c1.33-.186,1.341-.886,1.347-1.58-4.724.625-10.049-6.385-12.5-2.075C939.5,4653.6,944.285,4651.444,947.513,4654.285Zm-14.672,37.744c1.763.249,3.214-4.769.194-4.665C931.013,4687.434,930.382,4691.679,932.841,4692.029Zm-7.719,108.311c.083-.214.227-.362.316-.577C925.081,4798.3,923.619,4800.236,925.122,4800.34Zm-7.737-137.3c.989.5,2.506.066,2.513-.642-2.23-3.9-6.009.4-8.76.9C913.6,4664.05,915.84,4663.305,917.385,4663.04Zm-.733-10.889a15.633,15.633,0,0,0,2.536.143c-2.022-4.106-8.81-4.112-9.915.2C911.461,4653.246,914.13,4652.154,916.652,4652.151Zm-51.746,52.565c.693-.909-.293-2.585-1.319-1.769C863.484,4703.592,863.772,4705.082,864.906,4704.716Zm-3.9-25.184c-.152-.343-.816-.271-1-.048A.532.532,0,0,0,861.011,4679.532Z" opacity="0.85" fill="url(#linear-gradient)"/>
      </g>
      <g id="Grupo_569" data-name="Grupo 569">
        <path id="Trazado_2029" data-name="Trazado 2029" d="M729.843,4926.869a13.857,13.857,0,0,1,2.49-.137c-4.072,4.074-8.826,8.145-14.258,9.507,2.036-6.109,8.147-10.183,7.468-16.974,0-1.362,1.357-.682,2.038,0,.68,1.357-.681,3.393.536,4.837C728.547,4925.38,728.487,4926.541,729.843,4926.869Z" fill="url(#linear-gradient)"/>
        <path id="Trazado_2030" data-name="Trazado 2030" d="M716.348,4935.7c-7.1,5.973-19.322,16.839-27.473,12.763,7.47-6.113,16.976-7.469,24.242-13.914C714,4933.957,715.391,4935.53,716.348,4935.7Z" fill="url(#linear-gradient)"/>
        <path id="Trazado_2031" data-name="Trazado 2031" d="M689.672,4835.147a4.075,4.075,0,0,0,.984.182c-.016,4.171-4.722,4.576-7.592,1.359C682.726,4834.506,688.37,4836.183,689.672,4835.147Z" fill="url(#linear-gradient)"/>
        <path id="Trazado_2032" data-name="Trazado 2032" d="M682.884,4845.037c1.917,1.573,4.635,2.253,3.957,4.968-.68.677-2.716,1.358-3.4.677-6.112-6.109-11.543-8.824-19.69-6.109-2.717,1.359-6.111-2.715-9.508-.678,6.112-10.187-8.146-10.867-14.257-15.62-2.04-2.038-1.358-7.468,2.035-6.79,2.716.679,4.076,4.752,6.11,7.469,9.509-9.506,25.124.68,32.593,9.509,0,.678-.675,1.355-1.332,1.812C679.331,4842.493,682.287,4842.511,682.884,4845.037Z" fill="url(#linear-gradient)"/>
        <path id="Trazado_2033" data-name="Trazado 2033" d="M688.224,4892.957a42.448,42.448,0,0,1-3.066,10.05,48.126,48.126,0,0,1-5.461,9.3c-8.7,11.631-22.732,19.628-37.672,16.458-1.359-.68-2.717-1.36-3.393-2.713-.682-3.4-2.038-6.791-2.038-10.189-2.039.68-4.075,2.716-6.112,3.4-4.074-12.222-19.012-8.149-27.838-5.434a14.682,14.682,0,0,0-5.428,3.4c-2.722,1.357-6.8,0-9.511,1.357-3.4,1.359-10.866,4.075-11.543-.68,0-1.356,4.073-4.072,2.715-6.107-4.582-11.715,1.147-23.045,10.884-29.411a33.019,33.019,0,0,1,10.851-4.566c8.143-2.694,10.858-12.2,19.007-14.913a6.482,6.482,0,0,1,6.789,1.356c3.394-8.149,20.37-16.294,21.049-7.467,0,5.431,2.039,10.862,8.829,12.9,1.358,0,2.715,0,3.394-.676,5.433-4.755,2.715-12.9,6.789-18.335,5.433,13.58,10.188,27.842,19.731,39.227C686.906,4890.973,688.022,4892.128,688.224,4892.957Z" fill="url(#linear-gradient)"/>
        <path id="Trazado_2034" data-name="Trazado 2034" d="M664.763,4645.151c3.065,1.15,11.215,2.51,8.5,5.9-3.4,3.4-13.579-6.79-15.615-.678-.679,2.036,4.073,3.4,6.788,5.431-7.467.68-12.224,6.79-20.369,4.753-.679,0-1.357,1.358-2.038,2.037,8.149,6.111,10.183,12.222,10.866,21.731-12.225-2.718-22.409-16.3-17.655-29.2.678-.677-1.359-2.037-2.039-2.716a9.1,9.1,0,0,0-.678,3.4c-3.395,2.038-4.754-2.716-7.468-3.4-3.4-.676-6.112,4.075-2.716,6.789-8.828,2.717-20.37-6.11-26.482,2.717-2.718,3.4-2.037,8.147.679,9.506,10.864,4.755,27.839,6.79,28.519,21.727-4.752-2.712-5.432-9.5-10.865-12.22,4.075,8.149,8.827,19.69.677,26.483-1.356,1.356-4.751,0-5.43,1.356-5.432,4.753-4.754,10.864,2.037,13.567,4.074,3.411,4.074,7.484-1.358,8.844-1.357,0-2.037,0-2.716-1.36-.679-4.078-2.717-7.487-6.791-8.176-.677-.684-.681-2.758-1.364-3.455-4.779-4.208-10.178,2.776-10.888-4.888-2.7,1.433-4.049,4.232-7.439,5.621,3.394,4.782,8.827,2.727,13.58,4.778-5.092,3.064-3.733,5.952-.933,9.089s7.044,6.535,7.724,10.611c2.037,15.615-13.58,16.972-24.446,24.439-1.358.681,2.716,4.077,0,6.114h-2.716c-2.714-2.716,2.716-5.433,0-8.146-3.394-2.037-6.789,0-8.144,2.713-3.4,6.789,5.43,10.183,8.823,14.94.679,2.036,2.037,4.072,1.36,6.11,0,5.431-5.433,8.827-10.183,10.863-2.038-5.432-7.471-10.183-12.223-10.183-4.075.68-2.717,6.791-.681,10.865,2.377,3.055,5.433,6.11,7.639,9.42s3.513,6.911,2.4,11.038c-5.985-3.473-9.53-9.086-11.82-15.453s-3.309-13.5-4.328-19.944c-1.362-4.755-5.435-8.15-8.829-3.4-2.716-6.786-7.469-12.22-10.865-18.33-2.716,2.717-6.79.678-9.5,3.392-5.436,6.792-12.226,12.225-16.3,19.693-2.715,4.754,0,10.188-3.394,14.262a5.16,5.16,0,0,1-2.716,1.356c-12.222-7.468-10.186-23.763-15.616-35.311-.68.681-2.719,2.718-2.719,2.039C468.2,4755.623,451.9,4759.7,439,4756.3c-1.358-.677-3.4-1.357-3.4-3.393a12.757,12.757,0,0,1-11.962-1.943c-3.485-2.3-6.709-5.187-10.443-5.527-6.792-.677,1.357,8.83,4.753,11.544h2.715c-.678,3.393,2.038,5.431,4.753,3.393,8.148-5.431,17.655-1.357,16.975,6.792,0,12.9-19.011,16.3-29.876,23.086-2.037.68-4.755,2.036-7.468,1.357a16.056,16.056,0,0,1-8.828-7.468c-4.074-9.508-10.185-16.975-14.089-26.48-2.206-3.906-4.923-7.13-9-6.792,1.471,3.054,3.037,6.6,4.747,10.339s3.566,7.666,5.616,11.491c4.959,10.618,14.219,21.672,25.7,23.388a21.86,21.86,0,0,0,12.15-1.751,23.65,23.65,0,0,1-2.148,11.646,41.235,41.235,0,0,1-6.847,10.326c-2.72,3.183-5.735,6.262-8.494,9.434a45.425,45.425,0,0,0-6.96,10c-1.359,3.4-3.4,6.792-1.359,10.867a20.349,20.349,0,0,1,2.845,10.5c-.128,10.25-8.276,19.54-16.423,26.163-2.037.676.678,4.073-.68,6.112-2.037,5.429-7.469,8.147-10.864,14.26a35.788,35.788,0,0,1-15.243,14.155c-6.141,2.989-12.937,3.838-19.387,1.462-2.716-1.019-4.585-4.075-6.026-7.725-3.477-17.4-17.74-34.372-8.912-54.067,4.755-10.863-9.505-21.051-10.864-33.274,0-2.035,1.359-3.392,1.359-5.43,0-1.358-1.359-2.037-2.043-2.705-6.786-1.369-11.537-6.8-16.291-6.123-22.407,4.075-41.419,0-51.605-20.369-.679-1.359-1.357-4.074-.679-5.431,1.36-6.113.679-12.9,1.36-17.657,2.715-14.935,17.653-24.44,27.16-38.02.678-1.361,1.357-3.4.678-3.4-9.507-3.4-6.79-12.224-6.111-19.015,0-.676,1.358-2.037,2.715-2.037,5.435.683,16.976,3.4,16.3-5.429-.68-4.074-4.754-4.754-7.47-6.789,4.754-.681,8.148-3.4,11.955-5.349a71.482,71.482,0,0,0,10.453-8.911c1.358-.679,4.751,1.356,6.109-1.358.679-2.039-1.358-4.075-.678-6.114a5.582,5.582,0,0,1,4.075-2.716c1.358.679,1.358,2.716,1.358,4.075.678.68,3.393,0,3.393-1.359,0-8.826-8.148-2.716-10.184-5.432-10.863-9.5,13.581-16.973,21.729-24.444,2.038-2.714,6.108-4.075,9.472-4.155,11.576-1.275,25.155-.594,35.342,6.192-2.716,3.4-6.79,1.36-10.187,2.038-.678.68-2.036,2.036-2.036,2.717,1.358,2.037,4.073,2.037,6.79,2.716-.68-.679-.68-1.359-1.357-2.037h3.395c3.4-1.36,4.753-5.434,9.507-4.754,1.357,0-.68-2.717,0-4.073,3.394-4.074,3.394,2.716,4.752,2.036,8.826-4.074,19.012-4.755,27.839-5.429,0-.681-.68-.681-.68-1.361,6.112-2.716,12.224,0,17.656,2.035-1.358-.674-2.717-2.035-4.074-2.713-.681-.677-.681-2.038-.681-3.394a4.351,4.351,0,0,1,5.434-4.076c2.713.68,3.395,2.038,4.073,4.076,19.012-6.792,40.062-13.581,60.439-9.647a48.579,48.579,0,0,1,12.214,4.212c12.9,6.113,27.84,6.113,42.779,8.152,9.508.677,17.655-4.077,27.161-5.436,1.356,0,2.714,1.359,4.072,2.039,10.186.68,20.372,0,30.558,3.4,2.716.677,5.431,0,8.147,0,2.715.677,5.433,1.355,7.47,2.716,0-.681,0-2.716.679-2.716,14.259,3.39,27.161,6.789,40.187,12.518C663.233,4645.332,663.859,4645.064,664.763,4645.151ZM536.16,4679.5c.541-2.059-.163-3.457-1.559-4.889-.64,3.469-1.291,6.229-4,8.953a2.734,2.734,0,0,0,2.372-1C534.085,4681.481,535.793,4680.812,536.16,4679.5ZM495.6,4623.559c-1.6.334-3.634.334-4.606,2.309C492.419,4625.754,495.262,4625.246,495.6,4623.559Zm-27.8,74.324c-.619-1.135-2.1.33-1.373,1.343C467.419,4699.289,467.737,4698.707,467.8,4697.883Zm-34.112-57.095c.841.044,2.2.056,2.865-.653,2.658-4.211-3.467-7.684-6.171-9.71-.682,3.4,4.062,3.4,4.289,7.168C434.657,4639,433.22,4639.133,433.69,4640.788Zm-.468,63.107c2.455-.494-.167-4.675-2-4.205C428.81,4700.306,431.551,4704.231,433.222,4703.9Zm-10.953,20.516c1.116-4.1-7.033-7.493-1.6-9.529-3.4-5.433-13.58-12.222-6.111-18.333-5.433-2.036-13.581-1.358-12.9,5.432.678,8.149,8.827,12.9,9.5,21.045a7.01,7.01,0,0,0,6.47,3.038A6.645,6.645,0,0,0,422.269,4724.411Zm-36.209-11.589c1.3-.078,2.646-.791,2.628-2.195-2.125-5.658-8.175-4.82-12.271-8.275-3.4-2.039.586-4.31-.8-6.419-.719-2.138-4.7-.534-5.343.9-1.292,2.883,2.762,4.19-1.256,5.688-4.716,1.459-5.45-5.47-9.488-5.377-3.372.736-4.723,3.474-6.079,6.191-.681,3.394,1.356,5.432,2.036,8.148,0,.678-1.358,1.357-2.036,1.357.678.68,1.356,1.359,2.036,1.359a18.116,18.116,0,0,1,12.327-3.974A43.4,43.4,0,0,1,380.784,4713,29.981,29.981,0,0,0,386.06,4712.822ZM377.369,4731c-.157-1.856-.157-5.249-2.195-5.249-6.789-.681-14.939.676-20.53-1.746-3.976-4.249-4.592-14.554-12.741-9.8,4.074,3.4,3.355,10.258.661,8.853-5.416-3.421-9.318-8.174-13.308-12.759s-8.062-8.994-13.833-11.71c-2.038,9.508,10.186,9.508,14.259,14.937-4.754-1.359-1.357,4.075-4.754,6.111-1.357-9.5-11.543-14.258-20.371-15.619-2.037-.677-3.394,1.361-5.43,2.037-.679,0-2.037-2.037-3.4-1.354-7.468,2.716-8.827,10.183-13.58,16.293-2.716,3.4-8.827.679-10.864,4.757,0,1.354,2.037,2.033,3.394,2.033,12.223-2.033,30.556-14.938,38.7,0a2.168,2.168,0,0,1-2.036,2.04,36.283,36.283,0,0,0,12.477,7.209,121.833,121.833,0,0,0,13.966,3.727,4.425,4.425,0,0,1,4.111-5.5c10.186-.678,29.2,12.9,33.953-.163C376.357,4733.41,377.342,4732.29,377.369,4731Zm4.791,131.551c1.1-2.23,2.565-3.672-.105-4.836C381.324,4858.979,380.466,4861.965,382.16,4862.549Zm-2.447-31.12c1.853-.761,1.7-2.854.9-4.262-2.247-2.122-4.916-.784-6.166,1.307-.577,2.124.34,6.437,4.031,5.277C379.486,4833.25,379.306,4832.406,379.713,4831.429Zm-8.968,16.057c-.77-2.456-.788-5.347-2.817-6.65C366.821,4843.367,368.512,4847.36,370.745,4847.486Zm-25.087-186.9c-5.193-1.583-15.976,4.73-15.3-4.776,0-3.4,4.051-4.806,6.732-6.932-6.058-1.9-12.843,3.537-14.2,8.292-.677,4.072,2.038,6.109-2.036,9.5-.679.677.68,2.036.68,2.716-4.756.677-8.149,4.752-12.9,4.071,6.11,5.434,14.938,2.72,21.728-1.355.678,0-.679-3.4.678-4.755,2.037-.677,3.395,1.359,5.427.665a2.088,2.088,0,0,0-.007-2.729c-1.349-.661-3.383.028-4.739.028.678-2.037,3.39-.689,4.349-2.681C339.53,4661.35,344.232,4663.621,345.658,4660.584Z" opacity="0.85" fill="url(#linear-gradient)"/>
        <path id="Trazado_2035" data-name="Trazado 2035" d="M653.691,4935.483c-1.934,3.638-6.473,7.678-9.96,5.638-2.1-1.363-.528-4.066,1.74-6.083.751-.677,2.169,0,3.177.462C650.488,4935.767,652.27,4934.461,653.691,4935.483Z" fill="url(#linear-gradient)"/>
        <path id="Trazado_2036" data-name="Trazado 2036" d="M640.82,4723.126c3.921,8.732-11.7,8.056-17.128,12.805-.679.679.679,3.4-.679,3.4-2.714,0-4.752-3.4-4.752-4.75,0-2.718,3.4-5.434,6.11-6.794,1.357-.679,4.075.682,5.431,0,5.434-4.072,6.112-8.826,4.075-14.969,4.073.017,6.789,4.1,6.1,8.284A13.148,13.148,0,0,0,640.82,4723.126Z" fill="url(#linear-gradient)"/>
        <path id="Trazado_2037" data-name="Trazado 2037" d="M641.409,4707.123c-2.1,3.686-8.89.292-8.212,5.042-4.751-1.356-2.033-7.466-2.715-10.862,2.037,2.036,4.754,1.357,7.032,3.565C639.565,4705.232,641.272,4705.043,641.409,4707.123Z" fill="url(#linear-gradient)"/>
        <path id="Trazado_2038" data-name="Trazado 2038" d="M634.38,4853.658c.132,1.3-2.186,1.373-2.409.545C632.055,4853.182,634.124,4852.662,634.38,4853.658Z" fill="url(#linear-gradient-24)"/>
        <path id="Trazado_2039" data-name="Trazado 2039" d="M625.625,4693.661c1.479.918,5.04,2.975,2.637,4.639C626.756,4697.64,625.127,4695.48,625.625,4693.661Z" fill="url(#linear-gradient)"/>
        <path id="Trazado_2040" data-name="Trazado 2040" d="M616.412,4848.672c2.031-2.039,4.289-3.7,7.08-2.5-3.031,2.456-6.177,6.389-10.251,5.648C613.358,4850.067,615.128,4849.481,616.412,4848.672Z" fill="url(#linear-gradient)"/>
        <path id="Trazado_2041" data-name="Trazado 2041" d="M613.947,4820.171c1.725-.205,3.114-.314,4.505-.419-2.227,4.3-7.7,1.963-11.9,2.96a4.81,4.81,0,0,1,3.039-2.722C610.706,4819.774,612.329,4820.328,613.947,4820.171Z" fill="url(#linear-gradient-28)"/>
        <path id="Trazado_2042" data-name="Trazado 2042" d="M615.279,4824.679c-6.262,4.143,1.153,9.188-1.91,13.025-3.048,3.133-2.456-5.5-6.02-4.5-1.406.108.352,4.972-3.281,6.688.374-5.046-2.687-11.224,2.384-15.079.7-.051,1.325,1.3,2.233,1.893C610.473,4826.914,612.738,4824.455,615.279,4824.679Z" fill="url(#linear-gradient)"/>
        <path id="Trazado_2043" data-name="Trazado 2043" d="M608.1,4848.314c-.663,1.239-3.792.977-3.978-.08C604.76,4846.95,607.928,4847.009,608.1,4848.314Z" fill="url(#linear-gradient-46)"/>
        <path id="Trazado_2044" data-name="Trazado 2044" d="M604.865,4852.35c-1.252,2.036-2.495-.057-3.287-.951C602.548,4850.046,604.936,4850.885,604.865,4852.35Z" fill="url(#linear-gradient-3)"/>
        <path id="Trazado_2045" data-name="Trazado 2045" d="M601.575,4818.443a2.918,2.918,0,0,1,1.6,2.416c-4.356,4.451-5.5,11.572-9.06,13.184-4.279,2.308-9.969,1.187-13.65-1.568s-5.449-6.975-1.9-10.8c2.467-2.433,5.808-6.092,9.35-9.331s7.3-6.053,10.718-6.858c4.786-.882,4.1,5.163,2.13,10.471A9.9,9.9,0,0,0,601.575,4818.443Z" fill="url(#linear-gradient)"/>
        <path id="Trazado_2046" data-name="Trazado 2046" d="M601.028,4848.817c-2.7,1.544-5.555,2.408-8.14.349a5.2,5.2,0,0,1,3.342-.749C598.07,4848.111,600.717,4846.589,601.028,4848.817Z" fill="url(#linear-gradient)"/>
        <path id="Trazado_2047" data-name="Trazado 2047" d="M590.813,4848.892a57.129,57.129,0,0,1-12.739-.37c-4.289-.725-8.362-2.253-11.418-5.309,6.791-1.355,12.9,0,18.9,3.27C587.2,4847.393,590.055,4847.1,590.813,4848.892Z" fill="url(#linear-gradient-50)"/>
        <path id="Trazado_2048" data-name="Trazado 2048" d="M573.606,4830.593c3.671.017,3.245,6.065-.407,6.042S569.938,4830.578,573.606,4830.593Z" fill="url(#linear-gradient)"/>
        <path id="Trazado_2049" data-name="Trazado 2049" d="M568.284,4829.828c3.8,3.88-2.3,7.276-1.628,11.349-10.185-3.393-12.9-14.94-19.177-22.734a39.241,39.241,0,0,0-6.625-7.823,29.705,29.705,0,0,1,14.633,7.358,64.348,64.348,0,0,1,10.587,12.892C567.064,4831.187,567.2,4829.671,568.284,4829.828Z" fill="url(#linear-gradient)"/>
        <path id="Trazado_2050" data-name="Trazado 2050" d="M501.825,4799.988c1.188.405,4.983,5.351,3.665,8.076a3.4,3.4,0,0,1-3.206,1.544c-2.8-.451-1.9-6.662-.906-9.187A.769.769,0,0,1,501.825,4799.988Z" fill="url(#linear-gradient-50)"/>
        <path id="Trazado_2051" data-name="Trazado 2051" d="M422.17,4864.525c-3.538,9.245-6.934,34.369-17.118,26.9-5.433-3.394-.68-15.615,4.072-22.406,1.359-.681,3.4-.681,4.753-2.037,2.039-2.037,4.755-4.074,5.718-7.652C421.484,4858.375,421.948,4862.022,422.17,4864.525Z" fill="url(#linear-gradient)"/>
        <path id="Trazado_2052" data-name="Trazado 2052" d="M382.438,4636.048c-.322-1.507,2.832-1.515,2.161-.027C384.068,4636.493,382.713,4636.564,382.438,4636.048Z" fill="url(#linear-gradient-55)"/>
        <path id="Trazado_2053" data-name="Trazado 2053" d="M368.935,4729.822c.006-1.275,2.722-1.618,3.306-.463C372.108,4730.6,369.554,4731.324,368.935,4729.822Z" fill="url(#linear-gradient-56)"/>
        <path id="Trazado_2054" data-name="Trazado 2054" d="M316.543,4720.122c1.459-1.272,5.073-.363,7.256-.383-.286,1.159-.186,2.668-1.025,3.327C320.221,4722.591,317.826,4721.954,316.543,4720.122Z" fill="url(#linear-gradient-27)"/>
        <path id="Trazado_2055" data-name="Trazado 2055" d="M304.931,4712c1.852-2.172,4.067-1.012,3.657,3.2-.389,1.257-2.412,2.925-3.5,1.049A16,16,0,0,0,304.931,4712Z" fill="url(#linear-gradient)"/>
        <path id="Trazado_2056" data-name="Trazado 2056" d="M307.477,4707.155a1.872,1.872,0,0,1-.833,2.268C304.69,4709.067,305.869,4705.483,307.477,4707.155Z" fill="url(#linear-gradient-50)"/>
        <path id="Trazado_2057" data-name="Trazado 2057" d="M289.427,4680.4c-2.523,4.611-9.33,7.327-12.709,4.611-2.713-2.04,2.717-5.434,2.717-8.828.68-1.36-2.715-1.36-4.074-2.72a5.171,5.171,0,0,1-1.356-3.394c.676-4.073,4.753-4.752,7.467-5.432-2.037,2.039.679,2.716,2.037,3.4-2.717,4.754,2.717,6.791,3.537,10.531C287.737,4679.264,289.326,4679.354,289.427,4680.4Z" fill="url(#linear-gradient)"/>
        <path id="Trazado_2058" data-name="Trazado 2058" d="M274.829,4675.2c-1.505,5.052-5.578,9.128-11.011,7.087,2.715-3.394,2.038-6.108,5.856-8.126C271.552,4672.945,274.711,4673.775,274.829,4675.2Z" fill="url(#linear-gradient)"/>
        <path id="Trazado_2059" data-name="Trazado 2059" d="M1051.51,4840.915c-5.455,9.09-4.1,20.631-10.21,29.458-3.055,4.245-6.11,8.235-9.148,12.1-3.317,2.069-6.056,5.485-8.555,9.4s-4.746,8.325-7,12.428c-3.134,6.818-9.246,14.967-17.392,13.6,7.469,6.111,2.717,12.9-4.756,15.623-.674.676-.674,3.392-1.354,4.071s-2.036,0-3.4,0c5.432,4.074-.679,9.5,0,14.257.677,1.36,2.717,1.36,4.076,2.039-3.4,7.466,0,18.333,8.824,19.692-12.9,7.468-25.8-4.755-30.555-16.3a30.706,30.706,0,0,1-2.037-10.861,3.34,3.34,0,0,0,2.037-.683c.679-2.714-.679-4.75-3.4-5.427,1.359.677.68,2.033.68,2.713-6.11-8.826-5.43-20.37-8.148-29.876-2.037-8.147,0-16.3-3.472-24.5a41.308,41.308,0,0,0-8.007-16.669,31.991,31.991,0,0,0-10.414-7.52,45.931,45.931,0,0,1-7.807-9.257c-8.55-13.43-9.457-30.78.5-46.627,1.361-1.355,2.04-6.789-2.034-6.789-4.756,0-11.546,2.036-13.583-2.036-8.146-17.652-29.2-16.978-42.949-28.008a73.479,73.479,0,0,1-9.784-7.427,61.858,61.858,0,0,1-15.166-20.92c-.68-1.358-2.038,5.431-.68,7.467,2.037,3.4,6.791,6.792,6.111,11.543-9.506-4.751-10.185-16.3-13.579-25.117,0-.681-3.395-.685-4.074-2.041-3.057-5.773-2.207-11.2.339-16.3,5.772-4.753,7.808-12.223,10.909-19.256a51.728,51.728,0,0,0,1.553-11.013,73.457,73.457,0,0,0-.579-11.828c-.68.679-2.038,2.035-2.038,1.356-2.037-4.755,2.718-11.542-2.716-14.257-8.147-2.718-14.257,0-22.405,2.715a2.169,2.169,0,0,1-2.039-2.039,18.154,18.154,0,0,1-11.628.169,33.658,33.658,0,0,1-10.1-5.6c4.752-5.429,13.567-.748,18.273-6.4-1.976-1.068-6.73.968-6.73-1.75.68-4.754,7.47-2.036,10.185-4.073,14.712-13.016,34.139-12.824,52.387-12.4,3.653.085,7.259.182,10.775.184a34.95,34.95,0,0,1,10.772-1.18,60.531,60.531,0,0,1,10.266,1.432c6.787,1.78,13.577,4.5,21.045,3.818.679,0,2.04-1.358,2.04-2.719-2.04-4.751-6.791-1.355-10.863-3.39,2.712-2.717,5.428-4.755,9.5-4.077,12.9,2.038,23.088,10.186,35.989,8.828-4.753,5.431-6.791,13.579-14.94,7.469,4.076,9.507,14.94-1.358,21.73,3.394a4.744,4.744,0,0,1-2.716,1.359c.679,0,2.038,1.357,2.716.679,4.753-5.432,2.037-6.79-2.716-10.863,2.716-1.361,5.43-3.4,8.829-3.4,4.074.681,0,3.4.679,5.435,2.715-2.716,6.79-8.148,10.864-5.435v2.038c-2.039,1.361-4.757,0-6.79,2.037-2.717,2.717,0,6.111,2.716,8.149,0,.68-1.36,2.038-2.04,2.716a7.446,7.446,0,0,0,8.149-5.43c0-1.36-2.035-.68-2.714-.68-1.36-8.83,9.5-12.22,16.975-10.865,4.752,1.361,11.541,0,13.578,4.754s7.47,5.431,7.47,9.5-4.075,3.4-7.47,2.716c-5.434-.678.678,2.718,0,5.433-1.36,2.714-4.072,2.714-6.111,2.714.677.68,1.358,1.359.677,2.038-5.429,2.718-8.144-5.432-12.9-4.072-1.358,0-2.719,1.357-4.752,0,4.752-3.4,14.258-2.716,13.577-9.507-.677-4.754-8.145-4.754-10.862-2.036-3.394,3.394-6.789,8.148-12.225,9.5-1.354.679-2.037-.677-2.714-1.356,0,3.4,6.113,3.4,4.755,4.752-2.041,3.394-6.79,4.073-10.864,1.357,2.036.679,2.036-2.036,2.712-2.714-4.41,3.051-12.559,3.731-19.091,5.365-6.708.744-13.5,6.176-8.745,12.964,4.073,4.756,10.184,4.077,14.939,7.471-2.039,1.361-3.4,7.472-1.361,6.113a103.918,103.918,0,0,0,18.332-11.543c1.7-3.4,3.058-7.472,5.181-10.609s5.009-5.348,9.76-5.01c2.716,0,3.395,2.715,5.432,3.4-.68,1.359-2.037,2.715-2.037,4.075.68,1.36,2.037,1.36,3.394,1.36a12.209,12.209,0,0,0,4.752-3.4c7.47-3.392,2.038,7.47,5.434,10.188.678,0,2.715,0,3.393.677,3.394,4.073-2.038,7.469-1.357,12.225a5.173,5.173,0,0,1,3.393,1.358,3.073,3.073,0,0,1,0,3.393c-3.393,4.754-8.825,0-13.577.678,2.714-2.717,6.11-6.113,8.826-8.824-5.433,1.356-10.864,2.036-15.615,4.753a2.494,2.494,0,0,0,2.037.678c-4.075,1.357-8.826-2.72-11.543,1.36,1.357,0,2.717-.684,4.074,0,2.715,2.716-2.04,3.4-2.037,4.756,0,5.444,6.789.676,9.506,1.356a18.913,18.913,0,0,1-16.272,6.272,1.99,1.99,0,0,0,2.013-2.2c-5.093,2.547-10.738,5.561-16.382,9.011-2.824,1.724-5.644,3.552-8.394,5.48-8.919,6.447-18.406,14.172-23.452,24.505a35.688,35.688,0,0,0-3.383,11.255,22.77,22.77,0,0,0-9.079-8.244c-10.692-5.381-25.206-2.453-34.372,6.2-3.4,3.4-4.074,7.47-4.753,11.546a7.9,7.9,0,0,0,1.355,6.787c7.473,9.507,14.263-4.075,22.41-3.393,7.468,0-2.037,8.827,0,9.507,8.148,5.432,8.148,10.183,10.863,19.011,1.358,2.035,4.073,3.4,6.113,2.715,3.395,0,6.79,0,8.824,2.718,2.719-5.433,8.829-8.151,14.259-10.185,0,.677-.676,1.356-.676,2.034,9.505,0,19.011,4.077,28.518,2.037,1.359,6.114,5.944,8.149,11.055,9.629,12.71.559,17.461,13.459,28.326,18.891,2.714,1.358,6.112,2.037,8.149,2.714,8.146,2.038,15.617,5.433,23.672,8.463C1049.964,4835.3,1051.3,4839.195,1051.51,4840.915Zm-42.838-189.86c.637,0,1-.283.919-1.007A.7.7,0,0,0,1008.672,4651.055Zm-15.077-12.845c-.617.186-.617.186-.777.7C993.384,4638.993,993.474,4638.585,993.595,4638.21Zm-35.449,70.736c-2.3-1.079-4.3-.3-6.222.867C953.406,4710.443,957.53,4710.779,958.146,4708.946Zm-7.463-2.166c2.664-4.428-4.985-3.8-7.862-2.54,1.238,1.987-1.68,4.584.3,5.911,2.662,1.306,3.64-3.259,5.513-3.635C949.374,4706.4,949.707,4706.9,950.683,4706.78Zm-1.386,91.972c1.156-.184.939-2.9-.476-2.245C947.749,4797,948.209,4798.923,949.3,4798.752Zm-1.058-86.357c-2.671.435-6.063-.928-8.086,2.431.68,0,2.035.011,2.862.017A15.167,15.167,0,0,0,948.239,4712.4Zm-5.791-10.846c3.268-1.761.582-3.862-.09-4.57-4.025-2.855-9.995-.722-13.947,2.832,2.68,1.472,5.973-1.376,8.872,1.85A30.864,30.864,0,0,0,942.448,4701.549Zm-2.272,2.215c-5.592-1.1-11.4,5.435-10.092,8.867,1.335,4.083,2.185-5.346,7.263-6.811C938.621,4705.153,939.876,4705.3,940.176,4703.764Zm-3.652-57.471c1.33-.185,1.342-.885,1.348-1.58-4.725.625-10.049-6.384-12.5-2.074C928.511,4645.6,933.3,4643.453,936.524,4646.293Zm-14.671,37.745c1.764.249,3.213-4.769.194-4.665C920.025,4679.442,919.394,4683.687,921.853,4684.038Zm-7.718,108.311c.083-.215.227-.363.315-.577C914.093,4790.305,912.631,4792.245,914.135,4792.349Zm-7.739-137.3c.99.5,2.507.066,2.514-.642-2.23-3.9-6.009.4-8.761.9C902.61,4656.059,904.852,4655.314,906.4,4655.048Zm-.732-10.888a15.636,15.636,0,0,0,2.536.142c-2.022-4.1-8.809-4.112-9.915.2C900.473,4645.255,903.141,4644.163,905.664,4644.16Zm-51.746,52.565c.693-.91-.293-2.585-1.32-1.769C852.5,4695.6,852.784,4697.09,853.918,4696.725Zm-3.9-25.184c-.152-.344-.816-.271-1-.049A.533.533,0,0,0,850.023,4671.541Z" opacity="0.85" fill="url(#linear-gradient)"/>
      </g>
    </g>
    <g id="Grupo_571" data-name="Grupo 571" transform="translate(-9.001 -4432.527)">
      <path id="Trazado_2061" data-name="Trazado 2061" d="M227.987,4917.481c-.114.32-.321.542-.431.865C225.265,4918.264,227.334,4915.334,227.987,4917.481Z" fill="#fffff7" opacity="0.55"/>
      <circle id="Elipse_82" data-name="Elipse 82" cx="37.236" cy="37.236" r="37.236" transform="translate(902.727 4915.38) rotate(-71.565)" fill="#fffff7" opacity="0.55"/>
      <circle id="Elipse_83" data-name="Elipse 83" cx="37.236" cy="37.236" r="37.236" transform="translate(376.704 4803.309) rotate(-80.674)" fill="#fffff7" opacity="0.55"/>
      <path id="Trazado_2062" data-name="Trazado 2062" d="M636.708,4907.593a37.236,37.236,0,1,1-37.236-37.235A37.236,37.236,0,0,1,636.708,4907.593Z" fill="#fffff7" opacity="0.55"/>
      <path id="Trazado_2063" data-name="Trazado 2063" d="M1046.188,4693.1a37.236,37.236,0,1,1-37.236-37.236A37.236,37.236,0,0,1,1046.188,4693.1Z" fill="#fffff7" opacity="0.55"/>
      <path id="Trazado_2064" data-name="Trazado 2064" d="M330.723,4816.848a27.486,27.486,0,1,1-27.486-27.486A27.486,27.486,0,0,1,330.723,4816.848Z" fill="#fffff7" opacity="0.55"/>
      <circle id="Elipse_84" data-name="Elipse 84" cx="27.486" cy="27.486" r="27.486" transform="translate(646.928 4831.957) rotate(-22.5)" fill="#fffff7" opacity="0.55"/>
      <circle id="Elipse_85" data-name="Elipse 85" cx="27.486" cy="27.486" r="27.486" transform="translate(456.315 4786.973) rotate(-22.5)" fill="#fffff7" opacity="0.55"/>
      <circle id="Elipse_86" data-name="Elipse 86" cx="27.486" cy="27.486" r="27.486" transform="translate(873.191 4616.235) rotate(-22.903)" fill="#fffff7" opacity="0.55"/>
      <circle id="Elipse_87" data-name="Elipse 87" cx="60.156" cy="60.156" r="60.156" transform="translate(265.716 4733.069) rotate(-87.948)" fill="#fffff7" opacity="0.55"/>
      <path id="Trazado_2065" data-name="Trazado 2065" d="M650.629,4808.6a60.156,60.156,0,1,1-60.156-60.156A60.156,60.156,0,0,1,650.629,4808.6Z" fill="#fffff7" opacity="0.55"/>
      <circle id="Elipse_88" data-name="Elipse 88" cx="60.156" cy="60.156" r="60.156" transform="translate(581.089 4595.679) rotate(-0.217)" fill="#fffff7" opacity="0.55"/>
      <circle id="Elipse_89" data-name="Elipse 89" cx="60.156" cy="60.156" r="60.156" transform="translate(972.173 4899.29) rotate(-3.562)" fill="#fffff7" opacity="0.55"/>
    </g>
  </g>
</svg>
