<svg xmlns="http://www.w3.org/2000/svg" xmlns:xlink="http://www.w3.org/1999/xlink" width="895.556" height="418.658" viewBox="0 0 895.556 418.658">
  <defs>
    <linearGradient id="linear-gradient" y1="0.5" x2="1" y2="0.5" gradientUnits="objectBoundingBox">
      <stop offset="0" stop-color="#ffd9a4"/>
      <stop offset="0.485" stop-color="#ffbdc0"/>
      <stop offset="1" stop-color="#ff9792"/>
    </linearGradient>
    <linearGradient id="linear-gradient-10" x1="0" y1="0.5" x2="1" y2="0.5" xlink:href="#linear-gradient"/>
    <linearGradient id="linear-gradient-11" x1="0" y1="0.5" x2="1" y2="0.5" xlink:href="#linear-gradient"/>
    <linearGradient id="linear-gradient-15" x1="0" y1="0.5" x2="1" y2="0.5" xlink:href="#linear-gradient"/>
    <linearGradient id="linear-gradient-16" x1="0" y1="0.5" x2="1" y2="0.5" xlink:href="#linear-gradient"/>
    <linearGradient id="linear-gradient-18" x1="0" y1="0.5" x2="1" y2="0.5" xlink:href="#linear-gradient"/>
    <linearGradient id="linear-gradient-20" x1="0" y1="0.5" x2="1" y2="0.5" xlink:href="#linear-gradient"/>
    <linearGradient id="linear-gradient-24" x1="0" y1="0.5" x2="1" y2="0.5" xlink:href="#linear-gradient"/>
    <linearGradient id="linear-gradient-25" x1="0" y1="0.5" x2="1" y2="0.5" xlink:href="#linear-gradient"/>
    <linearGradient id="linear-gradient-28" x1="0" y1="0.5" x2="1" y2="0.5" xlink:href="#linear-gradient"/>
  </defs>
  <g id="Grupo_2123" data-name="Grupo 2123" transform="translate(-1708.462 -8100.695)">
    <g id="Grupo_1953" data-name="Grupo 1953" opacity="0.75" style="mix-blend-mode: multiply;isolation: isolate">
      <g id="Grupo_1952" data-name="Grupo 1952">
        <path id="Trazado_16344" data-name="Trazado 16344" d="M2233.461,8419.287a13.759,13.759,0,0,1,2.532-.143c-4.132,4.145-8.966,8.281-14.491,9.666,2.071-6.215,8.285-10.35,7.589-17.254,0-1.374,1.382-.69,2.075,0,.7,1.386-.693,3.451.543,4.92C2232.145,8417.772,2232.086,8418.955,2233.461,8419.287Z" fill="url(#linear-gradient)"/>
        <path id="Trazado_16345" data-name="Trazado 16345" d="M2219.753,8428.26c-7.217,6.064-19.637,17.107-27.917,12.961,7.592-6.2,17.249-7.592,24.636-14.137C2217.363,8426.486,2218.78,8428.089,2219.753,8428.26Z" fill="url(#linear-gradient)"/>
        <path id="Trazado_16346" data-name="Trazado 16346" d="M2192.645,8326.094a3.935,3.935,0,0,0,1,.184c-.012,4.239-4.79,4.655-7.71,1.385C2185.588,8325.445,2191.328,8327.149,2192.645,8326.094Z" fill="url(#linear-gradient)"/>
        <path id="Trazado_16347" data-name="Trazado 16347" d="M2185.753,8336.144c1.947,1.6,4.7,2.29,4.019,5.048-.7.69-2.761,1.376-3.452.69-6.21-6.21-11.723-8.967-20-6.21-2.766,1.381-6.209-2.757-9.662-.688,6.211-10.354-8.276-11.036-14.487-15.871-2.074-2.067-1.38-7.586,2.069-6.9,2.76.691,4.142,4.83,6.2,7.589,9.667-9.659,25.531.692,33.118,9.657,0,.691-.686,1.381-1.355,1.843C2182.137,8333.557,2185.145,8333.575,2185.753,8336.144Z" fill="url(#linear-gradient)"/>
        <path id="Trazado_16348" data-name="Trazado 16348" d="M2191.179,8384.832a43.433,43.433,0,0,1-3.117,10.21,49.2,49.2,0,0,1-5.55,9.454c-8.842,11.821-23.1,19.939-38.273,16.717-1.38-.687-2.757-1.379-3.449-2.752-.694-3.453-2.067-6.9-2.067-10.35-2.074.691-4.142,2.755-6.211,3.445-4.145-12.408-19.32-8.277-28.29-5.522a15.1,15.1,0,0,0-5.514,3.454c-2.763,1.378-6.9,0-9.663,1.378-3.452,1.384-11.036,4.142-11.727-.684,0-1.38,4.143-4.148,2.757-6.2-4.646-11.912,1.167-23.423,11.058-29.895a33.7,33.7,0,0,1,11.03-4.638c8.27-2.731,11.029-12.386,19.31-15.149a6.575,6.575,0,0,1,6.894,1.377c3.451-8.282,20.7-16.556,21.384-7.587,0,5.519,2.075,11.033,8.974,13.1,1.385,0,2.762,0,3.447-.684,5.522-4.833,2.76-13.115,6.9-18.628,5.526,13.795,10.353,28.284,20.053,39.851C2189.836,8382.813,2190.972,8383.985,2191.179,8384.832Z" fill="url(#linear-gradient)"/>
        <path id="Trazado_16349" data-name="Trazado 16349" d="M2167.337,8133.055c3.118,1.172,11.4,2.552,8.637,6-3.451,3.444-13.8-6.9-15.864-.692-.694,2.069,4.137,3.452,6.894,5.526-7.588.683-12.416,6.9-20.694,4.824-.7,0-1.377,1.38-2.071,2.072,8.275,6.209,10.349,12.411,11.038,22.077-12.418-2.761-22.765-16.561-17.937-29.668.688-.695-1.38-2.064-2.072-2.762a9.305,9.305,0,0,0-.687,3.457c-3.449,2.061-4.835-2.759-7.591-3.457-3.448-.684-6.207,4.14-2.76,6.9-8.969,2.761-20.7-6.2-26.9,2.761-2.759,3.448-2.074,8.275.689,9.658,11.037,4.831,28.29,6.9,28.975,22.077-4.828-2.754-5.517-9.656-11.035-12.417,4.132,8.277,8.961,20,.685,26.9-1.379,1.383-4.83,0-5.515,1.383-5.521,4.83-4.829,11.034,2.067,13.781,4.14,3.464,4.14,7.605-1.382,8.988-1.377,0-2.062,0-2.758-1.383-.687-4.144-2.756-7.605-6.9-8.306-.686-.692-.686-2.8-1.389-3.506-4.849-4.279-10.334,2.813-11.06-4.971-2.744,1.454-4.112,4.3-7.556,5.708,3.444,4.861,8.967,2.774,13.8,4.852-5.169,3.115-3.792,6.056-.947,9.24s7.156,6.641,7.847,10.775c2.071,15.871-13.8,17.248-24.836,24.832-1.385.7,2.757,4.145,0,6.214h-2.762c-2.76-2.759,2.762-5.519,0-8.275-3.442-2.07-6.9,0-8.28,2.757-3.449,6.9,5.52,10.348,8.972,15.178.685,2.067,2.07,4.136,1.379,6.209,0,5.522-5.513,8.971-10.351,11.033-2.064-5.511-7.584-10.34-12.414-10.34-4.139.685-2.76,6.9-.692,11.033,2.414,3.107,5.522,6.208,7.761,9.576s3.571,7.025,2.444,11.217c-6.084-3.535-9.683-9.235-12.013-15.7s-3.362-13.709-4.4-20.266c-1.378-4.829-5.518-8.282-8.972-3.452-2.753-6.9-7.581-12.417-11.032-18.626-2.76,2.762-6.9.691-9.662,3.446-5.522,6.9-12.418,12.425-16.554,20.009-2.76,4.832,0,10.356-3.451,14.492a5.248,5.248,0,0,1-2.763,1.382c-12.414-7.593-10.343-24.149-15.862-35.883-.692.7-2.76,2.763-2.76,2.078-8.97-14.486-25.53-10.351-38.633-13.8-1.381-.685-3.451-1.377-3.451-3.45a12.983,12.983,0,0,1-12.157-1.97c-3.537-2.341-6.815-5.272-10.608-5.613-6.9-.69,1.376,8.966,4.827,11.726h2.76c-.686,3.447,2.071,5.521,4.828,3.447,8.277-5.517,17.934-1.377,17.251,6.9,0,13.109-19.319,16.558-30.354,23.46-2.075.685-4.835,2.065-7.592,1.374a16.292,16.292,0,0,1-8.969-7.586c-4.143-9.663-10.35-17.248-14.313-26.9-2.241-3.971-5-7.244-9.14-6.9,1.491,3.1,3.08,6.7,4.821,10.507,1.735,3.787,3.627,7.782,5.708,11.675,5.04,10.784,14.446,22.011,26.114,23.761a22.225,22.225,0,0,0,12.344-1.783,24.033,24.033,0,0,1-2.19,11.831,41.857,41.857,0,0,1-6.953,10.493c-2.76,3.237-5.828,6.364-8.628,9.586a46.1,46.1,0,0,0-7.072,10.167c-1.379,3.446-3.451,6.9-1.379,11.033a20.748,20.748,0,0,1,2.892,10.676c-.137,10.415-8.412,19.851-16.691,26.582-2.067.683.689,4.136-.694,6.2-2.065,5.521-7.587,8.284-11.032,14.492a36.384,36.384,0,0,1-15.49,14.385c-6.237,3.03-13.146,3.9-19.7,1.479-2.761-1.032-4.659-4.137-6.122-7.848-3.535-17.678-18.03-34.917-9.057-54.934,4.832-11.036-9.655-21.385-11.038-33.8,0-2.068,1.383-3.448,1.383-5.52,0-1.38-1.383-2.074-2.078-2.748-6.9-1.388-11.726-6.91-16.55-6.219-22.763,4.137-42.089,0-52.428-20.7-.692-1.379-1.387-4.142-.692-5.519,1.376-6.214.692-13.108,1.376-17.937,2.763-15.18,17.937-24.835,27.6-38.634.689-1.385,1.382-3.452.689-3.452-9.663-3.45-6.9-12.417-6.211-19.312,0-.687,1.38-2.073,2.756-2.073,5.522.691,17.252,3.449,16.561-5.518-.689-4.136-4.828-4.827-7.588-6.9,4.828-.693,8.279-3.453,12.14-5.433a72.419,72.419,0,0,0,10.622-9.053c1.387-.691,4.831,1.378,6.211-1.383.69-2.068-1.38-4.14-.685-6.214a5.671,5.671,0,0,1,4.133-2.762c1.379.695,1.379,2.762,1.379,4.145.7.691,3.448,0,3.448-1.383,0-8.964-8.275-2.762-10.349-5.518-11.036-9.656,13.806-17.243,22.079-24.835,2.075-2.759,6.213-4.136,9.628-4.225,11.767-1.286,25.558-.6,35.907,6.293-2.759,3.455-6.9,1.383-10.349,2.072-.689.689-2.07,2.072-2.07,2.757,1.381,2.076,4.141,2.076,6.9,2.768-.687-.692-.687-1.387-1.376-2.073h3.451c3.447-1.38,4.824-5.524,9.655-4.832,1.379,0-.691-2.76,0-4.134,3.449-4.137,3.449,2.756,4.831,2.066,8.967-4.143,19.313-4.828,28.285-5.513,0-.69-.692-.69-.692-1.385,6.214-2.76,12.414,0,17.94,2.07-1.38-.685-2.766-2.07-4.137-2.759-.694-.688-.694-2.071-.694-3.451a4.419,4.419,0,0,1,5.525-4.136c2.75.692,3.442,2.065,4.133,4.136,19.321-6.9,40.7-13.794,61.4-9.794a49.31,49.31,0,0,1,12.418,4.272c13.106,6.212,28.284,6.212,43.455,8.285,9.665.688,17.943-4.139,27.6-5.524,1.383,0,2.76,1.385,4.137,2.071,10.349.69,20.7,0,31.052,3.453,2.757.688,5.516,0,8.279,0,2.756.688,5.518,1.377,7.587,2.762,0-.69,0-2.762.688-2.762,14.493,3.447,27.6,6.9,40.829,12.72C2165.79,8133.236,2166.42,8132.966,2167.337,8133.055Zm-130.659,34.9c.552-2.09-.167-3.516-1.584-4.967-.655,3.524-1.316,6.331-4.068,9.1a2.772,2.772,0,0,0,2.4-1.019C2034.567,8169.97,2036.3,8169.287,2036.678,8167.953Zm-41.209-56.837c-1.626.346-3.7.346-4.682,2.349C1992.235,8113.348,1995.121,8112.831,1995.469,8111.116Zm-28.24,75.514c-.637-1.151-2.145.335-1.4,1.364C1966.831,8188.065,1967.162,8187.473,1967.229,8186.63Zm-34.665-58.007c.856.045,2.236.057,2.911-.664,2.705-4.279-3.518-7.81-6.272-9.861-.691,3.451,4.13,3.451,4.359,7.281C1933.549,8126.8,1932.09,8126.945,1932.564,8128.623Zm-.474,64.119c2.493-.5-.17-4.751-2.038-4.269C1927.61,8189.1,1930.394,8193.085,1932.09,8192.742Zm-11.125,20.848c1.13-4.17-7.15-7.621-1.63-9.683-3.451-5.524-13.8-12.424-6.211-18.628-5.519-2.068-13.8-1.38-13.1,5.512.685,8.283,8.964,13.116,9.654,21.385a7.122,7.122,0,0,0,6.573,3.091A6.781,6.781,0,0,0,1920.965,8213.59Zm-36.792-11.781c1.325-.074,2.686-.8,2.67-2.23-2.157-5.75-8.306-4.895-12.47-8.4-3.449-2.078.6-4.379-.815-6.521-.731-2.174-4.772-.549-5.426.917-1.309,2.931,2.808,4.256-1.278,5.776-4.79,1.484-5.54-5.557-9.638-5.461-3.428.743-4.8,3.526-6.182,6.291-.682,3.45,1.38,5.52,2.074,8.275,0,.686-1.379,1.38-2.074,1.38.695.694,1.38,1.38,2.074,1.38a18.4,18.4,0,0,1,12.523-4.035,43.952,43.952,0,0,1,13.181,2.813A30.433,30.433,0,0,0,1884.173,8201.809Zm-8.832,18.471c-.155-1.887-.155-5.337-2.23-5.337-6.9-.692-15.175.69-20.855-1.773-4.04-4.315-4.67-14.786-12.945-9.956,4.136,3.449,3.4,10.422.666,9-5.5-3.479-9.46-8.3-13.523-12.963-4.043-4.658-8.185-9.142-14.048-11.9-2.071,9.661,10.348,9.661,14.486,15.18-4.83-1.389-1.382,4.135-4.83,6.2-1.383-9.657-11.727-14.479-20.7-15.866-2.07-.687-3.449,1.387-5.514,2.073-.692,0-2.07-2.073-3.455-1.382-7.587,2.758-8.963,10.351-13.8,16.558-2.763,3.444-8.97.686-11.041,4.828,0,1.375,2.071,2.067,3.451,2.067,12.422-2.067,31.04-15.177,39.325,0a2.205,2.205,0,0,1-2.068,2.074,36.821,36.821,0,0,0,12.672,7.325,123.306,123.306,0,0,0,14.192,3.784,4.493,4.493,0,0,1,4.18-5.586c10.347-.693,29.657,13.1,34.5-.167C1874.318,8222.729,1875.315,8221.584,1875.341,8220.279Zm4.872,133.656c1.115-2.268,2.6-3.729-.111-4.913C1879.364,8350.313,1878.487,8353.346,1880.213,8353.936Zm-2.485-31.617c1.877-.772,1.723-2.9.914-4.331-2.288-2.157-5-.8-6.268,1.33-.584,2.155.344,6.536,4.095,5.362C1877.494,8324.17,1877.309,8323.313,1877.728,8322.318Zm-9.112,16.316c-.787-2.5-.8-5.436-2.868-6.759C1864.625,8334.445,1866.341,8338.5,1868.616,8338.635Zm-25.493-189.9c-5.282-1.609-16.231,4.807-15.542-4.845,0-3.457,4.114-4.891,6.84-7.047-6.157-1.932-13.051,3.59-14.43,8.424-.688,4.138,2.071,6.207-2.069,9.654-.694.686.695,2.074.695,2.758-4.837.69-8.282,4.836-13.116,4.141,6.214,5.524,15.178,2.763,22.08-1.377.692,0-.689-3.448.692-4.836,2.067-.686,3.447,1.388,5.509.679a2.124,2.124,0,0,0,0-2.771c-1.369-.67-3.438.027-4.814.027.685-2.068,3.445-.7,4.42-2.723C1836.9,8149.512,1841.671,8151.82,1843.123,8148.734Z" fill="url(#linear-gradient)"/>
        <path id="Trazado_16350" data-name="Trazado 16350" d="M2156.089,8428.039c-1.963,3.7-6.575,7.8-10.119,5.729-2.132-1.386-.539-4.134,1.766-6.181.763-.693,2.207,0,3.232.467C2152.838,8428.329,2154.644,8427,2156.089,8428.039Z" fill="url(#linear-gradient)"/>
        <path id="Trazado_16351" data-name="Trazado 16351" d="M2143.013,8212.285c3.986,8.869-11.881,8.182-17.4,13.007-.694.686.695,3.45-.694,3.45-2.754,0-4.829-3.45-4.829-4.828,0-2.76,3.455-5.521,6.218-6.9,1.377-.692,4.136.692,5.513,0,5.522-4.139,6.21-8.963,4.142-15.211,4.136.024,6.9,4.17,6.205,8.418A12.881,12.881,0,0,0,2143.013,8212.285Z" fill="url(#linear-gradient)"/>
        <path id="Trazado_16352" data-name="Trazado 16352" d="M2143.616,8196.021c-2.134,3.742-9.035.293-8.348,5.117-4.827-1.375-2.064-7.582-2.756-11.033,2.069,2.072,4.828,1.377,7.142,3.623C2141.737,8194.1,2143.474,8193.906,2143.616,8196.021Z" fill="url(#linear-gradient)"/>
        <path id="Trazado_16353" data-name="Trazado 16353" d="M2136.469,8344.9c.13,1.32-2.222,1.4-2.442.554C2134.1,8344.424,2136.21,8343.889,2136.469,8344.9Z" fill="url(#linear-gradient-10)"/>
        <path id="Trazado_16354" data-name="Trazado 16354" d="M2127.579,8182.34c1.5.938,5.118,3.028,2.673,4.719C2128.721,8186.384,2127.07,8184.19,2127.579,8182.34Z" fill="url(#linear-gradient-11)"/>
        <path id="Trazado_16355" data-name="Trazado 16355" d="M2118.214,8339.836c2.066-2.068,4.356-3.76,7.192-2.537-3.08,2.493-6.272,6.488-10.418,5.738C2115.112,8341.257,2116.909,8340.659,2118.214,8339.836Z" fill="url(#linear-gradient)"/>
        <path id="Trazado_16356" data-name="Trazado 16356" d="M2115.711,8310.88c1.75-.205,3.164-.322,4.578-.429-2.261,4.373-7.826,2-12.092,3.007a4.882,4.882,0,0,1,3.087-2.761C2112.417,8310.474,2114.066,8311.041,2115.711,8310.88Z" fill="url(#linear-gradient)"/>
        <path id="Trazado_16357" data-name="Trazado 16357" d="M2117.06,8315.459c-6.362,4.207,1.176,9.338-1.933,13.236-3.1,3.181-2.5-5.594-6.121-4.576-1.429.109.356,5.051-3.334,6.793.381-5.126-2.728-11.4,2.42-15.318.708-.049,1.347,1.32,2.272,1.924C2112.179,8317.731,2114.479,8315.231,2117.06,8315.459Z" fill="url(#linear-gradient)"/>
        <path id="Trazado_16358" data-name="Trazado 16358" d="M2109.763,8339.473c-.671,1.262-3.849,1-4.043-.085C2106.374,8338.086,2109.593,8338.15,2109.763,8339.473Z" fill="url(#linear-gradient-15)"/>
        <path id="Trazado_16359" data-name="Trazado 16359" d="M2106.482,8343.57c-1.272,2.074-2.538-.056-3.337-.962C2104.126,8341.234,2106.552,8342.089,2106.482,8343.57Z" fill="url(#linear-gradient-16)"/>
        <path id="Trazado_16360" data-name="Trazado 16360" d="M2103.139,8309.123a2.969,2.969,0,0,1,1.626,2.456c-4.429,4.522-5.583,11.755-9.2,13.4-4.349,2.34-10.128,1.2-13.869-1.6-3.738-2.784-5.538-7.085-1.929-10.974,2.506-2.473,5.9-6.188,9.5-9.482s7.418-6.147,10.89-6.963c4.866-.893,4.174,5.246,2.161,10.639A10.277,10.277,0,0,0,2103.139,8309.123Z" fill="url(#linear-gradient)"/>
        <path id="Trazado_16361" data-name="Trazado 16361" d="M2102.586,8339.983c-2.75,1.571-5.646,2.446-8.27.354a5.228,5.228,0,0,1,3.392-.756C2099.583,8339.268,2102.265,8337.721,2102.586,8339.983Z" fill="url(#linear-gradient-18)"/>
        <path id="Trazado_16362" data-name="Trazado 16362" d="M2092.206,8340.055a57.517,57.517,0,0,1-12.944-.371c-4.359-.732-8.495-2.287-11.6-5.393,6.9-1.376,13.1,0,19.2,3.323C2088.535,8338.539,2091.437,8338.24,2092.206,8340.055Z" fill="url(#linear-gradient)"/>
        <path id="Trazado_16363" data-name="Trazado 16363" d="M2074.722,8321.466c3.729.022,3.3,6.165-.414,6.137S2071,8321.452,2074.722,8321.466Z" fill="url(#linear-gradient-20)"/>
        <path id="Trazado_16364" data-name="Trazado 16364" d="M2069.314,8320.688c3.867,3.941-2.347,7.395-1.651,11.532-10.347-3.445-13.11-15.176-19.484-23.1a40.061,40.061,0,0,0-6.733-7.944,30.136,30.136,0,0,1,14.869,7.478,65.258,65.258,0,0,1,10.755,13.094C2068.072,8322.071,2068.218,8320.534,2069.314,8320.688Z" fill="url(#linear-gradient)"/>
        <path id="Trazado_16365" data-name="Trazado 16365" d="M2001.789,8290.373c1.212.41,5.068,5.436,3.724,8.206a3.449,3.449,0,0,1-3.253,1.571c-2.845-.462-1.932-6.77-.925-9.337A.785.785,0,0,1,2001.789,8290.373Z" fill="url(#linear-gradient-20)"/>
        <path id="Trazado_16366" data-name="Trazado 16366" d="M1920.863,8355.942c-3.6,9.39-7.048,34.921-17.4,27.327-5.518-3.443-.691-15.866,4.137-22.76,1.38-.692,3.455-.692,4.828-2.069,2.074-2.069,4.827-4.141,5.812-7.776C1920.165,8349.694,1920.638,8353.4,1920.863,8355.942Z" fill="url(#linear-gradient)"/>
        <path id="Trazado_16367" data-name="Trazado 16367" d="M1880.494,8123.809c-.333-1.534,2.877-1.547,2.195-.028C1882.149,8124.266,1880.773,8124.33,1880.494,8123.809Z" fill="url(#linear-gradient-24)"/>
        <path id="Trazado_16368" data-name="Trazado 16368" d="M1866.771,8219.084c.012-1.3,2.765-1.644,3.36-.471C1870,8219.871,1867.4,8220.607,1866.771,8219.084Z" fill="url(#linear-gradient-25)"/>
        <path id="Trazado_16369" data-name="Trazado 16369" d="M1813.537,8209.229c1.487-1.289,5.16-.367,7.377-.389-.294,1.176-.189,2.709-1.044,3.381C1817.28,8211.738,1814.842,8211.09,1813.537,8209.229Z" fill="url(#linear-gradient)"/>
        <path id="Trazado_16370" data-name="Trazado 16370" d="M1801.745,8200.969c1.876-2.206,4.133-1.022,3.716,3.25-.4,1.277-2.454,2.975-3.562,1.07A16.541,16.541,0,0,0,1801.745,8200.969Z" fill="url(#linear-gradient-20)"/>
        <path id="Trazado_16371" data-name="Trazado 16371" d="M1804.329,8196.052a1.9,1.9,0,0,1-.846,2.3C1801.5,8198,1802.7,8194.354,1804.329,8196.052Z" fill="url(#linear-gradient-28)"/>
        <path id="Trazado_16372" data-name="Trazado 16372" d="M1785.99,8168.866c-2.558,4.683-9.476,7.449-12.912,4.683-2.754-2.07,2.759-5.523,2.759-8.967.692-1.386-2.752-1.386-4.136-2.763a5.255,5.255,0,0,1-1.377-3.451c.686-4.134,4.825-4.827,7.582-5.518-2.069,2.07.694,2.756,2.074,3.451-2.757,4.83,2.756,6.9,3.594,10.7C1784.271,8167.713,1785.892,8167.809,1785.99,8168.866Z" fill="url(#linear-gradient)"/>
        <path id="Trazado_16373" data-name="Trazado 16373" d="M1771.162,8163.59c-1.532,5.129-5.668,9.272-11.19,7.2,2.756-3.442,2.071-6.2,5.951-8.253C1767.824,8161.3,1771.037,8162.14,1771.162,8163.59Z" fill="url(#linear-gradient)"/>
      </g>
      <path id="Trazado_16374" data-name="Trazado 16374" d="M2560.282,8331.955c-5.542,9.236-4.164,20.963-10.378,29.926-3.1,4.318-6.2,8.368-9.291,12.3-3.37,2.1-6.15,5.571-8.689,9.555-2.541,3.968-4.828,8.455-7.112,12.618-3.19,6.928-9.4,15.205-17.677,13.831,7.593,6.2,2.766,13.106-4.829,15.875-.685.679-.685,3.436-1.378,4.131s-2.067,0-3.449,0c5.519,4.136-.691,9.654,0,14.485.69,1.377,2.757,1.377,4.142,2.071-3.452,7.585,0,18.632,8.965,20.007-13.107,7.588-26.215-4.838-31.045-16.562a31.276,31.276,0,0,1-2.069-11.036,3.407,3.407,0,0,0,2.069-.688c.69-2.763-.688-4.837-3.451-5.522,1.382.686.688,2.074.688,2.76-6.208-8.967-5.513-20.7-8.277-30.348-2.064-8.282,0-16.561-3.527-24.9a41.865,41.865,0,0,0-8.133-16.936,32.521,32.521,0,0,0-10.581-7.638,46.707,46.707,0,0,1-7.932-9.405c-8.683-13.649-9.608-31.276.51-47.375,1.378-1.381,2.073-6.9-2.066-6.9-4.834,0-11.732,2.07-13.8-2.063-8.276-17.937-29.668-17.253-43.64-28.46a75.114,75.114,0,0,1-9.943-7.544,62.959,62.959,0,0,1-15.4-21.261c-.692-1.376-2.074,5.522-.692,7.593,2.067,3.448,6.9,6.9,6.21,11.729-9.657-4.828-10.348-16.561-13.795-25.523,0-.692-3.452-.7-4.14-2.068-3.1-5.868-2.243-11.391.344-16.561,5.863-4.834,7.934-12.419,11.085-19.566a52.813,52.813,0,0,0,1.577-11.194,74.623,74.623,0,0,0-.589-12.013c-.692.691-2.074,2.069-2.074,1.376-2.065-4.831,2.764-11.73-2.756-14.486-8.276-2.76-14.483,0-22.767,2.756a2.2,2.2,0,0,1-2.066-2.07,18.414,18.414,0,0,1-11.816.172,34.09,34.09,0,0,1-10.263-5.69c4.829-5.517,13.782-.758,18.567-6.5-2.013-1.088-6.842.979-6.842-1.781.693-4.828,7.592-2.067,10.354-4.143,14.946-13.217,34.686-13.029,53.221-12.6,3.715.085,7.379.189,10.949.19a35.809,35.809,0,0,1,10.945-1.206,62.154,62.154,0,0,1,10.432,1.457c6.9,1.808,13.792,4.576,21.382,3.885.689,0,2.075-1.385,2.075-2.762-2.075-4.83-6.9-1.375-11.041-3.447,2.757-2.763,5.517-4.834,9.655-4.139,13.111,2.066,23.457,10.348,36.563,8.963-4.827,5.519-6.9,13.8-15.18,7.588,4.144,9.655,15.18-1.378,22.079,3.449a4.794,4.794,0,0,1-2.755,1.387c.685,0,2.071,1.375,2.755.683,4.831-5.519,2.072-6.9-2.755-11.031,2.755-1.385,5.518-3.453,8.967-3.453,4.137.685,0,3.453.691,5.518,2.761-2.756,6.9-8.277,11.033-5.518v2.068c-2.066,1.385-4.827,0-6.894,2.068-2.761,2.76,0,6.212,2.761,8.278,0,.695-1.382,2.07-2.075,2.762a7.564,7.564,0,0,0,8.281-5.517c0-1.383-2.073-.694-2.758-.694-1.381-8.965,9.655-12.412,17.25-11.035,4.827,1.385,11.721,0,13.791,4.832s7.6,5.514,7.6,9.652-4.144,3.455-7.6,2.762c-5.521-.692.691,2.76,0,5.517-1.381,2.76-4.137,2.76-6.209,2.76.688.693,1.379,1.381.688,2.072-5.51,2.76-8.27-5.515-13.1-4.138-1.379,0-2.765,1.379-4.835,0,4.835-3.451,14.492-2.767,13.8-9.659-.689-4.832-8.277-4.832-11.036-2.069-3.448,3.45-6.9,8.277-12.421,9.656-1.374.7-2.068-.695-2.756-1.379,0,3.451,6.208,3.451,4.83,4.83-2.074,3.448-6.9,4.14-11.039,1.38,2.069.688,2.069-2.075,2.759-2.759-4.483,3.1-12.762,3.793-19.4,5.451-6.809.756-13.711,6.277-8.882,13.174,4.137,4.828,10.35,4.135,15.178,7.588-2.071,1.383-3.45,7.6-1.385,6.209a106.069,106.069,0,0,0,18.629-11.723c1.727-3.451,3.108-7.6,5.265-10.779s5.087-5.435,9.918-5.093c2.761,0,3.443,2.757,5.516,3.448-.692,1.379-2.073,2.76-2.073,4.137.7,1.387,2.073,1.387,3.451,1.387a12.329,12.329,0,0,0,4.827-3.459c7.594-3.442,2.07,7.59,5.523,10.359.686,0,2.756,0,3.447.685,3.45,4.135-2.072,7.586-1.376,12.424a5.235,5.235,0,0,1,3.444,1.377,3.122,3.122,0,0,1,0,3.448c-3.444,4.83-8.968,0-13.79.691,2.752-2.762,6.2-6.217,8.961-8.97-5.514,1.378-11.036,2.068-15.865,4.831a2.554,2.554,0,0,0,2.074.685c-4.139,1.384-8.97-2.763-11.733,1.384,1.381,0,2.763-.692,4.138,0,2.762,2.759-2.067,3.453-2.067,4.834,0,5.531,6.9.683,9.662,1.375a19.225,19.225,0,0,1-16.532,6.369,2.01,2.01,0,0,0,2.037-2.232c-5.171,2.588-10.905,5.649-16.642,9.152-2.866,1.752-5.729,3.61-8.527,5.565-9.06,6.552-18.7,14.406-23.823,24.9a35.967,35.967,0,0,0-3.437,11.434,23.213,23.213,0,0,0-9.227-8.375c-10.863-5.467-25.616-2.49-34.923,6.3-3.456,3.455-4.138,7.591-4.833,11.731a8.026,8.026,0,0,0,1.377,6.895c7.6,9.662,14.5-4.136,22.773-3.447,7.585,0-2.07,8.966,0,9.659,8.28,5.521,8.28,10.342,11.036,19.315,1.384,2.068,4.139,3.451,6.214,2.763,3.448,0,6.892,0,8.961,2.756,2.764-5.519,8.973-8.274,14.488-10.349,0,.689-.686,1.381-.686,2.074,9.655,0,19.313,4.14,28.977,2.07,1.378,6.2,6.036,8.278,11.23,9.782,12.914.568,17.74,13.676,28.776,19.188,2.763,1.38,6.217,2.075,8.285,2.762,8.274,2.067,15.865,5.519,24.048,8.6C2558.71,8326.254,2560.068,8330.207,2560.282,8331.955Zm-43.523-192.9c.643,0,1.015-.284.929-1.02A.7.7,0,0,0,2516.759,8139.055ZM2501.441,8126c-.627.191-.627.191-.792.715C2501.223,8126.8,2501.317,8126.385,2501.441,8126Zm-36.019,71.868c-2.344-1.091-4.37-.3-6.324.882C2460.6,8199.4,2464.8,8199.736,2465.422,8197.872Zm-7.583-2.2c2.709-4.5-5.062-3.86-7.989-2.579,1.258,2.015-1.7,4.655.311,6,2.705,1.327,3.7-3.312,5.6-3.693C2456.508,8195.279,2456.845,8195.795,2457.839,8195.672Zm-1.41,93.447c1.178-.187.956-2.943-.479-2.283C2454.86,8287.34,2455.331,8289.289,2456.429,8289.119Zm-1.07-87.738c-2.722.442-6.165-.945-8.215,2.467.687.009,2.066.009,2.907.02A15.52,15.52,0,0,0,2455.359,8201.381Zm-5.888-11.027c3.32-1.787.593-3.921-.089-4.637-4.091-2.9-10.159-.734-14.171,2.871,2.719,1.5,6.066-1.4,9.018,1.886A31.006,31.006,0,0,0,2449.471,8190.354Zm-2.309,2.253c-5.682-1.117-11.58,5.52-10.253,9.011,1.357,4.147,2.223-5.43,7.379-6.923C2445.58,8194.022,2446.86,8194.172,2447.162,8192.607Zm-3.709-58.391c1.349-.19,1.363-.9,1.372-1.6-4.8.635-10.209-6.492-12.7-2.112C2435.312,8133.517,2440.174,8131.333,2443.453,8134.217Zm-14.9,38.35c1.791.256,3.263-4.842.193-4.739C2426.691,8167.9,2426.053,8172.209,2428.55,8172.567Zm-7.846,110.046c.083-.225.231-.37.32-.589C2420.663,8280.539,2419.178,8282.5,2420.7,8282.613Zm-7.858-139.5c1,.5,2.544.067,2.555-.654-2.268-3.96-6.112.408-8.9.917C2408.992,8144.141,2411.275,8143.379,2412.846,8143.113Zm-.745-11.066a14.829,14.829,0,0,0,2.571.145c-2.051-4.168-8.946-4.177-10.068.21C2406.828,8133.162,2409.538,8132.047,2412.1,8132.047Zm-52.577,53.414c.706-.933-.295-2.633-1.34-1.8C2358.079,8184.313,2358.376,8185.828,2359.524,8185.461Zm-3.956-25.6c-.154-.342-.835-.271-1.018-.043A.54.54,0,0,0,2355.568,8159.865Z" fill="url(#linear-gradient)"/>
    </g>
    <g id="Grupo_1955" data-name="Grupo 1955">
      <g id="Grupo_1954" data-name="Grupo 1954">
        <path id="Trazado_16375" data-name="Trazado 16375" d="M2223.461,8413.287a13.759,13.759,0,0,1,2.532-.143c-4.132,4.145-8.966,8.281-14.491,9.666,2.071-6.215,8.285-10.35,7.589-17.254,0-1.374,1.382-.69,2.075,0,.7,1.386-.693,3.451.543,4.92C2222.145,8411.772,2222.086,8412.955,2223.461,8413.287Z" fill="url(#linear-gradient)"/>
        <path id="Trazado_16376" data-name="Trazado 16376" d="M2209.753,8422.26c-7.217,6.064-19.637,17.107-27.917,12.961,7.592-6.2,17.249-7.592,24.636-14.137C2207.363,8420.486,2208.78,8422.089,2209.753,8422.26Z" fill="url(#linear-gradient)"/>
        <path id="Trazado_16377" data-name="Trazado 16377" d="M2182.645,8320.094a3.935,3.935,0,0,0,1,.184c-.012,4.239-4.79,4.655-7.71,1.385C2175.588,8319.445,2181.328,8321.149,2182.645,8320.094Z" fill="url(#linear-gradient)"/>
        <path id="Trazado_16378" data-name="Trazado 16378" d="M2175.753,8330.144c1.947,1.6,4.7,2.29,4.019,5.048-.7.69-2.761,1.376-3.452.69-6.21-6.21-11.723-8.967-20-6.21-2.766,1.381-6.209-2.757-9.662-.688,6.211-10.354-8.276-11.036-14.487-15.871-2.074-2.067-1.38-7.586,2.069-6.9,2.76.691,4.142,4.83,6.2,7.589,9.667-9.659,25.531.692,33.118,9.657,0,.691-.686,1.381-1.355,1.843C2172.137,8327.557,2175.145,8327.575,2175.753,8330.144Z" fill="url(#linear-gradient)"/>
        <path id="Trazado_16379" data-name="Trazado 16379" d="M2181.179,8378.832a43.433,43.433,0,0,1-3.117,10.21,49.2,49.2,0,0,1-5.55,9.454c-8.842,11.821-23.1,19.939-38.273,16.717-1.38-.687-2.757-1.379-3.449-2.752-.694-3.453-2.067-6.9-2.067-10.35-2.074.691-4.142,2.755-6.211,3.445-4.145-12.408-19.32-8.277-28.29-5.522a15.1,15.1,0,0,0-5.514,3.454c-2.763,1.378-6.9,0-9.663,1.378-3.452,1.384-11.036,4.142-11.727-.684,0-1.38,4.143-4.148,2.757-6.2-4.646-11.912,1.167-23.423,11.058-29.895a33.7,33.7,0,0,1,11.03-4.638c8.27-2.731,11.029-12.386,19.31-15.149a6.575,6.575,0,0,1,6.894,1.377c3.451-8.282,20.7-16.556,21.384-7.587,0,5.519,2.075,11.033,8.974,13.1,1.385,0,2.762,0,3.447-.684,5.522-4.833,2.76-13.115,6.9-18.628,5.526,13.795,10.353,28.284,20.053,39.851C2179.836,8376.813,2180.972,8377.985,2181.179,8378.832Z" fill="url(#linear-gradient)"/>
        <path id="Trazado_16380" data-name="Trazado 16380" d="M2157.337,8127.055c3.118,1.172,11.4,2.552,8.637,6-3.451,3.444-13.8-6.9-15.864-.692-.694,2.069,4.137,3.452,6.894,5.526-7.588.683-12.416,6.9-20.694,4.824-.7,0-1.377,1.38-2.071,2.072,8.275,6.209,10.349,12.411,11.038,22.077-12.418-2.761-22.765-16.561-17.937-29.668.688-.695-1.38-2.064-2.072-2.762a9.305,9.305,0,0,0-.687,3.457c-3.449,2.061-4.835-2.759-7.591-3.457-3.448-.684-6.207,4.14-2.76,6.9-8.969,2.761-20.7-6.2-26.9,2.761-2.759,3.448-2.074,8.275.689,9.658,11.037,4.831,28.29,6.9,28.975,22.077-4.828-2.754-5.517-9.656-11.035-12.417,4.132,8.277,8.961,20,.685,26.9-1.379,1.383-4.83,0-5.515,1.383-5.521,4.831-4.829,11.035,2.067,13.782,4.14,3.464,4.14,7.605-1.382,8.988-1.377,0-2.062,0-2.758-1.383-.687-4.144-2.756-7.605-6.9-8.306-.686-.692-.686-2.8-1.389-3.506-4.849-4.279-10.334,2.813-11.06-4.971-2.744,1.454-4.112,4.3-7.556,5.708,3.444,4.861,8.967,2.774,13.8,4.852-5.169,3.115-3.792,6.056-.947,9.24s7.156,6.641,7.847,10.775c2.071,15.871-13.8,17.248-24.836,24.832-1.385.7,2.757,4.145,0,6.214h-2.762c-2.76-2.759,2.762-5.519,0-8.275-3.442-2.07-6.9,0-8.28,2.757-3.449,6.9,5.52,10.348,8.972,15.178.685,2.067,2.07,4.136,1.379,6.209,0,5.522-5.513,8.971-10.351,11.033-2.064-5.511-7.584-10.34-12.414-10.34-4.139.685-2.76,6.9-.692,11.033,2.414,3.107,5.522,6.208,7.761,9.576s3.571,7.025,2.444,11.217c-6.084-3.535-9.683-9.235-12.013-15.7s-3.362-13.709-4.4-20.266c-1.378-4.829-5.518-8.282-8.972-3.452-2.753-6.9-7.581-12.417-11.032-18.626-2.76,2.762-6.9.691-9.662,3.446-5.522,6.9-12.418,12.425-16.554,20.009-2.76,4.832,0,10.356-3.451,14.492a5.248,5.248,0,0,1-2.763,1.382c-12.414-7.593-10.343-24.149-15.862-35.883-.692.7-2.76,2.763-2.76,2.078-8.97-14.486-25.53-10.351-38.633-13.8-1.381-.685-3.451-1.377-3.451-3.45a12.983,12.983,0,0,1-12.157-1.97c-3.537-2.341-6.815-5.272-10.608-5.613-6.9-.69,1.376,8.966,4.827,11.726h2.76c-.686,3.447,2.071,5.521,4.828,3.447,8.277-5.517,17.934-1.377,17.251,6.9,0,13.109-19.319,16.558-30.354,23.46-2.075.685-4.835,2.065-7.592,1.374a16.292,16.292,0,0,1-8.969-7.586c-4.143-9.663-10.35-17.248-14.313-26.9-2.241-3.971-5-7.244-9.14-6.9,1.491,3.1,3.08,6.7,4.821,10.507,1.735,3.787,3.627,7.782,5.708,11.675,5.04,10.784,14.446,22.011,26.114,23.761a22.225,22.225,0,0,0,12.344-1.783,24.033,24.033,0,0,1-2.19,11.831,41.857,41.857,0,0,1-6.953,10.493c-2.76,3.237-5.828,6.364-8.628,9.586a46.1,46.1,0,0,0-7.072,10.167c-1.379,3.446-3.451,6.9-1.379,11.033a20.748,20.748,0,0,1,2.892,10.676c-.137,10.415-8.412,19.851-16.691,26.582-2.067.683.689,4.136-.694,6.2-2.065,5.521-7.587,8.284-11.032,14.492a36.384,36.384,0,0,1-15.49,14.385c-6.237,3.03-13.146,3.9-19.7,1.479-2.761-1.032-4.659-4.137-6.122-7.848-3.535-17.678-18.03-34.917-9.057-54.934,4.832-11.036-9.655-21.385-11.038-33.8,0-2.068,1.383-3.448,1.383-5.52,0-1.38-1.383-2.074-2.078-2.748-6.9-1.388-11.726-6.91-16.55-6.219-22.763,4.137-42.089,0-52.428-20.7-.692-1.379-1.387-4.142-.692-5.519,1.376-6.214.692-13.108,1.376-17.937,2.763-15.18,17.937-24.835,27.6-38.634.689-1.385,1.382-3.452.689-3.452-9.663-3.45-6.9-12.417-6.211-19.312,0-.686,1.38-2.073,2.756-2.073,5.522.692,17.252,3.449,16.561-5.518-.689-4.136-4.828-4.827-7.588-6.9,4.828-.693,8.279-3.453,12.14-5.433a72.419,72.419,0,0,0,10.622-9.053c1.387-.691,4.831,1.378,6.211-1.383.69-2.068-1.38-4.14-.685-6.214a5.671,5.671,0,0,1,4.133-2.762c1.379.695,1.379,2.762,1.379,4.145.7.691,3.448,0,3.448-1.383,0-8.964-8.275-2.762-10.349-5.518-11.036-9.656,13.806-17.243,22.079-24.835,2.075-2.759,6.213-4.136,9.628-4.225,11.767-1.286,25.558-.6,35.907,6.293-2.759,3.455-6.9,1.383-10.349,2.072-.689.689-2.07,2.072-2.07,2.757,1.381,2.076,4.141,2.076,6.9,2.768-.687-.692-.687-1.387-1.376-2.073h3.451c3.447-1.38,4.824-5.524,9.655-4.832,1.379,0-.691-2.76,0-4.134,3.449-4.137,3.449,2.756,4.831,2.066,8.967-4.143,19.313-4.828,28.285-5.513,0-.69-.692-.69-.692-1.385,6.214-2.76,12.414,0,17.94,2.07-1.38-.685-2.766-2.07-4.137-2.759-.694-.688-.694-2.071-.694-3.451a4.419,4.419,0,0,1,5.525-4.136c2.75.692,3.442,2.065,4.133,4.136,19.321-6.9,40.7-13.794,61.4-9.794a49.31,49.31,0,0,1,12.418,4.272c13.106,6.212,28.284,6.212,43.455,8.285,9.665.688,17.943-4.139,27.6-5.524,1.383,0,2.76,1.385,4.137,2.071,10.349.69,20.7,0,31.052,3.453,2.757.688,5.516,0,8.279,0,2.756.688,5.518,1.377,7.587,2.762,0-.69,0-2.762.688-2.762,14.493,3.447,27.6,6.9,40.829,12.72C2155.79,8127.236,2156.42,8126.966,2157.337,8127.055Zm-130.659,34.9c.552-2.09-.167-3.516-1.584-4.967-.655,3.524-1.316,6.331-4.068,9.1a2.772,2.772,0,0,0,2.4-1.019C2024.567,8163.97,2026.3,8163.287,2026.678,8161.953Zm-41.209-56.837c-1.626.346-3.7.346-4.682,2.349C1982.235,8107.348,1985.121,8106.831,1985.469,8105.116Zm-28.24,75.514c-.637-1.151-2.145.335-1.4,1.364C1956.831,8182.065,1957.162,8181.473,1957.229,8180.63Zm-34.665-58.007c.856.045,2.236.057,2.911-.664,2.705-4.279-3.518-7.81-6.272-9.861-.691,3.451,4.13,3.451,4.359,7.281C1923.549,8120.8,1922.09,8120.945,1922.564,8122.623Zm-.474,64.119c2.493-.5-.17-4.751-2.038-4.269C1917.61,8183.1,1920.394,8187.085,1922.09,8186.742Zm-11.125,20.848c1.13-4.17-7.15-7.621-1.63-9.683-3.451-5.524-13.8-12.424-6.211-18.628-5.519-2.068-13.8-1.38-13.1,5.512.685,8.283,8.964,13.116,9.654,21.385a7.122,7.122,0,0,0,6.573,3.091A6.781,6.781,0,0,0,1910.965,8207.59Zm-36.792-11.781c1.325-.074,2.686-.8,2.67-2.23-2.157-5.75-8.306-4.894-12.47-8.4-3.449-2.078.6-4.379-.815-6.521-.731-2.174-4.772-.549-5.426.917-1.309,2.931,2.808,4.256-1.278,5.776-4.79,1.484-5.54-5.557-9.638-5.461-3.428.743-4.8,3.526-6.182,6.291-.682,3.45,1.38,5.519,2.074,8.275,0,.686-1.379,1.38-2.074,1.38.695.694,1.38,1.38,2.074,1.38a18.4,18.4,0,0,1,12.523-4.035,43.952,43.952,0,0,1,13.181,2.813A30.433,30.433,0,0,0,1874.173,8195.809Zm-8.832,18.471c-.155-1.887-.155-5.337-2.23-5.337-6.9-.692-15.175.69-20.855-1.773-4.04-4.315-4.67-14.786-12.945-9.956,4.136,3.449,3.4,10.422.666,9-5.5-3.479-9.46-8.3-13.523-12.963-4.043-4.658-8.185-9.142-14.048-11.9-2.071,9.661,10.348,9.661,14.486,15.18-4.83-1.389-1.382,4.135-4.83,6.2-1.383-9.657-11.727-14.479-20.7-15.866-2.07-.687-3.449,1.387-5.514,2.073-.692,0-2.07-2.073-3.455-1.381-7.587,2.757-8.963,10.35-13.8,16.557-2.763,3.444-8.97.686-11.041,4.828,0,1.375,2.071,2.067,3.451,2.067,12.422-2.067,31.04-15.177,39.325,0a2.205,2.205,0,0,1-2.068,2.074,36.821,36.821,0,0,0,12.672,7.325,123.306,123.306,0,0,0,14.192,3.784,4.493,4.493,0,0,1,4.18-5.586c10.347-.693,29.657,13.1,34.5-.167C1864.318,8216.729,1865.315,8215.584,1865.341,8214.279Zm4.872,133.656c1.115-2.268,2.6-3.729-.111-4.913C1869.364,8344.313,1868.487,8347.346,1870.213,8347.936Zm-2.485-31.617c1.877-.772,1.723-2.9.914-4.331-2.288-2.157-5-.8-6.268,1.33-.584,2.155.344,6.536,4.095,5.362C1867.494,8318.17,1867.309,8317.313,1867.728,8316.318Zm-9.112,16.316c-.787-2.5-.8-5.436-2.868-6.759C1854.625,8328.445,1856.341,8332.5,1858.616,8332.635Zm-25.493-189.9c-5.282-1.609-16.231,4.807-15.542-4.845,0-3.457,4.114-4.891,6.84-7.047-6.157-1.932-13.051,3.59-14.43,8.424-.688,4.138,2.071,6.207-2.069,9.654-.694.686.695,2.074.695,2.758-4.837.69-8.282,4.836-13.116,4.141,6.214,5.524,15.178,2.763,22.08-1.377.692,0-.689-3.448.692-4.836,2.067-.686,3.447,1.388,5.509.679a2.124,2.124,0,0,0,0-2.771c-1.369-.67-3.438.027-4.814.027.685-2.068,3.445-.7,4.42-2.723C1826.9,8143.512,1831.671,8145.82,1833.123,8142.734Z" fill="url(#linear-gradient)"/>
        <path id="Trazado_16381" data-name="Trazado 16381" d="M2146.089,8422.039c-1.963,3.7-6.575,7.8-10.119,5.729-2.132-1.386-.539-4.134,1.766-6.181.763-.693,2.207,0,3.232.467C2142.838,8422.329,2144.644,8421,2146.089,8422.039Z" fill="url(#linear-gradient)"/>
        <path id="Trazado_16382" data-name="Trazado 16382" d="M2133.013,8206.285c3.986,8.869-11.881,8.182-17.4,13.007-.694.686.695,3.45-.694,3.45-2.754,0-4.829-3.45-4.829-4.828,0-2.76,3.455-5.521,6.218-6.9,1.377-.692,4.136.692,5.513,0,5.522-4.139,6.21-8.963,4.142-15.211,4.136.024,6.9,4.17,6.205,8.418A12.881,12.881,0,0,0,2133.013,8206.285Z" fill="url(#linear-gradient)"/>
        <path id="Trazado_16383" data-name="Trazado 16383" d="M2133.616,8190.021c-2.134,3.743-9.035.293-8.348,5.118-4.827-1.375-2.064-7.582-2.756-11.033,2.069,2.072,4.828,1.377,7.142,3.623C2131.737,8188.1,2133.474,8187.906,2133.616,8190.021Z" fill="url(#linear-gradient)"/>
        <path id="Trazado_16384" data-name="Trazado 16384" d="M2126.469,8338.9c.13,1.32-2.222,1.4-2.442.554C2124.1,8338.424,2126.21,8337.889,2126.469,8338.9Z" fill="url(#linear-gradient-10)"/>
        <path id="Trazado_16385" data-name="Trazado 16385" d="M2117.579,8176.34c1.5.938,5.118,3.028,2.673,4.719C2118.721,8180.384,2117.07,8178.19,2117.579,8176.34Z" fill="url(#linear-gradient-11)"/>
        <path id="Trazado_16386" data-name="Trazado 16386" d="M2108.214,8333.836c2.066-2.068,4.356-3.76,7.192-2.537-3.08,2.493-6.272,6.488-10.418,5.738C2105.112,8335.257,2106.909,8334.659,2108.214,8333.836Z" fill="url(#linear-gradient)"/>
        <path id="Trazado_16387" data-name="Trazado 16387" d="M2105.711,8304.88c1.75-.205,3.164-.322,4.578-.429-2.261,4.373-7.826,2-12.092,3.007a4.882,4.882,0,0,1,3.087-2.761C2102.417,8304.474,2104.066,8305.041,2105.711,8304.88Z" fill="url(#linear-gradient)"/>
        <path id="Trazado_16388" data-name="Trazado 16388" d="M2107.06,8309.459c-6.362,4.207,1.176,9.338-1.933,13.236-3.1,3.181-2.5-5.594-6.121-4.576-1.429.109.356,5.051-3.334,6.793.381-5.126-2.728-11.4,2.42-15.318.708-.049,1.347,1.32,2.272,1.924C2102.179,8311.731,2104.479,8309.231,2107.06,8309.459Z" fill="url(#linear-gradient)"/>
        <path id="Trazado_16389" data-name="Trazado 16389" d="M2099.763,8333.473c-.671,1.262-3.849,1-4.043-.085C2096.374,8332.086,2099.593,8332.15,2099.763,8333.473Z" fill="url(#linear-gradient-15)"/>
        <path id="Trazado_16390" data-name="Trazado 16390" d="M2096.482,8337.57c-1.272,2.074-2.538-.056-3.337-.962C2094.126,8335.234,2096.552,8336.089,2096.482,8337.57Z" fill="url(#linear-gradient-16)"/>
        <path id="Trazado_16391" data-name="Trazado 16391" d="M2093.139,8303.123a2.969,2.969,0,0,1,1.626,2.456c-4.429,4.522-5.583,11.755-9.2,13.4-4.349,2.34-10.128,1.2-13.869-1.6-3.738-2.784-5.538-7.085-1.929-10.974,2.506-2.473,5.9-6.188,9.5-9.482s7.418-6.147,10.89-6.963c4.866-.893,4.174,5.246,2.161,10.639A10.277,10.277,0,0,0,2093.139,8303.123Z" fill="url(#linear-gradient)"/>
        <path id="Trazado_16392" data-name="Trazado 16392" d="M2092.586,8333.983c-2.75,1.571-5.646,2.446-8.27.354a5.228,5.228,0,0,1,3.392-.756C2089.583,8333.268,2092.265,8331.721,2092.586,8333.983Z" fill="url(#linear-gradient-18)"/>
        <path id="Trazado_16393" data-name="Trazado 16393" d="M2082.206,8334.055a57.517,57.517,0,0,1-12.944-.371c-4.359-.732-8.495-2.287-11.6-5.393,6.9-1.376,13.1,0,19.2,3.323C2078.535,8332.539,2081.437,8332.24,2082.206,8334.055Z" fill="url(#linear-gradient)"/>
        <path id="Trazado_16394" data-name="Trazado 16394" d="M2064.722,8315.466c3.729.022,3.3,6.165-.414,6.137S2061,8315.452,2064.722,8315.466Z" fill="url(#linear-gradient-20)"/>
        <path id="Trazado_16395" data-name="Trazado 16395" d="M2059.314,8314.688c3.867,3.941-2.347,7.395-1.651,11.532-10.347-3.445-13.11-15.176-19.484-23.1a40.061,40.061,0,0,0-6.733-7.944,30.136,30.136,0,0,1,14.869,7.478,65.258,65.258,0,0,1,10.755,13.094C2058.072,8316.071,2058.218,8314.534,2059.314,8314.688Z" fill="url(#linear-gradient)"/>
        <path id="Trazado_16396" data-name="Trazado 16396" d="M1991.789,8284.373c1.212.41,5.068,5.436,3.724,8.206a3.449,3.449,0,0,1-3.253,1.571c-2.845-.462-1.932-6.77-.925-9.337A.785.785,0,0,1,1991.789,8284.373Z" fill="url(#linear-gradient-20)"/>
        <path id="Trazado_16397" data-name="Trazado 16397" d="M1910.863,8349.942c-3.6,9.39-7.048,34.921-17.4,27.327-5.518-3.443-.691-15.866,4.137-22.76,1.38-.692,3.455-.692,4.828-2.069,2.074-2.069,4.827-4.141,5.812-7.776C1910.165,8343.694,1910.638,8347.4,1910.863,8349.942Z" fill="url(#linear-gradient)"/>
        <path id="Trazado_16398" data-name="Trazado 16398" d="M1870.494,8117.809c-.333-1.534,2.877-1.547,2.195-.028C1872.149,8118.266,1870.773,8118.33,1870.494,8117.809Z" fill="url(#linear-gradient-24)"/>
        <path id="Trazado_16399" data-name="Trazado 16399" d="M1856.771,8213.084c.012-1.3,2.765-1.644,3.36-.471C1860,8213.871,1857.4,8214.607,1856.771,8213.084Z" fill="url(#linear-gradient-25)"/>
        <path id="Trazado_16400" data-name="Trazado 16400" d="M1803.537,8203.229c1.487-1.289,5.16-.367,7.377-.389-.294,1.176-.189,2.709-1.044,3.381C1807.28,8205.738,1804.842,8205.09,1803.537,8203.229Z" fill="url(#linear-gradient)"/>
        <path id="Trazado_16401" data-name="Trazado 16401" d="M1791.745,8194.969c1.876-2.206,4.133-1.022,3.716,3.25-.4,1.277-2.454,2.975-3.562,1.07A16.541,16.541,0,0,0,1791.745,8194.969Z" fill="url(#linear-gradient-20)"/>
        <path id="Trazado_16402" data-name="Trazado 16402" d="M1794.329,8190.052a1.9,1.9,0,0,1-.846,2.3C1791.5,8192,1792.7,8188.354,1794.329,8190.052Z" fill="url(#linear-gradient-28)"/>
        <path id="Trazado_16403" data-name="Trazado 16403" d="M1775.99,8162.866c-2.558,4.683-9.476,7.449-12.912,4.683-2.754-2.07,2.759-5.523,2.759-8.967.692-1.386-2.752-1.386-4.136-2.763a5.255,5.255,0,0,1-1.377-3.451c.686-4.134,4.825-4.827,7.582-5.518-2.069,2.07.694,2.756,2.074,3.451-2.757,4.83,2.756,6.9,3.594,10.7C1774.271,8161.713,1775.892,8161.809,1775.99,8162.866Z" fill="url(#linear-gradient)"/>
        <path id="Trazado_16404" data-name="Trazado 16404" d="M1761.162,8157.59c-1.532,5.129-5.668,9.272-11.19,7.2,2.756-3.442,2.071-6.2,5.951-8.253C1757.824,8155.3,1761.037,8156.14,1761.162,8157.59Z" fill="url(#linear-gradient)"/>
      </g>
      <path id="Trazado_16405" data-name="Trazado 16405" d="M2550.282,8325.955c-5.542,9.236-4.164,20.963-10.378,29.926-3.1,4.318-6.2,8.368-9.291,12.3-3.37,2.1-6.15,5.571-8.689,9.555-2.541,3.968-4.828,8.455-7.112,12.618-3.19,6.928-9.4,15.205-17.677,13.831,7.593,6.2,2.766,13.106-4.829,15.875-.685.679-.685,3.436-1.378,4.131s-2.067,0-3.449,0c5.519,4.136-.691,9.654,0,14.485.69,1.377,2.757,1.377,4.142,2.071-3.452,7.585,0,18.632,8.965,20.007-13.107,7.588-26.215-4.838-31.045-16.562a31.276,31.276,0,0,1-2.069-11.036,3.407,3.407,0,0,0,2.069-.688c.69-2.763-.688-4.837-3.451-5.522,1.382.686.688,2.074.688,2.76-6.208-8.967-5.513-20.7-8.277-30.348-2.064-8.282,0-16.561-3.527-24.9a41.865,41.865,0,0,0-8.133-16.936,32.521,32.521,0,0,0-10.581-7.638,46.707,46.707,0,0,1-7.932-9.405c-8.683-13.649-9.608-31.276.51-47.375,1.378-1.381,2.073-6.9-2.066-6.9-4.834,0-11.732,2.07-13.8-2.063-8.276-17.937-29.668-17.253-43.64-28.46a75.114,75.114,0,0,1-9.943-7.544,62.959,62.959,0,0,1-15.4-21.261c-.692-1.376-2.074,5.522-.692,7.593,2.067,3.448,6.9,6.9,6.21,11.729-9.657-4.828-10.348-16.561-13.795-25.523,0-.692-3.452-.7-4.14-2.068-3.1-5.868-2.243-11.391.344-16.561,5.863-4.834,7.934-12.419,11.085-19.566a52.813,52.813,0,0,0,1.577-11.194,74.623,74.623,0,0,0-.589-12.013c-.692.691-2.074,2.069-2.074,1.376-2.065-4.831,2.764-11.73-2.756-14.486-8.276-2.76-14.483,0-22.767,2.756a2.2,2.2,0,0,1-2.066-2.07,18.414,18.414,0,0,1-11.816.172,34.09,34.09,0,0,1-10.263-5.69c4.829-5.517,13.782-.758,18.567-6.5-2.013-1.088-6.842.979-6.842-1.781.693-4.828,7.592-2.067,10.354-4.143,14.946-13.217,34.686-13.029,53.221-12.6,3.715.085,7.379.189,10.949.19a35.809,35.809,0,0,1,10.945-1.206,62.154,62.154,0,0,1,10.432,1.457c6.9,1.808,13.792,4.576,21.382,3.885.689,0,2.075-1.385,2.075-2.762-2.075-4.83-6.9-1.375-11.041-3.447,2.757-2.763,5.517-4.834,9.655-4.139,13.111,2.066,23.457,10.348,36.563,8.963-4.827,5.519-6.9,13.8-15.18,7.588,4.144,9.655,15.18-1.378,22.079,3.449a4.794,4.794,0,0,1-2.755,1.387c.685,0,2.071,1.375,2.755.683,4.831-5.519,2.072-6.9-2.755-11.031,2.755-1.385,5.518-3.453,8.967-3.453,4.137.685,0,3.453.691,5.518,2.761-2.756,6.9-8.277,11.033-5.518v2.068c-2.066,1.385-4.827,0-6.894,2.068-2.761,2.76,0,6.212,2.761,8.278,0,.695-1.382,2.07-2.075,2.762a7.564,7.564,0,0,0,8.281-5.517c0-1.383-2.073-.694-2.758-.694-1.381-8.965,9.655-12.412,17.25-11.035,4.827,1.385,11.721,0,13.791,4.832s7.6,5.514,7.6,9.652-4.144,3.455-7.6,2.762c-5.521-.692.691,2.76,0,5.517-1.381,2.76-4.137,2.76-6.209,2.76.688.693,1.379,1.381.688,2.072-5.51,2.76-8.27-5.515-13.1-4.138-1.379,0-2.765,1.379-4.835,0,4.835-3.451,14.492-2.767,13.8-9.659-.689-4.832-8.277-4.832-11.036-2.069-3.448,3.45-6.9,8.277-12.421,9.656-1.374.7-2.068-.695-2.756-1.379,0,3.451,6.208,3.451,4.83,4.83-2.074,3.448-6.9,4.14-11.039,1.38,2.069.688,2.069-2.075,2.759-2.759-4.483,3.1-12.762,3.793-19.4,5.451-6.809.756-13.711,6.277-8.882,13.174,4.137,4.828,10.35,4.135,15.178,7.588-2.071,1.383-3.45,7.6-1.385,6.209a106.069,106.069,0,0,0,18.629-11.723c1.727-3.451,3.108-7.6,5.265-10.779s5.087-5.435,9.918-5.093c2.761,0,3.443,2.757,5.516,3.448-.692,1.379-2.073,2.76-2.073,4.137.7,1.387,2.073,1.387,3.451,1.387a12.329,12.329,0,0,0,4.827-3.459c7.594-3.442,2.07,7.59,5.523,10.359.686,0,2.756,0,3.447.685,3.45,4.135-2.072,7.586-1.376,12.424a5.235,5.235,0,0,1,3.444,1.377,3.122,3.122,0,0,1,0,3.448c-3.444,4.83-8.968,0-13.79.691,2.752-2.762,6.2-6.217,8.961-8.97-5.514,1.378-11.036,2.068-15.865,4.831a2.554,2.554,0,0,0,2.074.685c-4.139,1.384-8.97-2.763-11.733,1.384,1.381,0,2.763-.692,4.138,0,2.762,2.759-2.067,3.453-2.067,4.834,0,5.531,6.9.683,9.662,1.375a19.225,19.225,0,0,1-16.532,6.369,2.01,2.01,0,0,0,2.037-2.233c-5.171,2.588-10.905,5.649-16.642,9.152-2.866,1.752-5.729,3.61-8.527,5.565-9.06,6.552-18.7,14.406-23.823,24.9a35.967,35.967,0,0,0-3.437,11.434,23.213,23.213,0,0,0-9.227-8.375c-10.863-5.467-25.616-2.49-34.923,6.3-3.456,3.455-4.138,7.591-4.833,11.731a8.026,8.026,0,0,0,1.377,6.895c7.6,9.662,14.5-4.136,22.773-3.447,7.585,0-2.07,8.966,0,9.659,8.28,5.521,8.28,10.342,11.036,19.315,1.384,2.068,4.139,3.451,6.214,2.763,3.448,0,6.892,0,8.961,2.756,2.764-5.519,8.973-8.274,14.488-10.349,0,.689-.686,1.381-.686,2.074,9.655,0,19.313,4.14,28.977,2.07,1.378,6.2,6.036,8.278,11.23,9.782,12.914.568,17.74,13.676,28.776,19.188,2.763,1.38,6.217,2.075,8.285,2.762,8.274,2.067,15.865,5.519,24.048,8.6C2548.71,8320.254,2550.068,8324.207,2550.282,8325.955Zm-43.523-192.9c.643,0,1.015-.284.929-1.02A.7.7,0,0,0,2506.759,8133.055ZM2491.441,8120c-.627.191-.627.191-.792.715C2491.223,8120.8,2491.317,8120.385,2491.441,8120Zm-36.019,71.868c-2.344-1.091-4.37-.3-6.324.882C2450.6,8193.4,2454.8,8193.736,2455.422,8191.872Zm-7.583-2.2c2.709-4.5-5.062-3.86-7.989-2.579,1.258,2.014-1.7,4.655.311,6,2.705,1.327,3.7-3.312,5.6-3.694C2446.508,8189.279,2446.845,8189.795,2447.839,8189.672Zm-1.41,93.447c1.178-.187.956-2.943-.479-2.283C2444.86,8281.34,2445.331,8283.289,2446.429,8283.119Zm-1.07-87.738c-2.722.442-6.165-.945-8.215,2.467.687.009,2.066.009,2.907.02A15.52,15.52,0,0,0,2445.359,8195.381Zm-5.888-11.027c3.32-1.787.593-3.921-.089-4.637-4.091-2.9-10.159-.734-14.171,2.871,2.719,1.5,6.066-1.4,9.018,1.886A31.006,31.006,0,0,0,2439.471,8184.354Zm-2.309,2.253c-5.682-1.117-11.58,5.52-10.253,9.011,1.357,4.147,2.223-5.43,7.379-6.923C2435.58,8188.022,2436.86,8188.172,2437.162,8186.607Zm-3.709-58.39c1.349-.19,1.363-.9,1.372-1.6-4.8.635-10.209-6.492-12.7-2.112C2425.312,8127.517,2430.174,8125.333,2433.453,8128.217Zm-14.9,38.35c1.791.256,3.263-4.842.193-4.739C2416.691,8161.9,2416.053,8166.209,2418.55,8166.567Zm-7.846,110.046c.083-.225.231-.37.32-.589C2410.663,8274.539,2409.178,8276.5,2410.7,8276.613Zm-7.858-139.5c1,.5,2.544.067,2.555-.654-2.268-3.96-6.112.408-8.9.917C2398.992,8138.141,2401.275,8137.379,2402.846,8137.113Zm-.745-11.066a14.829,14.829,0,0,0,2.571.145c-2.051-4.168-8.946-4.177-10.068.21C2396.828,8127.162,2399.538,8126.047,2402.1,8126.047Zm-52.577,53.414c.706-.933-.295-2.633-1.34-1.8C2348.079,8178.313,2348.376,8179.828,2349.524,8179.461Zm-3.956-25.6c-.154-.342-.835-.271-1.018-.043A.54.54,0,0,0,2345.568,8153.865Z" fill="url(#linear-gradient)"/>
    </g>
    <g id="Grupo_1956" data-name="Grupo 1956" opacity="0.65">
      <circle id="Elipse_141" data-name="Elipse 141" cx="10.337" cy="10.337" r="10.337" transform="translate(2352.498 8309.307)" fill="#fff"/>
      <circle id="Elipse_142" data-name="Elipse 142" cx="10.337" cy="10.337" r="10.337" transform="translate(2383.498 8263.668)" fill="#fff"/>
      <circle id="Elipse_143" data-name="Elipse 143" cx="10.337" cy="10.337" r="10.337" transform="translate(2398.998 8286.918)" fill="#fff"/>
      <circle id="Elipse_144" data-name="Elipse 144" cx="10.337" cy="10.337" r="10.337" transform="matrix(0.16, -0.987, 0.987, 0.16, 2436.225, 8234.331)" fill="#fff"/>
      <circle id="Elipse_145" data-name="Elipse 145" cx="10.337" cy="10.337" r="10.337" transform="translate(2483.456 8173.182)" fill="#fff"/>
      <path id="Trazado_16406" data-name="Trazado 16406" d="M2535.991,8169.741a10.337,10.337,0,1,1-10.338-10.337A10.338,10.338,0,0,1,2535.991,8169.741Z" fill="#fff"/>
      <circle id="Elipse_146" data-name="Elipse 146" cx="10.337" cy="10.337" r="10.337" transform="translate(2563.539 8195.57)" fill="#fff"/>
      <circle id="Elipse_147" data-name="Elipse 147" cx="10.337" cy="10.337" r="10.337" transform="translate(2583.345 8113.766)" fill="#fff"/>
      <path id="Trazado_16407" data-name="Trazado 16407" d="M1791.135,8196.436A10.336,10.336,0,1,1,1780.8,8186.1,10.338,10.338,0,0,1,1791.135,8196.436Z" fill="#fff"/>
      <path id="Trazado_16408" data-name="Trazado 16408" d="M1974.55,8255.852a10.337,10.337,0,1,1-10.336-10.337A10.338,10.338,0,0,1,1974.55,8255.852Z" fill="#fff"/>
      <circle id="Elipse_148" data-name="Elipse 148" cx="10.337" cy="10.337" r="10.337" transform="translate(1960.766 8273.07)" fill="#fff"/>
      <circle id="Elipse_149" data-name="Elipse 149" cx="10.337" cy="10.337" r="10.337" transform="translate(2020.182 8272.21)" fill="#fff"/>
      <path id="Trazado_16409" data-name="Trazado 16409" d="M2064.966,8285.13a10.337,10.337,0,1,1-10.336-10.337A10.337,10.337,0,0,1,2064.966,8285.13Z" fill="#fff"/>
      <circle id="Elipse_150" data-name="Elipse 150" cx="10.337" cy="10.337" r="10.337" transform="translate(2117.487 8307.515)" fill="#fff"/>
      <circle id="Elipse_151" data-name="Elipse 151" cx="10.337" cy="10.337" r="10.337" transform="translate(2148.762 8290.729) rotate(-22.5)" fill="#fff"/>
      <circle id="Elipse_152" data-name="Elipse 152" cx="10.337" cy="10.337" r="10.337" transform="translate(2181.208 8335.069)" fill="#fff"/>
      <circle id="Elipse_153" data-name="Elipse 153" cx="10.337" cy="10.337" r="10.337" transform="translate(2201.875 8420.318)" fill="#fff"/>
      <circle id="Elipse_154" data-name="Elipse 154" cx="10.337" cy="10.337" r="10.337" transform="translate(2017.599 8498.679)" fill="#fff"/>
      <circle id="Elipse_155" data-name="Elipse 155" cx="10.337" cy="10.337" r="10.337" transform="translate(2212.484 8382.005) rotate(-22.5)" fill="#fff"/>
      <circle id="Elipse_156" data-name="Elipse 156" cx="10.337" cy="10.337" r="10.337" transform="translate(2190.681 8245.516)" fill="#fff"/>
      <circle id="Elipse_157" data-name="Elipse 157" cx="10.337" cy="10.337" r="10.337" transform="translate(2212.693 8326.397) rotate(-76.717)" fill="#fff"/>
      <circle id="Elipse_158" data-name="Elipse 158" cx="10.337" cy="10.337" r="10.337" transform="translate(1949.571 8324.736)" fill="#fff"/>
      <circle id="Elipse_159" data-name="Elipse 159" cx="10.337" cy="10.337" r="10.337" transform="translate(1914.751 8326.397) rotate(-76.717)" fill="#fff"/>
      <circle id="Elipse_160" data-name="Elipse 160" cx="10.337" cy="10.337" r="10.337" transform="translate(1877.238 8323.014)" fill="#fff"/>
      <circle id="Elipse_161" data-name="Elipse 161" cx="10.337" cy="10.337" r="10.337" transform="translate(1880.684 8352.291)" fill="#fff"/>
      <path id="Trazado_16410" data-name="Trazado 16410" d="M1899.634,8393.627a10.336,10.336,0,1,1-10.336-10.337A10.337,10.337,0,0,1,1899.634,8393.627Z" fill="#fff"/>
      <circle id="Elipse_162" data-name="Elipse 162" cx="10.337" cy="10.337" r="10.337" transform="translate(1848.822 8381.568)" fill="#fff"/>
      <circle id="Elipse_163" data-name="Elipse 163" cx="10.337" cy="10.337" r="10.337" transform="translate(1824.335 8408.202) rotate(-76.718)" fill="#fff"/>
      <path id="Trazado_16411" data-name="Trazado 16411" d="M1830.747,8397.072a10.337,10.337,0,1,1-10.337-10.337A10.337,10.337,0,0,1,1830.747,8397.072Z" fill="#fff"/>
      <path id="Trazado_16412" data-name="Trazado 16412" d="M1785.968,8298.046a10.336,10.336,0,1,1-10.336-10.337A10.337,10.337,0,0,1,1785.968,8298.046Z" fill="#fff"/>
      <circle id="Elipse_164" data-name="Elipse 164" cx="10.337" cy="10.337" r="10.337" transform="translate(1708.462 8332.486)" fill="#fff"/>
      <circle id="Elipse_165" data-name="Elipse 165" cx="10.337" cy="10.337" r="10.337" transform="translate(1847.962 8421.179)" fill="#fff"/>
      <circle id="Elipse_166" data-name="Elipse 166" cx="10.337" cy="10.337" r="10.337" transform="translate(1885.85 8417.734)" fill="#fff"/>
      <circle id="Elipse_167" data-name="Elipse 167" cx="10.337" cy="10.337" r="10.337" transform="translate(1937.516 8398.79)" fill="#fff"/>
      <circle id="Elipse_168" data-name="Elipse 168" cx="10.337" cy="10.337" r="10.337" transform="translate(1773.045 8137.876)" fill="#fff"/>
      <path id="Trazado_16413" data-name="Trazado 16413" d="M2405.033,8231.811a10.337,10.337,0,1,1-10.338-10.337A10.339,10.339,0,0,1,2405.033,8231.811Z" fill="#fff"/>
      <circle id="Elipse_169" data-name="Elipse 169" cx="10.337" cy="10.337" r="10.337" transform="translate(2331.855 8233.533) rotate(-45)" fill="#fff"/>
      <circle id="Elipse_170" data-name="Elipse 170" cx="10.337" cy="10.337" r="10.337" transform="matrix(0.16, -0.987, 0.987, 0.16, 2326.004, 8195.581)" fill="#fff"/>
      <circle id="Elipse_171" data-name="Elipse 171" cx="10.337" cy="10.337" r="10.337" transform="translate(2401.781 8256.719) rotate(-80.783)" fill="#fff"/>
      <circle id="Elipse_172" data-name="Elipse 172" cx="10.337" cy="10.337" r="10.337" transform="translate(2363.832 8341.21)" fill="#fff"/>
      <circle id="Elipse_173" data-name="Elipse 173" cx="10.337" cy="10.337" r="10.337" transform="translate(2417.496 8367.479) rotate(-22.5)" fill="#fff"/>
      <circle id="Elipse_174" data-name="Elipse 174" cx="10.337" cy="10.337" r="10.337" transform="translate(2431.813 8408.267) rotate(-45)" fill="#fff"/>
      <circle id="Elipse_175" data-name="Elipse 175" cx="10.337" cy="10.337" r="10.337" transform="translate(2496.373 8414.291)" fill="#fff"/>
      <circle id="Elipse_176" data-name="Elipse 176" cx="10.337" cy="10.337" r="10.337" transform="matrix(0.16, -0.987, 0.987, 0.16, 2543.073, 8359.981)" fill="#fff"/>
      <circle id="Elipse_177" data-name="Elipse 177" cx="10.337" cy="10.337" r="10.337" transform="translate(2336.276 8364.46)" fill="#fff"/>
    </g>
  </g>
</svg>
