<svg xmlns="http://www.w3.org/2000/svg" width="270.379" height="390.896" viewBox="0 0 270.379 390.896">
  <path id="Trazado_17356" data-name="Trazado 17356" d="M2121.149,10951.147c-4.6-2.789-8.392,2.263-13.02,1.418a11.235,11.235,0,0,1-2.527-2.1,1.68,1.68,0,0,0-2.523.842c.42-7.572,4.63-15.57.42-22.732,0,.845-.42,1.266-1.262.845,3.365-2.526,2.524-7.151,1.682-10.939,0-.421-2.1.419-2.1.843-4.633,8.838-15.995,13.886-24.413,8.838-4.84-2.947-9.577-6.208-14.521-8.476a26.341,26.341,0,0,0-15.783-2.47c5.47-3.792,4.21-11.359,0-15.579-8.841-7.147-17.679-15.566-20.2-26.088-.42-.847,2.946-1.255,5.055-1.255-3.79-2.115-3.369-6.321-1.265-9.268,3.366-4.215,11.366-1.682,10.1-9.257a42.28,42.28,0,0,1,4.21-24.838,48.612,48.612,0,0,1,13.763-11.156c10.135-5.586,22.013-7.919,34.638-9.886,2.106-.424,3.787-2.525,5.894-2.94,4.629-.854,8,3.788,12.628,3.362-1.686-6.742-8.419-10.531-15.155-9.687.42-2.525,2.1-4.629,2.933-6.7,1.256-2.172,2.673-4.264,3.958-6.294,2.58-4.045,4.684-7.837,4.055-11.415-.844-5.893-11.367-10.529-19.362-11.785-2.1-.424-4.631,3.365-7.576,2.531-3.788-1.687-7.156-8.006-10.524-4.637-5.052,5.471-14.311,5.9-21.888,4.637-2.1,0-4.209-1.687-5.469-3.792-.84-2.113,0-5.893-1.261-6.741-4.211-2.936-6.734-7.15-9.65-11.166-1.994-2.922-4.154-5.958-6.454-8.882-9.2-11.651-20.517-21.194-34.825-16.145,6.735,3.782,11.364,13.47,5.893,18.108-3.79,3.356-6.313,12.614-12.279,16.6a81.007,81.007,0,0,1-6.735,6.908,79.779,79.779,0,0,1-24.488,15.205q-4.08,1.605-8.271,2.949c-9.259,2.938-15.993,10.935-17.99,20.726-1.476,4.317-3.053,8.729-5.579,11.677-3.366,3.367-4.63,11.781-9.259,9.258-8.421-4.621-17.257-14.307-26.937-7.152,0-2.105.421-4.629,2.946-5.476-.84-.415-1.684.847-2.525.847a2.67,2.67,0,0,1-.421-3.794c2.527-2.938,7.995-5.888,5.89-8.833-7.152-7.153-17.254,3.788-21.042,10.938a45.709,45.709,0,0,0-4.208,10.528,4.289,4.289,0,0,0,.841,3.783c1.261,1.683,3.786,1.683,3.367,3.793-.842,5.9,3.367,10.1,5.051,15.144a4.056,4.056,0,0,1-1.263,4.221c-1.265.838-3.369.42-5.051.42a19.189,19.189,0,0,0,7.575,7.992c3.157,2,6.736,3.578,10.1,5.475,2.948,2.1,5.894,3.781,7.954,6.238a63.713,63.713,0,0,1,5.911,5.406,47.465,47.465,0,0,1,5.139,6.3,53.732,53.732,0,0,1,4.989,8.571c1.682,3.784,5.891,6.317,7.658,11.024a19.363,19.363,0,0,0,4.474,4.58,6.638,6.638,0,0,1,0,3.783c1.281,2.629,2.9,5.037,4.206,7.58s2.92,4.936,4.21,7.579c2.183,4.481,2.791,9.87,5.05,14.306a118.361,118.361,0,0,0,6.255,10.414,92.873,92.873,0,0,1,6.448,13.969c1.681,5.056,8,8.422,9.259,15.15,1.681,8,8.837,13.471,14.308,20.622,3.788,5.47,6.736,11.372,4.634,18.1-.424-.421-1.267-.421-1.686-.843,2.526,10.1,10.944,17.684,18.516,24.418a77.343,77.343,0,0,0,6,7.055,95.185,95.185,0,0,0,21.487,16.354c2.191,1.211,4.4,2.372,6.611,3.529,13.471,6.738,26.1,13.882,39.565,21.468,3.366,1.679,7.155,2.515,10.516,4.628,2.111,1.682,1.268,5.471,3.371,6.729,8.84,5.473,22.729,21.044,29.462,8.419,5.051-10.1,6.315-21.888,13.137-31.361a38.387,38.387,0,0,1,5.431-5.791,33.964,33.964,0,0,1,6.689-4.516c-5.47-1.26-9.681-6.31-10.509-11.923a28.32,28.32,0,0,1,.458-8.435c1.629-8.9,6.054-18.785,6.681-26.359.423-2.949-1.68-5.05-4.207-6.312,4.63-4.211-.42-10.53,1.472-15.479a39.27,39.27,0,0,1,3.578-8.1c2.1-2.947-3.369-8.836-5.449-13.359-1-2.093-1.934-4.216-2.771-6.388a62.458,62.458,0,0,1-2.177-6.7C2122.321,10957.212,2121.727,10954.19,2121.149,10951.147Z" transform="translate(-1865.53 -10718.85)" fill="#fe7481" fill-rule="evenodd"/>
</svg>
