<svg xmlns="http://www.w3.org/2000/svg" viewBox="0 0 182 53.08"><defs><style>.cls-1{fill:#42acd9;}</style></defs><g id="Capa_2" data-name="Capa 2"><g id="Layer_1" data-name="Layer 1"><path class="cls-1" d="M33,30.83a12.18,12.18,0,0,1,3.07-.76l1.07,1.46-7,5.83-6.53-7.9q-2.39-2.88-4.21-1.37A5.42,5.42,0,0,0,18,30l6.63,8a12.47,12.47,0,0,1,2.49-.48L28.15,39l-6.56,5.42-6.53-7.9q-2.38-2.86-4.21-1.37A6,6,0,0,0,9.5,37l6.65,8a11.84,11.84,0,0,1,2.4-.46L19.65,46l-8.58,7.09-.88-.95a15.44,15.44,0,0,1,1.33-2.68L3.71,40,1.27,41.35,0,40.1a22.32,22.32,0,0,1,4.77-5.72l2.82.27.66.8a18.77,18.77,0,0,1,2.3-5.7,5.93,5.93,0,0,1,5.66-1.22l.48.23a19.13,19.13,0,0,1,2.35-6,6,6,0,0,1,5.67-1.22,8.89,8.89,0,0,1,2.48,2.31Z"/><path class="cls-1" d="M60.83,19.77l-3.49,4.37a3.94,3.94,0,0,1-2.22.06,5.87,5.87,0,0,1-2.3-1.15l-2.67,3.84L49,27.46a5.88,5.88,0,0,1-4.25.21A4.4,4.4,0,0,1,42,25.12Q41,22.54,43.14,20l6.46-2.78-1.14-2.81c-.71-1.76-1.7-2.7-3-2.83a6.71,6.71,0,0,0-1.75,1.19l.71,4.11L41.1,18.26a12.64,12.64,0,0,1-2.23-3.65l-.45-1.3A34.32,34.32,0,0,1,42.64,10a23.83,23.83,0,0,1,4-2.26,6.11,6.11,0,0,1,5.85.54,6.69,6.69,0,0,1,1.47,2.44l3.18,7.86a.84.84,0,0,0,1.22.54l.91-.41.8-.4ZM47.72,22.36A2.13,2.13,0,0,0,48.9,23.6a14,14,0,0,0,2.58-1.8l-1-2.54C48.15,20.14,47.23,21.18,47.72,22.36Z"/><path class="cls-1" d="M78.94,18.78a13.73,13.73,0,0,1-2.64.1L76.86,23a35.14,35.14,0,0,1,3.69,1.1l.17,1.81L68.63,27.5l-.25-1.27L70.67,25,68,5.15,65.23,5,64.8,3.27A22.2,22.2,0,0,1,71.88.92V1l2.18,1.46.19,1.36L77.71.39,78.94.11A6.07,6.07,0,0,1,84.2,1.88,9.71,9.71,0,0,1,87,7.72a9.89,9.89,0,0,1-1.65,7.39A8.94,8.94,0,0,1,78.94,18.78ZM76.2,5a4.35,4.35,0,0,0-1.69.68l1.36,10.05a9.69,9.69,0,0,0,3.2-.1A6.3,6.3,0,0,0,80.22,13a9.34,9.34,0,0,0,.13-3.29,6.94,6.94,0,0,0-1.41-3.52A2.87,2.87,0,0,0,76.2,5Z"/><path class="cls-1" d="M114.86,17.39l-5.16,2.18a3.75,3.75,0,0,1-2-1,5.71,5.71,0,0,1-1.48-2.1l-4.18,2.11-1.26,0A5.91,5.91,0,0,1,97,16.71a4.36,4.36,0,0,1-1.22-3.56c.2-1.84,1.35-3.17,3.46-4l7,.63.33-3c.21-1.89-.21-3.19-1.28-3.9a6.29,6.29,0,0,0-2.1.21l-1.33,4-3.62-.32A12.68,12.68,0,0,1,98,2.42l.22-1.36a33.92,33.92,0,0,1,5.28-.88A23.51,23.51,0,0,1,108,.07a6.07,6.07,0,0,1,4.89,3.26,6.59,6.59,0,0,1,.13,2.84l-.93,8.42a.84.84,0,0,0,.81,1.06l1,.07.89,0Zm-12.78-4a2.15,2.15,0,0,0,.45,1.65,13,13,0,0,0,3.13-.36L106,12C103.52,11.69,102.22,12.17,102.08,13.44Z"/><path class="cls-1" d="M156,35.18l-5.63,0a3.86,3.86,0,0,1-1.49-1.87,5.63,5.63,0,0,1-.4-2.82l-5.22.65a7.44,7.44,0,0,1-3.86-5.19,9.73,9.73,0,0,1,1.27-7,9.41,9.41,0,0,1,13.36-3.6l1.71,1.18,2.65-4.66-2.14-1.77.75-1.7a26.67,26.67,0,0,1,7.05,2.43l.82,2.59L154.64,31.49a.86.86,0,0,0,.32,1.33l.85.44.84.39Zm-9.21-13.53a6.71,6.71,0,0,0-1,3.75A3,3,0,0,0,147.42,28a4.49,4.49,0,0,0,1.53.53l5-8.72a7.29,7.29,0,0,0-2.45-2.12A7.55,7.55,0,0,0,146.83,21.65Z"/><path class="cls-1" d="M176.67,45.07l-6.75-6.43a5.54,5.54,0,0,0-1.28,3.88,5.35,5.35,0,0,0,1.8,3.46,10.88,10.88,0,0,0,4.39,2.19l-.77,2.17-6.49-1.57-1.31-1.09a9.49,9.49,0,0,1-3.21-6.56,8.74,8.74,0,0,1,2.55-6.69,9.72,9.72,0,0,1,6.78-3.2,8.92,8.92,0,0,1,6.83,2.48A8.09,8.09,0,0,1,182,39.29,7.42,7.42,0,0,1,179.7,45Zm-.29-9.81A5.54,5.54,0,0,0,172,36.69l4.28,3.55a5.23,5.23,0,0,0,1-2.67A2.91,2.91,0,0,0,176.38,35.26Z"/></g></g></svg>