<svg xmlns="http://www.w3.org/2000/svg" xmlns:xlink="http://www.w3.org/1999/xlink" viewBox="0 0 415.86 182.89"><defs><style>.cls-1,.cls-32{opacity:0.6;}.cls-2{fill:url(#Degradado_sin_nombre_32);}.cls-3{fill:url(#Degradado_sin_nombre_32-2);}.cls-4{fill:url(#Degradado_sin_nombre_32-3);}.cls-5{fill:url(#Degradado_sin_nombre_32-4);}.cls-6{fill:url(#Degradado_sin_nombre_32-5);}.cls-7{fill:url(#Degradado_sin_nombre_32-6);}.cls-8{fill:url(#Degradado_sin_nombre_32-7);}.cls-9{fill:url(#Degradado_sin_nombre_32-8);}.cls-10{fill:url(#Degradado_sin_nombre_32-9);}.cls-11{fill:url(#Degradado_sin_nombre_32-10);}.cls-12{fill:url(#Degradado_sin_nombre_32-11);}.cls-13{fill:url(#Degradado_sin_nombre_32-12);}.cls-14{fill:url(#Degradado_sin_nombre_32-13);}.cls-15{fill:url(#Degradado_sin_nombre_32-14);}.cls-16{fill:url(#Degradado_sin_nombre_32-15);}.cls-17{fill:url(#Degradado_sin_nombre_32-16);}.cls-18{fill:url(#Degradado_sin_nombre_32-17);}.cls-19{fill:url(#Degradado_sin_nombre_32-18);}.cls-20{fill:url(#Degradado_sin_nombre_32-19);}.cls-21{fill:url(#Degradado_sin_nombre_32-20);}.cls-22{fill:url(#Degradado_sin_nombre_32-21);}.cls-23{fill:url(#Degradado_sin_nombre_32-22);}.cls-24{fill:url(#Degradado_sin_nombre_32-23);}.cls-25{fill:url(#Degradado_sin_nombre_32-24);}.cls-26{fill:url(#Degradado_sin_nombre_32-25);}.cls-27{fill:url(#Degradado_sin_nombre_32-26);}.cls-28{fill:url(#Degradado_sin_nombre_32-27);}.cls-29{fill:url(#Degradado_sin_nombre_32-28);}.cls-30{fill:url(#Degradado_sin_nombre_32-29);}.cls-31{fill:url(#Degradado_sin_nombre_32-30);}.cls-32{isolation:isolate;fill:url(#Degradado_sin_nombre_32-31);}</style><linearGradient id="Degradado_sin_nombre_32" x1="-136.86" y1="497.22" x2="-135.86" y2="497.22" gradientTransform="matrix(7.31, 0, 0, -9.1, 1245.49, 4684.61)" gradientUnits="userSpaceOnUse"><stop offset="0" stop-color="#ffd9a4"/><stop offset="0.48" stop-color="#ffbdc0"/><stop offset="1" stop-color="#ff9792"/></linearGradient><linearGradient id="Degradado_sin_nombre_32-2" x1="-114.36" y1="495.95" x2="-113.36" y2="495.95" gradientTransform="matrix(14.09, 0, 0, -7.66, 1840.93, 3964.64)" xlink:href="#Degradado_sin_nombre_32"/><linearGradient id="Degradado_sin_nombre_32-3" x1="-177.74" y1="471.54" x2="-176.74" y2="471.54" gradientTransform="matrix(3.9, 0, 0, -1.88, 920.39, 1000.13)" xlink:href="#Degradado_sin_nombre_32"/><linearGradient id="Degradado_sin_nombre_32-4" x1="-103.95" y1="499.89" x2="-102.95" y2="499.89" gradientTransform="matrix(24.67, 0, 0, -15.15, 2768.63, 7682.73)" xlink:href="#Degradado_sin_nombre_32"/><linearGradient id="Degradado_sin_nombre_32-5" x1="-96.04" y1="502.41" x2="-95.04" y2="502.41" gradientTransform="matrix(57.46, 0, 0, -40.39, 5690.46, 20430.83)" xlink:href="#Degradado_sin_nombre_32"/><linearGradient id="Degradado_sin_nombre_32-6" x1="-91.62" y1="503.52" x2="-90.62" y2="503.52" gradientTransform="matrix(222.18, 0, 0, -154.56, 20357.31, 77901.92)" xlink:href="#Degradado_sin_nombre_32"/><linearGradient id="Degradado_sin_nombre_32-7" x1="-151.01" y1="486.72" x2="-150.01" y2="486.72" gradientTransform="matrix(5.61, 0, 0, -3.55, 1053.9, 1889.84)" xlink:href="#Degradado_sin_nombre_32"/><linearGradient id="Degradado_sin_nombre_32-8" x1="-118.86" y1="499.43" x2="-117.86" y2="499.43" gradientTransform="matrix(11.89, 0, 0, -13.59, 1606.54, 6844.05)" xlink:href="#Degradado_sin_nombre_32"/><linearGradient id="Degradado_sin_nombre_32-9" x1="-150.2" y1="492.97" x2="-149.2" y2="492.97" gradientTransform="matrix(5.69, 0, 0, -5.57, 1054.34, 2790.7)" xlink:href="#Degradado_sin_nombre_32"/><linearGradient id="Degradado_sin_nombre_32-10" x1="-366.16" y1="430.42" x2="-365.16" y2="430.42" gradientTransform="matrix(1.24, 0, 0, -0.83, 654.33, 477.57)" xlink:href="#Degradado_sin_nombre_32"/><linearGradient id="Degradado_sin_nombre_32-11" x1="-281.98" y1="478.29" x2="-280.98" y2="478.29" gradientTransform="matrix(1.78, 0, 0, -2.38, 700.01, 1177.69)" xlink:href="#Degradado_sin_nombre_32"/><linearGradient id="Degradado_sin_nombre_32-12" x1="-155.15" y1="484.58" x2="-154.15" y2="484.58" gradientTransform="matrix(5.26, 0, 0, -3.15, 1006.61, 1646.08)" xlink:href="#Degradado_sin_nombre_32"/><linearGradient id="Degradado_sin_nombre_32-13" x1="-146.15" y1="463.76" x2="-145.15" y2="463.76" gradientTransform="matrix(6.1, 0, 0, -1.52, 1079.21, 808.05)" xlink:href="#Degradado_sin_nombre_32"/><linearGradient id="Degradado_sin_nombre_32-14" x1="-146.66" y1="496.1" x2="-145.66" y2="496.1" gradientTransform="matrix(6.04, 0, 0, -7.81, 1072.69, 3981.99)" xlink:href="#Degradado_sin_nombre_32"/><linearGradient id="Degradado_sin_nombre_32-15" x1="-257.82" y1="439.15" x2="-256.82" y2="439.15" gradientTransform="matrix(2.04, 0, 0, -0.94, 712.13, 531.02)" xlink:href="#Degradado_sin_nombre_32"/><linearGradient id="Degradado_sin_nombre_32-16" x1="-293.04" y1="456.14" x2="-292.04" y2="456.14" gradientTransform="matrix(1.69, 0, 0, -1.28, 678.95, 701.75)" xlink:href="#Degradado_sin_nombre_32"/><linearGradient id="Degradado_sin_nombre_32-17" x1="-115.22" y1="499.93" x2="-114.22" y2="499.93" gradientTransform="matrix(13.61, 0, 0, -15.3, 1740.26, 7753.04)" xlink:href="#Degradado_sin_nombre_32"/><linearGradient id="Degradado_sin_nombre_32-18" x1="-172" y1="460.78" x2="-171" y2="460.78" gradientTransform="matrix(4.18, 0, 0, -1.41, 898.8, 769.34)" xlink:href="#Degradado_sin_nombre_32"/><linearGradient id="Degradado_sin_nombre_32-19" x1="-117.69" y1="485.24" x2="-116.69" y2="485.24" gradientTransform="matrix(12.39, 0, 0, -3.27, 1625.11, 1701.41)" xlink:href="#Degradado_sin_nombre_32"/><linearGradient id="Degradado_sin_nombre_32-20" x1="-211.19" y1="484.24" x2="-210.19" y2="484.24" gradientTransform="matrix(2.82, 0, 0, -3.1, 765.7, 1611.1)" xlink:href="#Degradado_sin_nombre_32"/><linearGradient id="Degradado_sin_nombre_32-21" x1="-113.33" y1="500.02" x2="-112.33" y2="500.02" gradientTransform="matrix(14.71, 0, 0, -15.67, 1821.33, 7940.36)" xlink:href="#Degradado_sin_nombre_32"/><linearGradient id="Degradado_sin_nombre_32-22" x1="-214.66" y1="491.57" x2="-213.66" y2="491.57" gradientTransform="matrix(2.75, 0, 0, -4.94, 722.58, 2523.71)" xlink:href="#Degradado_sin_nombre_32"/><linearGradient id="Degradado_sin_nombre_32-23" x1="-124.22" y1="500.38" x2="-123.22" y2="500.38" gradientTransform="matrix(10.02, 0, 0, -17.24, 1327.7, 8757.75)" xlink:href="#Degradado_sin_nombre_32"/><linearGradient id="Degradado_sin_nombre_32-24" x1="-382.84" y1="424.31" x2="-381.84" y2="424.31" gradientTransform="matrix(1.17, 0, 0, -0.77, 520, 333.56)" xlink:href="#Degradado_sin_nombre_32"/><linearGradient id="Degradado_sin_nombre_32-25" x1="-291.27" y1="444.72" x2="-290.27" y2="444.72" gradientTransform="matrix(1.7, 0, 0, -1.03, 561, 514.92)" xlink:href="#Degradado_sin_nombre_32"/><linearGradient id="Degradado_sin_nombre_32-26" x1="-182.02" y1="471.05" x2="-181.02" y2="471.05" gradientTransform="matrix(3.72, 0, 0, -1.86, 716.11, 926.47)" xlink:href="#Degradado_sin_nombre_32"/><linearGradient id="Degradado_sin_nombre_32-27" x1="-270.04" y1="484.61" x2="-269.04" y2="484.61" gradientTransform="matrix(1.9, 0, 0, -3.16, 546.25, 1580.08)" xlink:href="#Degradado_sin_nombre_32"/><linearGradient id="Degradado_sin_nombre_32-28" x1="-429.52" y1="460.01" x2="-428.52" y2="460.01" gradientTransform="matrix(1.01, 0, 0, -1.39, 466.16, 684.65)" xlink:href="#Degradado_sin_nombre_32"/><linearGradient id="Degradado_sin_nombre_32-29" x1="-133.34" y1="498.37" x2="-132.34" y2="498.37" gradientTransform="matrix(7.91, 0, 0, -11, 1071.47, 5511.33)" xlink:href="#Degradado_sin_nombre_32"/><linearGradient id="Degradado_sin_nombre_32-30" x1="-150.66" y1="491.06" x2="-149.66" y2="491.06" gradientTransform="matrix(5.65, 0, 0, -4.74, 862.58, 2359.8)" xlink:href="#Degradado_sin_nombre_32"/><linearGradient id="Degradado_sin_nombre_32-31" x1="-92.71" y1="503.57" x2="-91.71" y2="503.57" gradientTransform="matrix(130.22, 0, 0, -178.11, 12358.65, 89786.56)" xlink:href="#Degradado_sin_nombre_32"/></defs><g id="Capa_2" data-name="Capa 2"><g id="mapa"><g id="Grupo_637" data-name="Grupo 637" class="cls-1"><path id="Trazado_2388" data-name="Trazado 2388" class="cls-2" d="M250.92,157.76a6.77,6.77,0,0,1,1.27-.07c-2.08,2.09-4.52,4.17-7.31,4.87,1.05-3.13,4.18-5.22,3.83-8.7,0-.7.7-.35,1,0,.35.7-.35,1.74.27,2.48C250.25,157,250.22,157.59,250.92,157.76Z"/><path id="Trazado_2389" data-name="Trazado 2389" class="cls-3" d="M244,162.29c-3.64,3.06-9.91,8.63-14.09,6.54,3.83-3.13,8.71-3.83,12.43-7.14C242.79,161.39,243.51,162.2,244,162.29Z"/><path id="Trazado_2390" data-name="Trazado 2390" class="cls-4" d="M230.32,110.73a2.1,2.1,0,0,0,.5.09c0,2.14-2.42,2.35-3.89.7C226.76,110.4,229.65,111.26,230.32,110.73Z"/><path id="Trazado_2391" data-name="Trazado 2391" class="cls-5" d="M226.84,115.8c1,.8,2.37,1.15,2,2.54-.35.35-1.39.7-1.74.35-3.14-3.13-5.92-4.52-10.1-3.13-1.4.7-3.14-1.39-4.88-.35,3.14-5.22-4.18-5.57-7.31-8-1-1-.7-3.83,1-3.48,1.39.35,2.08,2.44,3.13,3.83,4.87-4.87,12.88.35,16.71,4.88,0,.34-.35.7-.68.93C225,114.49,226.53,114.5,226.84,115.8Z"/><path id="Trazado_2392" data-name="Trazado 2392" class="cls-6" d="M229.58,140.37a21.92,21.92,0,0,1-1.57,5.15,24.55,24.55,0,0,1-2.8,4.77c-4.47,6-11.66,10.07-19.32,8.44a3.46,3.46,0,0,1-1.74-1.39,27.57,27.57,0,0,1-1-5.22c-1.05.35-2.09,1.39-3.14,1.74-2.09-6.27-9.75-4.18-14.27-2.79a7.54,7.54,0,0,0-2.79,1.75c-1.4.7-3.48,0-4.87.7-1.74.7-5.57,2.08-5.92-.35,0-.7,2.09-2.09,1.39-3.13-2.35-6,.59-11.82,5.58-15.09a17.11,17.11,0,0,1,5.57-2.34c4.17-1.38,5.56-6.25,9.74-7.64a3.31,3.31,0,0,1,3.48.7c1.74-4.18,10.45-8.36,10.79-3.83,0,2.78,1.05,5.57,4.53,6.61a2.59,2.59,0,0,0,1.74-.35c2.79-2.43,1.39-6.61,3.48-9.4,2.79,7,5.23,14.28,10.12,20.12A7.38,7.38,0,0,1,229.58,140.37Z"/><path id="Trazado_2393" data-name="Trazado 2393" class="cls-7" d="M217.55,13.3c1.57.59,5.75,1.29,4.35,3-1.74,1.74-7-3.48-8-.35-.35,1.05,2.08,1.74,3.48,2.79-3.83.35-6.27,3.48-10.45,2.44-.35,0-.7.7-1,1,4.18,3.13,5.22,6.27,5.57,11.14C205.19,32,200,25,202.41,18.42c.34-.35-.7-1-1-1.39a4.91,4.91,0,0,0-.35,1.74c-1.74,1-2.43-1.39-3.83-1.74A1.93,1.93,0,0,0,195,18.69a2,2,0,0,0,.78,1.82c-4.52,1.39-10.44-3.13-13.58,1.39-1.39,1.74-1,4.18.35,4.88,5.57,2.43,14.27,3.48,14.62,11.14-2.43-1.39-2.78-4.88-5.57-6.27,2.09,4.18,4.53,10.1.35,13.58-.69.7-2.44,0-2.78.7-2.79,2.43-2.44,5.57,1,7,2.09,1.75,2.09,3.84-.7,4.54-.7,0-1,0-1.39-.7-.35-2.09-1.4-3.84-3.48-4.19-.35-.36-.35-1.42-.7-1.78-2.45-2.15-5.22,1.43-5.59-2.5-1.38.73-2.07,2.17-3.81,2.88,1.74,2.45,4.52,1.4,7,2.45-2.61,1.57-1.91,3.05-.48,4.66s3.62,3.35,4,5.44c1,8-7,8.7-12.53,12.53-.7.35,1.39,2.09,0,3.14h-1.39c-1.4-1.4,1.39-2.79,0-4.18a3,3,0,0,0-4,1.07,3.18,3.18,0,0,0-.16.32c-1.74,3.48,2.78,5.22,4.52,7.66.35,1,1.05,2.09.7,3.14,0,2.78-2.78,4.52-5.22,5.57-1-2.79-3.83-5.23-6.26-5.23-2.09.35-1.4,3.49-.35,5.58,1.22,1.56,2.78,3.13,3.91,4.83a6.68,6.68,0,0,1,1.23,5.66,14.31,14.31,0,0,1-6.06-7.93,57.59,57.59,0,0,1-2.22-10.23c-.7-2.43-2.78-4.17-4.52-1.74-1.4-3.48-3.83-6.26-5.57-9.4-1.4,1.4-3.48.35-4.88,1.74-2.78,3.49-6.27,6.27-8.35,10.1-1.4,2.44,0,5.23-1.74,7.32a2.74,2.74,0,0,1-1.4.7c-6.26-3.83-5.22-12.19-8-18.11-.34.35-1.39,1.39-1.39,1-4.52-7.3-12.88-5.22-19.5-7-.7-.34-1.74-.7-1.74-1.74a6.55,6.55,0,0,1-6.13-1c-1.79-1.19-3.44-2.66-5.36-2.84-3.48-.35.7,4.53,2.44,5.92h1.39c-.35,1.74,1,2.78,2.44,1.74,4.18-2.78,9.05-.7,8.7,3.48,0,6.62-9.75,8.36-15.32,11.84-1,.35-2.44,1.05-3.83.7a8.22,8.22,0,0,1-4.53-3.83c-2.09-4.87-5.22-8.7-7.22-13.58-1.13-2-2.53-3.65-4.61-3.48.75,1.57,1.55,3.39,2.43,5.3s1.83,3.93,2.88,5.89c2.54,5.45,7.29,11.11,13.18,12a11.3,11.3,0,0,0,6.23-.9,12.28,12.28,0,0,1-1.1,6,21.33,21.33,0,0,1-3.51,5.3c-1.4,1.63-2.94,3.21-4.36,4.83A23.93,23.93,0,0,0,80.19,111c-.7,1.74-1.74,3.48-.7,5.57A10.44,10.44,0,0,1,81,122c-.06,5.26-4.24,10-8.42,13.41-1,.35.35,2.09-.35,3.14-1,2.78-3.83,4.18-5.57,7.31a18.34,18.34,0,0,1-7.82,7.26,12.57,12.57,0,0,1-9.94.75c-1.39-.52-2.35-2.09-3.09-4-1.78-8.92-9.1-17.63-4.57-27.73,2.44-5.57-4.87-10.79-5.57-17.06,0-1,.7-1.74.7-2.78,0-.7-.7-1-1-1.39-3.48-.7-5.92-3.49-8.36-3.14C15.43,99.9,5.68,97.81.46,87.37a4,4,0,0,1-.35-2.79c.7-3.13.35-6.61.7-9C2.21,67.87,9.87,63,14.74,56c.35-.7.7-1.74.35-1.74C10.21,52.55,11.61,48,12,44.54a1.55,1.55,0,0,1,1.4-1c2.78.35,8.7,1.74,8.35-2.79-.34-2.08-2.43-2.43-3.83-3.48,2.44-.35,4.18-1.74,6.13-2.74a36.56,36.56,0,0,0,5.36-4.57c.7-.35,2.44.7,3.14-.7.34-1-.7-2.09-.35-3.13a2.86,2.86,0,0,1,2.09-1.4c.7.35.7,1.4.7,2.09.35.35,1.74,0,1.74-.7,0-4.52-4.18-1.39-5.22-2.78-5.57-4.87,7-8.7,11.14-12.54a6.53,6.53,0,0,1,4.85-2.13c5.94-.65,12.9-.3,18.13,3.18-1.4,1.74-3.49.7-5.23,1-.34.35-1,1.05-1,1.4.7,1,2.09,1,3.48,1.39-.35-.35-.35-.7-.7-1.05h1.74c1.74-.7,2.44-2.78,4.88-2.43.7,0-.35-1.4,0-2.09,1.74-2.09,1.74,1.39,2.43,1C75.67,9,80.89,8.68,85.42,8.33c0-.35-.35-.35-.35-.7,3.13-1.39,6.27,0,9.05,1-.7-.34-1.39-1-2.09-1.39a2.65,2.65,0,0,1-.35-1.74A2.23,2.23,0,0,1,94,3.38a2.63,2.63,0,0,1,.49.07,2.6,2.6,0,0,1,2.09,2.09c9.75-3.48,20.54-7,31-4.95a25.23,25.23,0,0,1,6.26,2.16c6.62,3.14,14.28,3.14,21.94,4.18,4.87.35,9.05-2.09,13.92-2.78.7,0,1.4.7,2.09,1,5.23.35,10.45,0,15.67,1.74a16.25,16.25,0,0,0,4.18,0,12.26,12.26,0,0,1,3.83,1.4c0-.35,0-1.4.35-1.4a116.8,116.8,0,0,1,20.6,6.42C216.76,13.4,217.08,13.26,217.55,13.3Zm-66,17.62a2.38,2.38,0,0,0-.8-2.51A7.68,7.68,0,0,1,148.75,33a1.42,1.42,0,0,0,1.22-.51C150.54,31.93,151.42,31.59,151.6,30.92ZM130.8,2.23c-.81.17-1.86.17-2.36,1.19.74-.06,2.19-.32,2.37-1.19ZM116.55,40.34c-.32-.58-1.08.17-.7.69.51,0,.67-.26.7-.69ZM99.06,11.07a2,2,0,0,0,1.47-.33c1.36-2.16-1.78-3.94-3.16-5C97,7.5,99.45,7.5,99.57,9.43,99.56,10.15,98.82,10.22,99.06,11.07Zm-.24,32.36c1.26-.25-.08-2.4-1-2.16-1.23.32.18,2.33,1,2.16ZM93.21,54c.57-2.1-3.61-3.84-.82-4.89-1.75-2.78-7-6.26-3.14-9.4-2.78-1-7-.7-6.61,2.79.34,4.18,4.52,6.61,4.87,10.79a3.6,3.6,0,0,0,3.32,1.56A3.47,3.47,0,0,0,93.21,54ZM74.64,48c.67,0,1.36-.4,1.35-1.13-1.09-2.9-4.19-2.47-6.3-4.24-1.74-1,.3-2.21-.41-3.29-.37-1.1-2.41-.28-2.74.46C65.88,41.29,68,42,65.9,42.73c-2.42.75-2.8-2.8-4.87-2.76-1.73.38-2.42,1.78-3.11,3.17-.35,1.74.7,2.79,1,4.18,0,.35-.7.7-1,.7.34.35.7.7,1,.7a9.27,9.27,0,0,1,6.32-2,22.25,22.25,0,0,1,6.65,1.41,14.43,14.43,0,0,0,2.71-.1Zm-4.46,9.32c-.08-.95-.08-2.7-1.12-2.7-3.48-.34-7.66.35-10.53-.89-2-2.18-2.35-7.46-6.53-5,2.09,1.74,1.72,5.26.34,4.53-2.78-1.75-4.78-4.19-6.83-6.54s-4.13-4.61-7.09-6c-1.05,4.88,5.22,4.88,7.31,7.66-2.44-.7-.7,2.09-2.44,3.13-.7-4.87-5.92-7.31-10.44-8-1.05-.35-1.74.7-2.79,1-.34,0-1-1-1.74-.69-3.83,1.39-4.52,5.22-7,8.35-1.39,1.74-4.53.35-5.57,2.44,0,.69,1,1,1.74,1,6.27-1,15.67-7.66,19.84,0a1.12,1.12,0,0,1-1,1,18.75,18.75,0,0,0,6.4,3.7,63.48,63.48,0,0,0,7.16,1.91,2.27,2.27,0,0,1,1.65-2.76,2.32,2.32,0,0,1,.46-.07c5.22-.34,15,6.62,17.41-.08.25-.87.76-1.44.77-2.11Zm2.46,67.45c.56-1.14,1.31-1.88,0-2.48-.38.65-.82,2.18,0,2.48Zm-1.25-16a1.46,1.46,0,0,0,.46-2.19c-1.16-1.09-2.52-.4-3.16.67-.3,1.09.17,3.3,2.06,2.7.52-.26.43-.69.64-1.19Zm-4.6,8.23c-.4-1.26-.41-2.74-1.45-3.41-.56,1.29.3,3.34,1.45,3.4ZM53.92,21.22c-2.66-.81-8.19,2.43-7.84-2.45,0-1.74,2.08-2.46,3.45-3.55-3.11-1-6.59,1.81-7.28,4.25-.35,2.09,1,3.13-1,4.87-.35.35.35,1.05.35,1.4-2.44.34-4.18,2.44-6.61,2.08,3.13,2.79,7.66,1.4,11.14-.7.35,0-.35-1.74.35-2.43,1-.35,1.74.7,2.78.34a1.06,1.06,0,0,0,0-1.4c-.69-.34-1.74,0-2.43,0,.35-1,1.74-.35,2.23-1.37,1.77-.66,4.18.5,4.91-1.05Z"/><path id="Trazado_2394" data-name="Trazado 2394" class="cls-8" d="M211.87,162.17c-1,1.87-3.32,3.94-5.11,2.89-1.07-.7-.27-2.08.89-3.12.39-.34,1.12,0,1.63.24C210.23,162.32,211.14,161.65,211.87,162.17Z"/><path id="Trazado_2395" data-name="Trazado 2395" class="cls-9" d="M205.27,53.29c2,4.47-6,4.13-8.78,6.56-.35.35.34,1.74-.35,1.74-1.39,0-2.44-1.74-2.44-2.43,0-1.4,1.74-2.79,3.13-3.49.7-.34,2.1.35,2.79,0,2.79-2.08,3.13-4.52,2.09-7.67a3.47,3.47,0,0,1,3.21,3.72,3.23,3.23,0,0,1-.08.53A7.13,7.13,0,0,0,205.27,53.29Z"/><path id="Trazado_2396" data-name="Trazado 2396" class="cls-10" d="M205.57,45.08c-1.07,1.89-4.56.15-4.21,2.59-2.43-.7-1-3.83-1.39-5.57,1,1,2.44.7,3.61,1.83C204.63,44.11,205.5,44,205.57,45.08Z"/><path id="Trazado_2397" data-name="Trazado 2397" class="cls-11" d="M202,120.22c.07.66-1.12.7-1.24.28C200.78,120,201.84,119.71,202,120.22Z"/><path id="Trazado_2398" data-name="Trazado 2398" class="cls-12" d="M197.48,38.18c.76.47,2.58,1.52,1.35,2.38A2.33,2.33,0,0,1,197.48,38.18Z"/><path id="Trazado_2399" data-name="Trazado 2399" class="cls-13" d="M192.75,117.66c1.05-1,2.2-1.9,3.63-1.28-1.55,1.26-3.16,3.28-5.25,2.9C191.19,118.38,192.1,118.07,192.75,117.66Z"/><path id="Trazado_2400" data-name="Trazado 2400" class="cls-14" d="M191.49,103.05c.88-.1,1.6-.16,2.31-.22-1.14,2.21-4,1-6.1,1.52a2.49,2.49,0,0,1,1.56-1.4C189.83,102.84,190.66,103.13,191.49,103.05Z"/><path id="Trazado_2401" data-name="Trazado 2401" class="cls-15" d="M192.18,105.36c-3.21,2.12.59,4.71-1,6.68-1.56,1.6-1.26-2.82-3.09-2.31-.72,0,.18,2.55-1.68,3.43.19-2.59-1.38-5.76,1.22-7.73.36,0,.68.66,1.15,1C189.71,106.5,190.87,105.24,192.18,105.36Z"/><path id="Trazado_2402" data-name="Trazado 2402" class="cls-16" d="M188.49,117.48c-.34.63-1.94.5-2,0C186.78,116.78,188.4,116.81,188.49,117.48Z"/><path id="Trazado_2403" data-name="Trazado 2403" class="cls-17" d="M186.83,119.55c-.64,1-1.28,0-1.68-.49a.94.94,0,0,1,1.34-.13A.92.92,0,0,1,186.83,119.55Z"/><path id="Trazado_2404" data-name="Trazado 2404" class="cls-18" d="M185.15,102.16a1.52,1.52,0,0,1,.82,1.24c-2.24,2.28-2.82,5.93-4.65,6.76a6.84,6.84,0,0,1-7-.8c-1.89-1.41-2.79-3.58-1-5.54,1.26-1.25,3-3.12,4.8-4.78s3.74-3.1,5.49-3.52c2.46-.45,2.1,2.65,1.09,5.37A5.12,5.12,0,0,0,185.15,102.16Z"/><path id="Trazado_2405" data-name="Trazado 2405" class="cls-19" d="M184.87,117.74c-1.39.79-2.85,1.23-4.18.17a2.72,2.72,0,0,1,1.72-.38C183.35,117.37,184.71,116.59,184.87,117.74Z"/><path id="Trazado_2406" data-name="Trazado 2406" class="cls-20" d="M179.63,117.77a29.1,29.1,0,0,1-6.53-.19,10.52,10.52,0,0,1-5.86-2.72,13.79,13.79,0,0,1,9.69,1.68C177.78,117,179.24,116.86,179.63,117.77Z"/><path id="Trazado_2407" data-name="Trazado 2407" class="cls-21" d="M170.81,108.39c1.88,0,1.66,3.11-.21,3.1S168.92,108.38,170.81,108.39Z"/><path id="Trazado_2408" data-name="Trazado 2408" class="cls-22" d="M168.08,108c1.95,2-1.18,3.73-.84,5.82-5.22-1.74-6.61-7.66-9.83-11.66a20.07,20.07,0,0,0-3.4-4,15.3,15.3,0,0,1,7.5,3.77,33.16,33.16,0,0,1,5.43,6.61C167.45,108.7,167.52,107.92,168.08,108Z"/><path id="Trazado_2409" data-name="Trazado 2409" class="cls-23" d="M134,92.7c.61.21,2.55,2.74,1.88,4.14a1.75,1.75,0,0,1-1.65.79c-1.43-.23-1-3.42-.46-4.71A.39.39,0,0,1,134,92.7Z"/><path id="Trazado_2410" data-name="Trazado 2410" class="cls-24" d="M93.16,125.79c-1.82,4.74-3.56,17.62-8.78,13.79-2.79-1.74-.35-8,2.09-11.49.7-.35,1.74-.35,2.43-1,1-1,2.44-2.09,2.93-3.92C92.8,122.64,93,124.51,93.16,125.79Z"/><path id="Trazado_2411" data-name="Trazado 2411" class="cls-25" d="M72.78,8.64c-.17-.78,1.45-.78,1.11,0C73.62,8.86,72.92,8.9,72.78,8.64Z"/><path id="Trazado_2412" data-name="Trazado 2412" class="cls-26" d="M65.86,56.72c0-.65,1.4-.83,1.7-.24C67.49,57.12,66.18,57.49,65.86,56.72Z"/><path id="Trazado_2413" data-name="Trazado 2413" class="cls-27" d="M39,51.75c.75-.66,2.6-.19,3.72-.2-.14.59-.1,1.37-.52,1.7A4.78,4.78,0,0,1,39,51.75Z"/><path id="Trazado_2414" data-name="Trazado 2414" class="cls-28" d="M33,47.58c1-1.12,2.09-.52,1.87,1.64-.2.64-1.23,1.5-1.8.54A8,8,0,0,0,33,47.58Z"/><path id="Trazado_2415" data-name="Trazado 2415" class="cls-29" d="M34.34,45.1a1,1,0,0,1-.42,1.16C32.92,46.07,33.52,44.24,34.34,45.1Z"/><path id="Trazado_2416" data-name="Trazado 2416" class="cls-30" d="M25.09,31.38c-1.29,2.36-4.79,3.75-6.52,2.36C17.18,32.7,20,31,20,29.21c.34-.7-1.4-.7-2.09-1.39a2.64,2.64,0,0,1-.7-1.74c.35-2.09,2.44-2.44,3.83-2.79-1,1.05.35,1.4,1,1.75-1.4,2.43,1.39,3.48,1.81,5.4C24.22,30.8,25,30.84,25.09,31.38Z"/><path id="Trazado_2417" data-name="Trazado 2417" class="cls-31" d="M17.6,28.71c-.77,2.59-2.86,4.68-5.64,3.64,1.39-1.74,1-3.14,3-4.17C15.92,27.56,17.54,28,17.6,28.71Z"/></g><path id="Trazado_2418" data-name="Trazado 2418" class="cls-32" d="M415.86,113.68c-2.8,4.66-2.1,10.58-5.24,15.11-1.57,2.17-3.13,4.22-4.69,6.2a15.12,15.12,0,0,0-4.39,4.82c-1.28,2-2.43,4.27-3.59,6.37-1.6,3.5-4.74,7.68-8.92,7,3.83,3.13,1.4,6.61-2.43,8-.35.35-.35,1.74-.7,2.09s-1,0-1.74,0c2.78,2.09-.35,4.87,0,7.31.34.7,1.39.7,2.09,1-1.75,3.83,0,9.4,4.52,10.1-6.61,3.83-13.23-2.44-15.67-8.35a15.85,15.85,0,0,1-1-5.57,1.76,1.76,0,0,0,1-.35,2.15,2.15,0,0,0-1.39-2.71l-.35-.08c.7.35.35,1,.35,1.39-3.13-4.52-2.78-10.44-4.18-15.31-1-4.18,0-8.36-1.78-12.57a21,21,0,0,0-4.1-8.54,16.21,16.21,0,0,0-5.34-3.86,23.34,23.34,0,0,1-4-4.75c-4.38-6.88-4.85-15.78.26-23.9.7-.7,1.05-3.48-1-3.48-2.44,0-5.92,1-7-1-4.18-9-15-8.7-22-14.36a37.89,37.89,0,0,1-5-3.81,31.53,31.53,0,0,1-7.77-10.73c-.35-.7-1.05,2.79-.35,3.83,1,1.75,3.48,3.49,3.13,5.92-4.87-2.43-5.22-8.35-7-12.88,0-.35-1.74-.35-2.09-1a8.63,8.63,0,0,1,.17-8.36c3-2.44,4-6.27,5.6-9.87a27,27,0,0,0,.8-5.65,38.46,38.46,0,0,0-.3-6.07c-.35.35-1.05,1.05-1.05.7-1-2.44,1.39-5.92-1.39-7.31-4.18-1.4-7.31,0-11.49,1.39a1.12,1.12,0,0,1-1.05-1,9.28,9.28,0,0,1-6,.08,17.2,17.2,0,0,1-5.18-2.87c2.44-2.78,7-.38,9.37-3.28-1-.55-3.45.5-3.45-.9.35-2.44,3.83-1,5.23-2.09,7.54-6.67,17.5-6.57,26.86-6.36,1.87,0,3.72.09,5.52.1a17.76,17.76,0,0,1,5.53-.6,30.13,30.13,0,0,1,5.26.73c3.48.91,7,2.31,10.79,2a1.54,1.54,0,0,0,1-1.39c-1-2.44-3.48-.7-5.57-1.74,1.39-1.39,2.78-2.44,4.87-2.09,6.62,1,11.84,5.22,18.45,4.53-2.43,2.78-3.48,7-7.66,3.83,2.09,4.87,7.66-.7,11.15,1.74a2.5,2.5,0,0,1-1.4.7c.35,0,1.05.7,1.4.35,2.43-2.79,1-3.49-1.4-5.57,1.4-.7,2.79-1.75,4.53-1.75,2.09.35,0,1.75.35,2.79,1.39-1.39,3.48-4.18,5.57-2.79V9.72c-1.05.7-2.44,0-3.48,1-1.4,1.4,0,3.14,1.39,4.18,0,.35-.7,1.05-1,1.39a3.81,3.81,0,0,0,4.17-2.78c0-.7-1-.35-1.39-.35-.7-4.53,4.87-6.27,8.7-5.57,2.44.7,5.92,0,7,2.44s3.83,2.78,3.83,4.87-2.09,1.74-3.83,1.39c-2.78-.34.35,1.4,0,2.79-.7,1.39-2.08,1.39-3.13,1.39.35.35.7.7.35,1-2.79,1.39-4.18-2.79-6.62-2.09-.7,0-1.39.7-2.43,0,2.43-1.74,7.31-1.39,7-4.88-.35-2.43-4.18-2.43-5.57-1-1.74,1.74-3.48,4.18-6.27,4.87-.69.35-1-.34-1.39-.7,0,1.74,3.13,1.74,2.44,2.44-1.05,1.74-3.48,2.09-5.57.7,1,.35,1-1,1.39-1.39-2.26,1.56-6.44,1.91-9.79,2.75-3.44.38-6.92,3.17-4.49,6.65,2.09,2.44,5.23,2.09,7.66,3.83-1,.7-1.74,3.83-.7,3.13a53.09,53.09,0,0,0,9.4-5.92,48.83,48.83,0,0,1,2.66-5.44,5.19,5.19,0,0,1,5-2.56c1.4,0,1.74,1.39,2.79,1.74-.35.7-1.05,1.39-1.05,2.09.35.7,1.05.7,1.75.7a6.32,6.32,0,0,0,2.43-1.75C397,23,394.25,28.52,396,29.92c.34,0,1.39,0,1.74.35,1.74,2.08-1.05,3.82-.7,6.26a2.75,2.75,0,0,1,1.74.7,1.57,1.57,0,0,1,0,1.74c-1.74,2.44-4.53,0-7,.35l4.52-4.52c-2.78.7-5.57,1-8,2.43a1.28,1.28,0,0,0,1.05.35c-2.09.7-4.53-1.4-5.92.7.7,0,1.39-.35,2.09,0,1.39,1.4-1.05,1.74-1.05,2.44,0,2.79,3.49.35,4.88.7A9.69,9.69,0,0,1,381,44.64a1,1,0,0,0,1-1v-.13c-2.61,1.31-5.5,2.85-8.4,4.62-1.45.88-2.9,1.82-4.3,2.81-4.58,3.3-9.44,7.27-12,12.57a18.17,18.17,0,0,0-1.73,5.77,11.73,11.73,0,0,0-4.66-4.23c-5.48-2.76-12.92-1.26-17.62,3.18-1.75,1.74-2.09,3.83-2.44,5.92a4.05,4.05,0,0,0,.69,3.48c3.84,4.88,7.32-2.09,11.5-1.74,3.82,0-1.05,4.53,0,4.88,4.17,2.78,4.17,5.22,5.57,9.74a3,3,0,0,0,3.13,1.39c1.74,0,3.48,0,4.52,1.4,1.4-2.78,4.53-4.18,7.32-5.22,0,.35-.35.7-.35,1,4.87,0,9.75,2.1,14.62,1,.7,3.13,3.05,4.18,5.67,4.94,6.52.28,8.95,6.9,14.53,9.68a29.18,29.18,0,0,0,4.17,1.4c4.18,1,8,2.78,12.14,4.33C415.06,110.81,415.75,112.8,415.86,113.68Zm-22-97.35c.33,0,.51-.14.47-.51a.35.35,0,0,0-.47.51Zm-7.73-6.59c-.32.1-.32.1-.4.37C386.05,10.15,386.1,9.94,386.16,9.74ZM368,46a3.19,3.19,0,0,0-3.19.44C365.55,46.78,367.67,47,368,46Zm-3.83-1.12c1.37-2.26-2.56-1.94-4-1.3.63,1-.86,2.35.16,3,1.36.67,1.86-1.68,2.82-1.87.38-.06.55.2,1.06.13Zm-.71,47.16c.59-.1.48-1.48-.24-1.15-.55.26-.31,1.24.24,1.15Zm-.54-44.28c-1.37.23-3.11-.47-4.15,1.25h1.47a7.59,7.59,0,0,0,2.68-1.26Zm-3-5.56c1.67-.9.3-2-.05-2.34-2.06-1.46-5.12-.37-7.15,1.45,1.38.76,3.06-.7,4.55,1a14.65,14.65,0,0,0,2.65-.06Zm-1.17,1.14c-2.86-.56-5.84,2.79-5.17,4.55.68,2.09,1.12-2.75,3.72-3.5.66-.34,1.3-.26,1.46-1Zm-1.87-29.47c.68-.1.69-.45.69-.81-2.42.32-5.15-3.27-6.41-1.06,1.62,1.52,4.07.41,5.73,1.87Zm-7.52,19.35c.9.13,1.65-2.44.1-2.39-1,0-1.36,2.21-.1,2.39Zm-4,55.54c0-.11.12-.18.16-.3-.18-.75-.93.25-.16.3Zm-4-70.4c.51.25,1.29,0,1.29-.33-1.14-2-3.08.21-4.49.46a6.35,6.35,0,0,0,3.21-.13Zm-.37-5.58a8,8,0,0,0,1.3.07c-1-2.11-4.52-2.11-5.09.1,1.13.39,2.5-.17,3.79-.17Zm-26.54,27c.36-.47-.15-1.33-.67-.91-.05.33.1,1.1.68.91Zm-2-12.91c-.07-.18-.41-.14-.51,0a.29.29,0,0,0,.34.2.3.3,0,0,0,.18-.17Z"/></g></g></svg>