<svg xmlns="http://www.w3.org/2000/svg" width="5000" height="1619.186" viewBox="0 0 5000 1619.186">
  <path id="Trazado_14831" data-name="Trazado 14831" d="M5127.119,7453c-243.474,90.783-638.07-37.143-898.05-28.891-111.419,0-165.072,74.285-313.63,61.9-78.409-4.125-119.672-123.8-222.846-127.926-94.913,0-144.433,115.547-226.967,119.676-90.788,0-169.193-61.9-243.474-66.027-309.5-20.631-606.628,12.377-903.75,24.756-210.46,8.254-383.782-61.9-581.864-53.645-181.579,4.123-309.5,45.4-519.969,24.76s-363.146,33.018-573.61,41.271c-189.828,4.125-313.63-90.791-515.84,12.377V8977.266h5000Z" transform="translate(-127.119 -7358.08)" fill="#42acd9" opacity="0.8"/>
</svg>
