<svg xmlns="http://www.w3.org/2000/svg" xmlns:xlink="http://www.w3.org/1999/xlink" width="896" height="425" viewBox="0 0 896 425">
  <defs>
    <clipPath id="clip-path">
      <rect id="Rectángulo_2417" data-name="Rectángulo 2417" width="896" height="425" transform="translate(60 98)" fill="#fff" stroke="#707070" stroke-width="1"/>
    </clipPath>
  </defs>
  <g id="puntos_exactos" data-name="puntos exactos" transform="translate(-60 -98)" clip-path="url(#clip-path)">
    <g id="Grupo_1954" data-name="Grupo 1954" transform="translate(-1648.256 -7999.895)" opacity="0.65">
      <circle id="Elipse_141" data-name="Elipse 141" cx="10.337" cy="10.337" r="10.337" transform="translate(2352.498 8309.307)" fill="#fff"/>
      <circle id="Elipse_142" data-name="Elipse 142" cx="10.337" cy="10.337" r="10.337" transform="translate(2383.498 8263.668)" fill="#fff"/>
      <circle id="Elipse_143" data-name="Elipse 143" cx="10.337" cy="10.337" r="10.337" transform="translate(2398.998 8286.918)" fill="#fff"/>
      <circle id="Elipse_144" data-name="Elipse 144" cx="10.337" cy="10.337" r="10.337" transform="matrix(0.16, -0.987, 0.987, 0.16, 2436.225, 8234.331)" fill="#fff"/>
      <circle id="Elipse_145" data-name="Elipse 145" cx="10.337" cy="10.337" r="10.337" transform="translate(2483.456 8173.182)" fill="#fff"/>
      <path id="Trazado_16403" data-name="Trazado 16403" d="M2535.991,8169.741a10.337,10.337,0,1,1-10.338-10.337A10.338,10.338,0,0,1,2535.991,8169.741Z" fill="#fff"/>
      <circle id="Elipse_146" data-name="Elipse 146" cx="10.337" cy="10.337" r="10.337" transform="translate(2563.539 8195.57)" fill="#fff"/>
      <circle id="Elipse_147" data-name="Elipse 147" cx="10.337" cy="10.337" r="10.337" transform="translate(2583.345 8113.766)" fill="#fff"/>
      <path id="Trazado_16404" data-name="Trazado 16404" d="M1791.135,8196.436A10.336,10.336,0,1,1,1780.8,8186.1,10.338,10.338,0,0,1,1791.135,8196.436Z" fill="#fff"/>
      <path id="Trazado_16405" data-name="Trazado 16405" d="M1974.55,8255.852a10.337,10.337,0,1,1-10.336-10.337A10.338,10.338,0,0,1,1974.55,8255.852Z" fill="#fff"/>
      <circle id="Elipse_148" data-name="Elipse 148" cx="10.337" cy="10.337" r="10.337" transform="translate(1960.766 8273.07)" fill="#fff"/>
      <circle id="Elipse_149" data-name="Elipse 149" cx="10.337" cy="10.337" r="10.337" transform="translate(2020.182 8272.21)" fill="#fff"/>
      <path id="Trazado_16406" data-name="Trazado 16406" d="M2064.966,8285.13a10.337,10.337,0,1,1-10.336-10.337A10.337,10.337,0,0,1,2064.966,8285.13Z" fill="#fff"/>
      <circle id="Elipse_150" data-name="Elipse 150" cx="10.337" cy="10.337" r="10.337" transform="translate(2117.487 8307.515)" fill="#fff"/>
      <circle id="Elipse_151" data-name="Elipse 151" cx="10.337" cy="10.337" r="10.337" transform="translate(2148.762 8290.729) rotate(-22.5)" fill="#fff"/>
      <circle id="Elipse_152" data-name="Elipse 152" cx="10.337" cy="10.337" r="10.337" transform="translate(2181.208 8335.069)" fill="#fff"/>
      <circle id="Elipse_153" data-name="Elipse 153" cx="10.337" cy="10.337" r="10.337" transform="translate(2201.875 8420.318)" fill="#fff"/>
      <circle id="Elipse_154" data-name="Elipse 154" cx="10.337" cy="10.337" r="10.337" transform="translate(2017.599 8498.679)" fill="#fff"/>
      <circle id="Elipse_155" data-name="Elipse 155" cx="10.337" cy="10.337" r="10.337" transform="translate(2212.484 8382.005) rotate(-22.5)" fill="#fff"/>
      <circle id="Elipse_156" data-name="Elipse 156" cx="10.337" cy="10.337" r="10.337" transform="translate(2190.681 8245.516)" fill="#fff"/>
      <circle id="Elipse_157" data-name="Elipse 157" cx="10.337" cy="10.337" r="10.337" transform="translate(2212.693 8326.397) rotate(-76.717)" fill="#fff"/>
      <circle id="Elipse_158" data-name="Elipse 158" cx="10.337" cy="10.337" r="10.337" transform="translate(1949.571 8324.736)" fill="#fff"/>
      <circle id="Elipse_159" data-name="Elipse 159" cx="10.337" cy="10.337" r="10.337" transform="translate(1914.751 8326.397) rotate(-76.717)" fill="#fff"/>
      <circle id="Elipse_160" data-name="Elipse 160" cx="10.337" cy="10.337" r="10.337" transform="translate(1877.238 8323.014)" fill="#fff"/>
      <circle id="Elipse_161" data-name="Elipse 161" cx="10.337" cy="10.337" r="10.337" transform="translate(1880.684 8352.291)" fill="#fff"/>
      <path id="Trazado_16407" data-name="Trazado 16407" d="M1899.634,8393.627a10.336,10.336,0,1,1-10.336-10.337A10.337,10.337,0,0,1,1899.634,8393.627Z" fill="#fff"/>
      <circle id="Elipse_162" data-name="Elipse 162" cx="10.337" cy="10.337" r="10.337" transform="translate(1848.822 8381.568)" fill="#fff"/>
      <circle id="Elipse_163" data-name="Elipse 163" cx="10.337" cy="10.337" r="10.337" transform="translate(1824.335 8408.202) rotate(-76.718)" fill="#fff"/>
      <path id="Trazado_16408" data-name="Trazado 16408" d="M1830.747,8397.072a10.337,10.337,0,1,1-10.337-10.337A10.337,10.337,0,0,1,1830.747,8397.072Z" fill="#fff"/>
      <path id="Trazado_16409" data-name="Trazado 16409" d="M1785.968,8298.046a10.336,10.336,0,1,1-10.336-10.337A10.337,10.337,0,0,1,1785.968,8298.046Z" fill="#fff"/>
      <circle id="Elipse_164" data-name="Elipse 164" cx="10.337" cy="10.337" r="10.337" transform="translate(1708.462 8332.486)" fill="#fff"/>
      <circle id="Elipse_165" data-name="Elipse 165" cx="10.337" cy="10.337" r="10.337" transform="translate(1847.962 8421.179)" fill="#fff"/>
      <circle id="Elipse_166" data-name="Elipse 166" cx="10.337" cy="10.337" r="10.337" transform="translate(1885.85 8417.734)" fill="#fff"/>
      <circle id="Elipse_167" data-name="Elipse 167" cx="10.337" cy="10.337" r="10.337" transform="translate(1937.516 8398.79)" fill="#fff"/>
      <circle id="Elipse_168" data-name="Elipse 168" cx="10.337" cy="10.337" r="10.337" transform="translate(1773.045 8137.876)" fill="#fff"/>
      <path id="Trazado_16410" data-name="Trazado 16410" d="M2405.033,8231.811a10.337,10.337,0,1,1-10.338-10.337A10.339,10.339,0,0,1,2405.033,8231.811Z" fill="#fff"/>
      <circle id="Elipse_169" data-name="Elipse 169" cx="10.337" cy="10.337" r="10.337" transform="translate(2331.855 8233.533) rotate(-45)" fill="#fff"/>
      <circle id="Elipse_170" data-name="Elipse 170" cx="10.337" cy="10.337" r="10.337" transform="matrix(0.16, -0.987, 0.987, 0.16, 2326.004, 8195.581)" fill="#fff"/>
      <circle id="Elipse_171" data-name="Elipse 171" cx="10.337" cy="10.337" r="10.337" transform="translate(2401.781 8256.719) rotate(-80.783)" fill="#fff"/>
      <circle id="Elipse_172" data-name="Elipse 172" cx="10.337" cy="10.337" r="10.337" transform="translate(2363.832 8341.21)" fill="#fff"/>
      <circle id="Elipse_173" data-name="Elipse 173" cx="10.337" cy="10.337" r="10.337" transform="translate(2417.496 8367.479) rotate(-22.5)" fill="#fff"/>
      <circle id="Elipse_174" data-name="Elipse 174" cx="10.337" cy="10.337" r="10.337" transform="translate(2431.813 8408.267) rotate(-45)" fill="#fff"/>
      <circle id="Elipse_175" data-name="Elipse 175" cx="10.337" cy="10.337" r="10.337" transform="translate(2496.373 8414.291)" fill="#fff"/>
      <circle id="Elipse_176" data-name="Elipse 176" cx="10.337" cy="10.337" r="10.337" transform="matrix(0.16, -0.987, 0.987, 0.16, 2543.073, 8359.981)" fill="#fff"/>
      <circle id="Elipse_177" data-name="Elipse 177" cx="10.337" cy="10.337" r="10.337" transform="translate(2336.276 8364.46)" fill="#fff"/>
    </g>
  </g>
</svg>
