<svg xmlns="http://www.w3.org/2000/svg" width="895.556" height="405.587" viewBox="0 0 895.556 405.587">
  <g id="Grupo_1468" data-name="Grupo 1468" transform="translate(-210.206 -196.871)">
    <g id="Grupo_489" data-name="Grupo 489" transform="translate(-1498.256 -7916.895)" opacity="0.65">
      <circle id="Elipse_33" data-name="Elipse 33" cx="10.337" cy="10.337" r="10.337" transform="translate(2352.498 8309.307)" fill="#fff"/>
      <circle id="Elipse_34" data-name="Elipse 34" cx="10.337" cy="10.337" r="10.337" transform="translate(2383.498 8263.668)" fill="#fff"/>
      <circle id="Elipse_35" data-name="Elipse 35" cx="10.337" cy="10.337" r="10.337" transform="translate(2398.998 8286.918)" fill="#fff"/>
      <circle id="Elipse_36" data-name="Elipse 36" cx="10.337" cy="10.337" r="10.337" transform="matrix(0.16, -0.987, 0.987, 0.16, 2436.225, 8234.331)" fill="#fff"/>
      <circle id="Elipse_37" data-name="Elipse 37" cx="10.337" cy="10.337" r="10.337" transform="translate(2483.456 8173.182)" fill="#fff"/>
      <path id="Trazado_1575" data-name="Trazado 1575" d="M2535.991,8169.741a10.337,10.337,0,1,1-10.338-10.337A10.338,10.338,0,0,1,2535.991,8169.741Z" fill="#fff"/>
      <circle id="Elipse_38" data-name="Elipse 38" cx="10.337" cy="10.337" r="10.337" transform="translate(2563.539 8195.57)" fill="#fff"/>
      <circle id="Elipse_39" data-name="Elipse 39" cx="10.337" cy="10.337" r="10.337" transform="translate(2583.345 8113.766)" fill="#fff"/>
      <path id="Trazado_1576" data-name="Trazado 1576" d="M1791.135,8196.436A10.336,10.336,0,1,1,1780.8,8186.1,10.338,10.338,0,0,1,1791.135,8196.436Z" fill="#fff"/>
      <path id="Trazado_1577" data-name="Trazado 1577" d="M1974.55,8255.852a10.337,10.337,0,1,1-10.336-10.337A10.338,10.338,0,0,1,1974.55,8255.852Z" fill="#fff"/>
      <circle id="Elipse_40" data-name="Elipse 40" cx="10.337" cy="10.337" r="10.337" transform="translate(1960.766 8273.07)" fill="#fff"/>
      <circle id="Elipse_41" data-name="Elipse 41" cx="10.337" cy="10.337" r="10.337" transform="translate(2020.182 8272.21)" fill="#fff"/>
      <path id="Trazado_1578" data-name="Trazado 1578" d="M2064.966,8285.13a10.337,10.337,0,1,1-10.336-10.337A10.337,10.337,0,0,1,2064.966,8285.13Z" fill="#fff"/>
      <circle id="Elipse_42" data-name="Elipse 42" cx="10.337" cy="10.337" r="10.337" transform="translate(2117.487 8307.515)" fill="#fff"/>
      <circle id="Elipse_43" data-name="Elipse 43" cx="10.337" cy="10.337" r="10.337" transform="translate(2148.762 8290.729) rotate(-22.5)" fill="#fff"/>
      <circle id="Elipse_44" data-name="Elipse 44" cx="10.337" cy="10.337" r="10.337" transform="translate(2181.208 8335.069)" fill="#fff"/>
      <circle id="Elipse_45" data-name="Elipse 45" cx="10.337" cy="10.337" r="10.337" transform="translate(2201.875 8420.318)" fill="#fff"/>
      <circle id="Elipse_46" data-name="Elipse 46" cx="10.337" cy="10.337" r="10.337" transform="translate(2017.599 8498.679)" fill="#fff"/>
      <circle id="Elipse_47" data-name="Elipse 47" cx="10.337" cy="10.337" r="10.337" transform="translate(2212.484 8382.005) rotate(-22.5)" fill="#fff"/>
      <circle id="Elipse_48" data-name="Elipse 48" cx="10.337" cy="10.337" r="10.337" transform="translate(2190.681 8245.516)" fill="#fff"/>
      <circle id="Elipse_49" data-name="Elipse 49" cx="10.337" cy="10.337" r="10.337" transform="translate(2212.693 8326.397) rotate(-76.717)" fill="#fff"/>
      <circle id="Elipse_50" data-name="Elipse 50" cx="10.337" cy="10.337" r="10.337" transform="translate(1949.571 8324.736)" fill="#fff"/>
      <circle id="Elipse_51" data-name="Elipse 51" cx="10.337" cy="10.337" r="10.337" transform="translate(1914.751 8326.397) rotate(-76.717)" fill="#fff"/>
      <circle id="Elipse_52" data-name="Elipse 52" cx="10.337" cy="10.337" r="10.337" transform="translate(1877.238 8323.014)" fill="#fff"/>
      <circle id="Elipse_53" data-name="Elipse 53" cx="10.337" cy="10.337" r="10.337" transform="translate(1880.684 8352.291)" fill="#fff"/>
      <path id="Trazado_1579" data-name="Trazado 1579" d="M1899.634,8393.627a10.336,10.336,0,1,1-10.336-10.337A10.337,10.337,0,0,1,1899.634,8393.627Z" fill="#fff"/>
      <circle id="Elipse_54" data-name="Elipse 54" cx="10.337" cy="10.337" r="10.337" transform="translate(1848.822 8381.568)" fill="#fff"/>
      <circle id="Elipse_55" data-name="Elipse 55" cx="10.337" cy="10.337" r="10.337" transform="translate(1824.335 8408.202) rotate(-76.718)" fill="#fff"/>
      <path id="Trazado_1580" data-name="Trazado 1580" d="M1830.747,8397.072a10.337,10.337,0,1,1-10.337-10.337A10.337,10.337,0,0,1,1830.747,8397.072Z" fill="#fff"/>
      <path id="Trazado_1581" data-name="Trazado 1581" d="M1785.968,8298.046a10.336,10.336,0,1,1-10.336-10.337A10.337,10.337,0,0,1,1785.968,8298.046Z" fill="#fff"/>
      <circle id="Elipse_56" data-name="Elipse 56" cx="10.337" cy="10.337" r="10.337" transform="translate(1708.462 8332.486)" fill="#fff"/>
      <circle id="Elipse_57" data-name="Elipse 57" cx="10.337" cy="10.337" r="10.337" transform="translate(1847.962 8421.179)" fill="#fff"/>
      <circle id="Elipse_58" data-name="Elipse 58" cx="10.337" cy="10.337" r="10.337" transform="translate(1885.85 8417.734)" fill="#fff"/>
      <circle id="Elipse_59" data-name="Elipse 59" cx="10.337" cy="10.337" r="10.337" transform="translate(1937.516 8398.79)" fill="#fff"/>
      <circle id="Elipse_60" data-name="Elipse 60" cx="10.337" cy="10.337" r="10.337" transform="translate(1773.045 8137.876)" fill="#fff"/>
      <path id="Trazado_1582" data-name="Trazado 1582" d="M2405.033,8231.811a10.337,10.337,0,1,1-10.338-10.337A10.339,10.339,0,0,1,2405.033,8231.811Z" fill="#fff"/>
      <circle id="Elipse_61" data-name="Elipse 61" cx="10.337" cy="10.337" r="10.337" transform="translate(2331.855 8233.533) rotate(-45)" fill="#fff"/>
      <circle id="Elipse_62" data-name="Elipse 62" cx="10.337" cy="10.337" r="10.337" transform="matrix(0.16, -0.987, 0.987, 0.16, 2326.004, 8195.581)" fill="#fff"/>
      <circle id="Elipse_63" data-name="Elipse 63" cx="10.337" cy="10.337" r="10.337" transform="translate(2401.781 8256.719) rotate(-80.783)" fill="#fff"/>
      <circle id="Elipse_64" data-name="Elipse 64" cx="10.337" cy="10.337" r="10.337" transform="translate(2363.832 8341.21)" fill="#fff"/>
      <circle id="Elipse_65" data-name="Elipse 65" cx="10.337" cy="10.337" r="10.337" transform="translate(2417.496 8367.479) rotate(-22.5)" fill="#fff"/>
      <circle id="Elipse_66" data-name="Elipse 66" cx="10.337" cy="10.337" r="10.337" transform="translate(2431.813 8408.267) rotate(-45)" fill="#fff"/>
      <circle id="Elipse_67" data-name="Elipse 67" cx="10.337" cy="10.337" r="10.337" transform="translate(2496.373 8414.291)" fill="#fff"/>
      <circle id="Elipse_68" data-name="Elipse 68" cx="10.337" cy="10.337" r="10.337" transform="matrix(0.16, -0.987, 0.987, 0.16, 2543.073, 8359.981)" fill="#fff"/>
      <circle id="Elipse_69" data-name="Elipse 69" cx="10.337" cy="10.337" r="10.337" transform="translate(2336.276 8364.46)" fill="#fff"/>
    </g>
  </g>
</svg>
