<?xml version="1.0" standalone="no"?><svg xmlns="http://www.w3.org/2000/svg" viewBox="0 0 1440 320"><path fill="#2f88c0" fill-opacity="1" d="M0,96L40,128C80,160,160,224,240,256C320,288,400,288,480,250.7C560,213,640,139,720,138.7C800,139,880,213,960,224C1040,235,1120,181,1200,160C1280,139,1360,149,1400,154.7L1440,160L1440,320L1400,320C1360,320,1280,320,1200,320C1120,320,1040,320,960,320C880,320,800,320,720,320C640,320,560,320,480,320C400,320,320,320,240,320C160,320,80,320,40,320L0,320Z"></path></svg>